/* XPM */
static char *Corner_top_right[] = {
/* columns rows colors chars-per-pixel */
"100 100 10 1 ",
"  c black",
". c #101010",
"X c #202020",
"o c #404040",
"O c #606060",
"+ c #707070",
"@ c #808080",
"# c #BFBFBF",
"$ c #DFDFDF",
"% c white",
/* pixels */
"                                                                                                    ",
"                                                                                                    ",
"                                                                                                    ",
"                                                                                                    ",
"                                                                                                    ",
"                                                                                                    ",
"                                                                                                    ",
"                                                                                                    ",
"                                                                                                    ",
"                                                                                                    ",
"                                                                                                    ",
"                                                                                                    ",
"                                                                                                    ",
"                                                                                                    ",
"                                                                                                    ",
"                                                                                                    ",
"                                                                                                    ",
"                                                                                                    ",
"                                                                    .oooooooooooo.                  ",
"                                                                    o%%%%%%%%%%%%o                  ",
"                                                                    o%%%%%%%%%%%%o                  ",
"                                                                    o%%%%%%%%%%%%o                  ",
"                                                                    o%%%%%%%%%%%%o                  ",
"                                                                    o%%%%%%%%%%%%o                  ",
"                                                                    o%%%%%%%%%%%%o                  ",
"%%%%%%%%%%%%%%%%%%%%%%%%%%%%%%%%%%%%%%%%%%%%%%%%%%      #%%%%%%%%%%%%%%%%%%%%%%%%o                  ",
"%%%%%%%%%%%%%%%%%%%%%%%%%%%%%%%%%%%%%%%%%%%%%%%%%%      #%%%%%%%%%%%%%%%%%%%%%%%%o                  ",
"%%%%%%%%%%%%%%%%%%%%%%%%%%%%%%%%%%%%%%%%%%%%%%%%%%      #%%%%%%%%%%%%%%%%%%%%%%%%o                  ",
"%%%%%%%%%%%%%%%%%%%%%%%%%%%%%%%%%%%%%%%%%%%%%%%%%%      #%%%%%%%%%%%%%%%%%%%%%%%%o                  ",
"%%%%%%%%%%%%%%%%%%%%%%%%%%%%%%%%%%%%%%%%%%%%%%%%%%      #%%%%%%%%%%%%%%%%%%%%%%%%o                  ",
"%%%%%%%%%%%%%%%%%%%%%%%%%%%%%%%%%%%%%%%%%%%%%%%%%%      #%%%%%%%%%%%%%%%%%%%%%%%%o                  ",
"%%%%%%%%%%%%%%%%%%%%%%%%%%%%%%%%%%%%%%%%%%%%%%%%%%######Oooooooooooo+%%%%%%oooooo.                  ",
"%%%%%%%%%%%%%%%%%%%%%%%%%%%%%%%%%%%%%%%%%%%%%%%%%%%%%%%%o           o%%%%%%                         ",
"%%%%%%%%%%%%%%%%%%%%%%%%%%%%%%%%%%%%%%%%%%%%%%%%%%%%%%%%o           o%%%%%%                         ",
"%%%%%%%%%%%%%%%%%%%%%%%%%%%%%%%%%%%%%%%%%%%%%%%%%%%%%%%%o           o%%%%%%                         ",
"%%%%%%%%%%%%%%%%%%%%%%%%%%%%%%%%%%%%%%%%%%%%%%%%%%%%%%%%o           o%%%%%%                         ",
"%%%%%%%%%%%%%%%%%%%%%%%%%%%%%%%%%%%%%%%%%%%%%%%%%%%%%%%%o           o%%%%%%                         ",
"@@@@@@@@@@@@@@@@@@@@@@@@@@@@@@@$%%%%%%%%%%%%%%%%%%%%%%%%o           o%%%%%%                         ",
"                               #%%%%%%%%%%%%%%%%%%%%%%%%o           o%%%%%%                         ",
"                               #%%%%%%%%%%%%%%%%%%%%%%%%o           o%%%%%%                         ",
"                               #%%%%%%%%%%%%%%%%%%%%%%%%o           o%%%%%%                         ",
"                               #%%%%%%%%%%%%%%%%%%%%%%%%o           o%%%%%%                         ",
"                               #%%%%%%%%%%%%%%%%%%%%%%%%o           o%%%%%%                         ",
"                               #%%%%%$############%%%%%%+oooooooooooO######                         ",
"                               #%%%%%@            %%%%%%%%%%%%%%%%%%#                               ",
"                               #%%%%%@            %%%%%%%%%%%%%%%%%%#                               ",
"                               #%%%%%@            %%%%%%%%%%%%%%%%%%#                               ",
"                               #%%%%%@            %%%%%%%%%%%%%%%%%%#                               ",
"                               #%%%%%@            %%%%%%%%%%%%%%%%%%#                               ",
"                               #%%%%%@            %%%%%%%%%%%%%%%%%%#                               ",
"                         %%%%%%o                        #%%%%%%%%%%%%%%%%%%                         ",
"                         %%%%%%o                        #%%%%%%%%%%%%%%%%%%                         ",
"                         %%%%%%o                        #%%%%%%%%%%%%%%%%%%                         ",
"                         %%%%%%o                        #%%%%%%%%%%%%%%%%%%                         ",
"                         %%%%%%o                        #%%%%%%%%%%%%%%%%%%                         ",
"                         %%%%%%o                        #%%%%%%%%%%%%%%%%%%                         ",
"                         %%%%%%o                        #%%%%%%%%%%%%%%%%%%                         ",
"                         %%%%%%o                        #%%%%%%%%%%%%%%%%%%                         ",
"                         %%%%%%o                        #%%%%%%%%%%%%%%%%%%                         ",
"                         %%%%%%o                        #%%%%%%%%%%%%%%%%%%                         ",
"                         %%%%%%o                        #%%%%%%%%%%%%%%%%%%                         ",
"                         %%%%%%o                        #%%%%%%%%%%%%%%%%%%                         ",
"                  X@@@@@@@@@@@@X                  @@@@@@$%%%%%%%%%%%%%%%%%%                         ",
"                  o%%%%%%                         %%%%%%%%%%%%%%%%%%%%%%%%%                         ",
"                  o%%%%%%                         %%%%%%%%%%%%%%%%%%%%%%%%%                         ",
"                  o%%%%%%                         %%%%%%%%%%%%%%%%%%%%%%%%%                         ",
"                  o%%%%%%                         %%%%%%%%%%%%%%%%%%%%%%%%%                         ",
"                  o%%%%%%                         %%%%%%%%%%%%%%%%%%%%%%%%%                         ",
"            XoooooO######            Xoooooooooooo############$%%%%%%%%%%%%                         ",
"            @%%%%%#                  @%%%%%%%%%%%%            @%%%%%%%%%%%%                         ",
"            @%%%%%#                  @%%%%%%%%%%%%            @%%%%%%%%%%%%                         ",
"            @%%%%%#                  @%%%%%%%%%%%%            @%%%%%%%%%%%%                         ",
"            @%%%%%#                  @%%%%%%%%%%%%            @%%%%%%%%%%%%                         ",
"            @%%%%%#                  @%%%%%%%%%%%%            @%%%%%%%%%%%%                         ",
"            @%%%%%#                  @%%%%%%%%%%%%            @%%%%%%%%%%%%                         ",
"%%%%%%%%%%%%@                  #%%%%%@                        @%%%%%%%%%%%%                         ",
"%%%%%%%%%%%%@                  #%%%%%@                        @%%%%%%%%%%%%                         ",
"%%%%%%%%%%%%@                  #%%%%%@                        @%%%%%%%%%%%%                         ",
"%%%%%%%%%%%%@                  #%%%%%@                        @%%%%%%%%%%%%                         ",
"%%%%%%%%%%%%@                  #%%%%%@                        @%%%%%%%%%%%%                         ",
"%%%%%%%%%%%%@                  #%%%%%@                        @%%%%%%%%%%%%                         ",
"ooooooooooooX            ######OoooooX                        @%%%%%%%%%%%%                         ",
"                         %%%%%%o                              @%%%%%%%%%%%%                         ",
"                         %%%%%%o                              @%%%%%%%%%%%%                         ",
"                         %%%%%%o                              @%%%%%%%%%%%%                         ",
"                         %%%%%%o                              @%%%%%%%%%%%%                         ",
"                         %%%%%%o                              @%%%%%%%%%%%%                         ",
"                  X@@@@@@@@@@@@X                              @%%%%%%%%%%%%                         ",
"                  o%%%%%%                                     @%%%%%%%%%%%%                         ",
"                  o%%%%%%                                     @%%%%%%%%%%%%                         ",
"                  o%%%%%%                                     @%%%%%%%%%%%%                         ",
"                  o%%%%%%                                     @%%%%%%%%%%%%                         ",
"                  o%%%%%%                                     @%%%%%%%%%%%%                         ",
"                  o%%%%%%                                     @%%%%%%%%%%%%                         ",
"                  o%%%%%%                                     @%%%%%%%%%%%%                         ",
"                  o%%%%%%                                     @%%%%%%%%%%%%                         ",
"                  o%%%%%%                                     @%%%%%%%%%%%%                         ",
"                  o%%%%%%                                     @%%%%%%%%%%%%                         ",
"                  o%%%%%%                                     @%%%%%%%%%%%%                         ",
"                  o%%%%%%                                     @%%%%%%%%%%%%                         "
};
