/* XPM */
static char *door1[] = {
/* columns rows colors chars-per-pixel */
"100 94 58 1 ",
"  c black",
". c #070707",
"X c #0C0C0C",
"o c gray6",
"O c #171717",
"+ c #1C1C1C",
"@ c #1E1E1E",
"# c #232323",
"$ c #2D2D2D",
"% c #2F2F2F",
"& c #323232",
"* c #393939",
"= c #3A3A3A",
"- c #3C3C3C",
"; c #3E3E3E",
": c #444444",
"> c #454545",
", c #464646",
"< c #494949",
"1 c #4B4B4B",
"2 c #525252",
"3 c #555555",
"4 c #5A5A5A",
"5 c #5C5C5C",
"6 c #626262",
"7 c #676767",
"8 c DimGray",
"9 c #717171",
"0 c gray45",
"q c gray47",
"w c gray49",
"e c #7F7F7F",
"r c #8E8E8E",
"t c gray59",
"y c #A0A0A0",
"u c #A2A2A2",
"i c #A5A5A5",
"p c #AAAAAA",
"a c #ADADAD",
"s c #AFAFAF",
"d c #B4B4B4",
"f c #B9B9B9",
"g c #C3C3C3",
"h c #C6C6C6",
"j c #CDCDCD",
"k c #D7D7D7",
"l c gainsboro",
"z c #E1E1E1",
"x c #E3E3E3",
"c c #E4E4E4",
"B c #E6E6E6",
"b c gray92",
"n c #EEEEEE",
"m c gray94",
"M c #F2F2F2",
"N c gray96",
"B c white",
"V c None",
/* pixels */
"BBBBBBBBBBBBBBBBB                                                                  BBBBBBBBBBBBBBBBB",
"BBBBBBBBBBBBBBBBB                                                                  BBBBBBBBBBBBBBBBB",
"BBBBBBBBBBBBBBBBB                                                                  BBBBBBBBBBBBBBBBB",
"BBBBBBBBBBBBBBBBB                                                                  BBBBBBBBBBBBBBBBB",
"BBBBBBBBBBBBBBBBB                                                                  BBBBBBBBBBBBBBBBB",
"BBBBBBBBBBBBBBBB;qqqqqqqqqqqqqqqqqqqqqqqqqqqqqqqqqqqqqqqqqqqqqqqqqqqqqqqqqqqqqqqqqq;BBBBBBBBBBBBBBBB",
"BBBBBBBBBBB     3BBBBBBBBBBBBBBBBBBBBBBBBBBBBBBBBBBBBBBBBBBBBBBBBBBBBBBBBBBBBBBBBBB3     BBBBBBBBBBB",
"BBBBBBBBBBB     3BBBBBBBBBBBBBBBBBBBBBBBBBBBBBBBBBBBBBBBBBBBBBBBBBBBBBBBBBBBBBBBBBB3     BBBBBBBBBBB",
"BBBBBBBBBBB     3BBBBBBBBBBBBBBBBBBBBBBBBBBBBBBBBBBBBBBBBBBBBBBBBBBBBBBBBBBBBBBBBBB3     BBBBBBBBBBB",
"BBBBBBBBBBB     3BBBBBBBBBBBBBBBBBBBBBBBBBBBBBBBBBBBBBBBBBBBBBBBBBBBBBBBBBBBBBBBBBB3     BBBBBBBBBBB",
"BBBBBBBBBBB     3BBBBBBBBBBBBBBBBBBBBBBBBBBBBBBBBBBBBBBBBBBBBBBBBBBBBBBBBBBBBBBBBBB3     BBBBBBBBBBB",
"BBBBBB     kmmmmNBBBBBBBBBBBBBBBBBBBBBBBBBBBBBBBBBBBBBBBBBBBBBBBBBBBBBBBBBBBBBBBBBBNmmmmk     BBBBBB",
"BBBBBB     xBBBBBBBBBBBBBBBBBBBBBBBBBBBBBBBBBBBBBBBBBBBBBBBBBBBBBBBBBBBBBBBBBBBBBBBBBBBBx     BBBBBB",
"BBBBBB     xBBBBBBBBBBBBBBBBBBBBBBBBBBBBBBBBBBBBBBBBBBBBBBBBBBBBBBBBBBBBBBBBBBBBBBBBBBBBx     BBBBBB",
"BBBBBB     xBBBBBBBBBBBBBBBBBBBBBBBBBBBBBBBBBBBBBBBBBBBBBBBBBBBBBBBBBBBBBBBBBBBBBBBBBBBBx     BBBBBB",
"BBBBBB     xBBBBBBBBBBBBBBBBBBBBBBBBBBBBBBBBBBBBBBBBBBBBBBBBBBBBBBBBBBBBBBBBBBBBBBBBBBBBx     BBBBBB",
"BBBBB>88888nBBBBBBBBBBattttttttttttttttttttttttttttttttttttttttttttttttttttttaBBBBBBBBBBn88888>BBBBB",
"     9BBBBBBBBBBBBBBBB*                                                      *BBBBBBBBBBBBBBBB9     ",
"     9BBBBBBBBBBBBBBBB*                                                      *BBBBBBBBBBBBBBBB9     ",
"     9BBBBBBBBBBBBBBBB*                                                      *BBBBBBBBBBBBBBBB9     ",
"     9BBBBBBBBBBBBBBBB*                                                      *BBBBBBBBBBBBBBBB9     ",
"     9BBBBBBBBBBBBBBBB*                                                      *BBBBBBBBBBBBBBBB9     ",
"     9BBBBBBBBBBd@@@@@.    &xxxxxlxxlxxxxlxxxxxlxxlxxxlxxxxxxlxxxxxlxxxx&    .@@@@@dBBBBBBBBBB9     ",
"     9BBBBBBBBBBp          *BBBBBBBBBBBBBBBBBBBBBBBBBBBBBBBBBBBBBBBBBBBB*          pBBBBBBBBBB9     ",
"     9BBBBBBBBBBp          *BBBBBBBBBBBBBBBBBBBBBBBBBBBBBBBBBBBBBBBBBBBB*          pBBBBBBBBBB9     ",
"     9BBBBBBBBBBp          *BBBBBBBBBBBBBBBBBBBBBBBBBBBBBBBBBBBBBBBBBBBB*          pBBBBBBBBBB9     ",
"     9BBBBBBBBBBp          *BBBBBBBBBBBBBBBBBBBBBBBBBBBBBBBBBBBBBBBBBBBB*          pBBBBBBBBBB9     ",
"     9BBBBBBBBBBp     >4444eBBBBBBBBBBBBBBBBBBBBBBBBBBBBBBBBBBBBBBBBBBBBe4444>     pBBBBBBBBBB9     ",
"     9BBBBBBBBBBp     hBBBBBBBBBBBBBBBBBBBBBBBBBBBBBBBBBBBBBBBBBBBBBBBBBBBBBBh     pBBBBBBBBBB9     ",
"     9BBBBBBBBBBp     hBBBBBBBBBBBBBBBBBBBBBBBBBBBBBBBBBBBBBBBBBBBBBBBBBBBBBBh     pBBBBBBBBBB9     ",
"     9BBBBBBBBBBp     hBBBBBBBBBBBBBBBBBBBBBBBBBBBBBBBBBBBBBBBBBBBBBBBBBBBBBBh     pBBBBBBBBBB9     ",
"     9BBBBBBBBBBp     hBBBBBBBBBBBBBBBBBBBBBBBBBBBBBBBBBBBBBBBBBBBBBBBBBBBBBBh     pBBBBBBBBBB9     ",
"     9BBBBBBBBBBp     hBBBBBBBBBBBBBBBBBBBBBBBBBBBBBBBBBBBBBBBBBBBBBBBBBBBBBBh     pBBBBBBBBBB9     ",
"     9BBBBBBBBBBp     #$$$$5BBBBBBBBBBBBBBBBBBBBBBBBBBBBBBBBBBBBBBBBBBBBBBBBBh     pBBBBBBBBBB9     ",
"     9BBBBBBBBBBp          *BBBBBBBBBBBBBBBBBBBBBBBBBBBBBBBBBBBBBBBBBBBBBBBBBh     pBBBBBBBBBB9     ",
"     9BBBBBBBBBBp          *BBBBBBBBBBBBBBBBBBBBBBBBBBBBBBBBBBBBBBBBBBBBBBBBBh     pBBBBBBBBBB9     ",
"     9BBBBBBBBBBp          *BBBBBBBBBBBBBBBBBBBBBBBBBBBBBBBBBBBBBBBBBBBBBBBBBh     pBBBBBBBBBB9     ",
"     9BBBBBBBBBBp          *BBBBBBBBBBBBBBBBBBBBBBBBBBBBBBBBBBBBBBBBBBBBBBBBBh     pBBBBBBBBBB9     ",
"     9BBBBBBBBBBp     *11116dddddBBBBBBBBBBBBBBBBBBBBBBBBBBBBBBBBBBBBBBBBBBBBh     pBBBBBBBBBB9     ",
"     9BBBBBBBBBBp     hBBBBh     pBBBBBBBBBBBBBBBBBBBBBBBBBBBBBBBBBBBBBBBBBBBh     pBBBBBBBBBB9     ",
"     9BBBBBBBBBBp     hBBBBh     pBBBBBBBBBBBBBBBBBBBBBBBBBBBBBBBBBBBBBBBBBBBh     pBBBBBBBBBB9     ",
"     9BBBBBBBBBBp     hBBBBh     pBBBBBBBBBBBBBBBBBBBBBBBBBBBBBBBBBBBBBBBBBBBh     pBBBBBBBBBB9     ",
"     9BBBBBBBBBBp     hBBBBh     pBBBBBBBBBBBBBBBBBBBBBBBBBBBBBBBBBBBBBBBBBBBh     pBBBBBBBBBB9     ",
"     9BBBBBBBBBBp     hBBBBh     pBBBBBBBBBBBBBBBBBBBBBBBBBBBBBBBBBBBBBBBBBBBh     pBBBBBBBBBB9     ",
"     9BBBBBBBBBBp     $;;*;4gggggbBBBBBBBBBBBBBBBBBBBBBBBBBBB2*;;*eBBBBBBBBBBh     pBBBBBBBBBB9     ",
"     9BBBBBBBBBBp          *BBBBBBBBBBBBBBBBBBBBBBBBBBBBBBBBB@    3BBBBBBBBBBh     pBBBBBBBBBB9     ",
"     9BBBBBBBBBBp          *BBBBBBBBBBBBBBBBBBBBBBBBBBBBBBBBB+    3BBBBBBBBBBh     pBBBBBBBBBB9     ",
"     9BBBBBBBBBBp          *BBBBBBBBBBBBBBBBBBBBBBBBBBBBBBBBB@    3BBBBBBBBBBh     pBBBBBBBBBB9     ",
"     9BBBBBBBBBBp          *BBBBBBBBBBBBBBBBBBBBBBBBBBBBBBBBB@    3BBBBBBBBBBh     pBBBBBBBBBB9     ",
"     9BBBBBBBBBBp     $;;*;8BBBBBBBBBBBBBBBBBBBBBBBBBBBBBBBBB2*;*;8hggggmBBBBh     pBBBBBBBBBB9     ",
"     9BBBBBBBBBBp     hBBBBBBBBBBBBBBBBBBBBBBBBBBBBBBBBBBBBBBBBBBBp     hBBBBh     pBBBBBBBBBB9     ",
"     9BBBBBBBBBBp     hBBBBBBBBBBBBBBBBBBBBBBBBBBBBBBBBBBBBBBBBBBBp     hBBBBh     pBBBBBBBBBB9     ",
"     9BBBBBBBBBBp     hBBBBBBBBBBBBBBBBBBBBBBBBBBBBBBBBBBBBBBBBBBBp     hBBBBh     pBBBBBBBBBB9     ",
"     9BBBBBBBBBBp     hBBBBBBBBBBBBBBBBBBBBBBBBBBBBBBBBBBBBBBBBBBBp     hBBBBh     pBBBBBBBBBB9     ",
"     9BBBBBBBBBBp     hBBBBBBBBBBBBBBBBBBBBBBBBBBBBBBBBBBBBBBBBBBBp     hBBBBh     pBBBBBBBBBB9     ",
"     9BBBBBBBBBBp     hBBBBBBBBBBBBBBBBBBBBBBBBBBBBBBBBa11111bBBBBp     hBBBBh     pBBBBBBBBBB9     ",
"     9BBBBBBBBBBp     hBBBBBBBBBBBBBBBBBBBBBBBBBBBBBBBBr     xBBBBp     hBBBBh     pBBBBBBBBBB9     ",
"     9BBBBBBBBBBp     hBBBBBBBBBBBBBBBBBBBBBBBBBBBBBBBBr     xBBBBp     hBBBBh     pBBBBBBBBBB9     ",
"     9BBBBBBBBBBp     hBBBBBBBBBBBBBBBBBBBBBBBBBBBBBBBBr     xBBBBp     hBBBBh     pBBBBBBBBBB9     ",
"     9BBBBBBBBBBp     hBBBBBBBBBBBBBBBBBBBBBBBBBBBBBBBBr     xBBBBp     hBBBBh     pBBBBBBBBBB9     ",
"     9BBBBBBBBBBp     hBBBBBBBBBBBBBBBBBBBBBBBBBBBBBBBBr     xBBBBp     hBBBBh     pBBBBBBBBBB9     ",
"     9BBBBBBBBBBp     hBBBBBBBBBBBBBBBBBBBBBBBBBBBBBBBBr     xBBBBp     hBBBBh     pBBBBBBBBBB9     ",
"     9BBBBBBBBBBp     hBBBBBBBBBBBBBBBBBBBBBBBBBBBBBBBBr     xBBBBp     hBBBBh     pBBBBBBBBBB9     ",
"     9BBBBBBBBBBp     hBBBBBBBBBBBBBBBBBBBBBBBBBBBBBBBBr     xBBBBp     hBBBBh     pBBBBBBBBBB9     ",
"     9BBBBBBBBBBp     hBBBBBBBBBBBBBBBBBBBBBBBBBBBBBBBBr     xBBBBp     hBBBBh     pBBBBBBBBBB9     ",
"     9BBBBBBBBBBp     hBBBBBBBBBBBBBBBBBBBBBBBBBBBBBBBBr     xBBBBp     hBBBBh     pBBBBBBBBBB9     ",
"     9BBBBBBBBBBp     >4444eBBBBBBBBBBBBBBBBBBBBBBBBBBBkiiiiiNBBBBp     hBBBBh     pBBBBBBBBBB9     ",
"     9BBBBBBBBBBp          *BBBBBBBBBBBBBBBBBBBBBBBBBBBBBBBBBBBBBBp     hBBBBh     pBBBBBBBBBB9     ",
"     9BBBBBBBBBBp          *BBBBBBBBBBBBBBBBBBBBBBBBBBBBBBBBBBBBBBp     hBBBBh     pBBBBBBBBBB9     ",
"     9BBBBBBBBBBp          *BBBBBBBBBBBBBBBBBBBBBBBBBBBBBBBBBBBBBBp     hBBBBh     pBBBBBBBBBB9     ",
"     9BBBBBBBBBBp          *BBBBBBBBBBBBBBBBBBBBBBBBBBBBBBBBBBBBBBp     hBBBBh     pBBBBBBBBBB9     ",
"     9BBBBBBBBBBp     O@@@@1xlxxxNBBBBBBBBBBBBBBBBBBBBBBBBBBBxxxxxy@@@@@jBBBBh     pBBBBBBBBBB9     ",
"     9BBBBBBBBBBp     hBBBBh     pBBBBBBBBBBBBBBBBBBBBBBBBBBB+    3BBBBBBBBBBh     pBBBBBBBBBB9     ",
"     9BBBBBBBBBBp     hBBBBh     pBBBBBBBBBBBBBBBBBBBBBBBBBBB+    3BBBBBBBBBBh     pBBBBBBBBBB9     ",
"     9BBBBBBBBBBp     hBBBBh     pBBBBBBBBBBBBBBBBBBBBBBBBBBB+    3BBBBBBBBBBh     pBBBBBBBBBB9     ",
"     9BBBBBBBBBBp     hBBBBh     pBBBBBBBBBBBBBBBBBBBBBBBBBBB@    3BBBBBBBBBBh     pBBBBBBBBBB9     ",
"     9BBBBBBBBBBp     hBBBBh     pBBBBBBBBBBBBBBBBBBBBBBBBBBB@    3BBBBBBBBBBh     pBBBBBBBBBB9     ",
"     9BBBBBBBBBBp     288889tttttlBBBBBBBBBBBBBBBBBBBBBBBBBBByttttfBBBBBBBBBBh     pBBBBBBBBBB9     ",
"     9BBBBBBBBBBp          *BBBBBBBBBBBBBBBBBBBBBBBBBBBBBBBBBBBBBBBBBBBBBBBBBh     pBBBBBBBBBB9     ",
"     9BBBBBBBBBBp          *BBBBBBBBBBBBBBBBBBBBBBBBBBBBBBBBBBBBBBBBBBBBBBBBBh     pBBBBBBBBBB9     ",
"     9BBBBBBBBBBp          *BBBBBBBBBBBBBBBBBBBBBBBBBBBBBBBBBBBBBBBBBBBBBBBBBh     pBBBBBBBBBB9     ",
"     9BBBBBBBBBBp          *BBBBBBBBBBBBBBBBBBBBBBBBBBBBBBBBBBBBBBBBBBBBBBBBBh     pBBBBBBBBBB9     ",
"     9BBBBBBBBBBp     ooooo>BBBBBBBBBBBBBBBBBBBBBBBBBBBBBBBBBBBBBBBBBBBBBBBBBh     pBBBBBBBBBB9     ",
"     9BBBBBBBBBBp     hBBBBBBBBBBBBBBBBBBBBBBBBBBBBBBBBBBBBBBBBBBBBBBBBBBBBBBh     pBBBBBBBBBB9     ",
"     9BBBBBBBBBBp     hBBBBBBBBBBBBBBBBBBBBBBBBBBBBBBBBBBBBBBBBBBBBBBBBBBBBBBh     pBBBBBBBBBB9     ",
"     9BBBBBBBBBBp     hBBBBBBBBBBBBBBBBBBBBBBBBBBBBBBBBBBBBBBBBBBBBBBBBBBBBBBh     pBBBBBBBBBB9     ",
"     9BBBBBBBBBBp     hBBBBBBBBBBBBBBBBBBBBBBBBBBBBBBBBBBBBBBBBBBBBBBBBBBBBBBh     pBBBBBBBBBB9     ",
"     9BBBBBBBBBBp     hBBBBBBBBBBBBBBBBBBBBBBBBBBBBBBBBBBBBBBBBBBBBBBBBBBBBBBh     pBBBBBBBBBB9     ",
"     9BBBBBBBBBBp     hBBBBBBBBBBBBBBBBBBBBBBBBBBBBBBBBBBBBBBBBBBBBBBBBBBBBBBh     pBBBBBBBBBB9     ",
"     9BBBBBBBBBBp     hBBBBBBBBBBBBBBBBBBBBBBBBBBBBBBBBBBBBBBBBBBBBBBBBBBBBBBh     pBBBBBBBBBB9     ",
"     9BBBBBBBBBBp     hBBBBBBBBBBBBBBBBBBBBBBBBBBBBBBBBBBBBBBBBBBBBBBBBBBBBBBh     pBBBBBBBBBB9     ",
"     9BBBBBBBBBBp     hBBBBBBBBBBBBBBBBBBBBBBBBBBBBBBBBBBBBBBBBBBBBBBBBBBBBBBh     pBBBBBBBBBB9     ",
"     9BBBBBBBBBBp     hBBBBBBBBBBBBBBBBBBBBBBBBBBBBBBBBBBBBBBBBBBBBBBBBBBBBBBh     pBBBBBBBBBB9     ",
"     9BBBBBBBBBBp     hBBBBBBBBBBBBBBBBBBBBBBBBBBBBBBBBBBBBBBBBBBBBBBBBBBBBBBh     pBBBBBBBBBB9     "
};
