/* XPM */
static char *door2[] = {
/* columns rows colors chars-per-pixel */
"100 94 55 1 ",
"  c black",
". c #070707",
"X c #0C0C0C",
"o c gray6",
"O c #171717",
"+ c #1E1E1E",
"@ c #212121",
"# c #232323",
"$ c #282828",
"% c #2D2D2D",
"& c #2F2F2F",
"* c #323232",
"= c #393939",
"- c #3A3A3A",
"; c #3C3C3C",
": c #3E3E3E",
"> c #444444",
", c #454545",
"< c #464646",
"1 c #494949",
"2 c #4B4B4B",
"3 c #525252",
"4 c #535353",
"5 c #555555",
"6 c #5A5A5A",
"7 c #5C5C5C",
"8 c #626262",
"9 c #646464",
"0 c #676767",
"q c DimGray",
"w c #717171",
"e c gray45",
"r c gray47",
"t c gray49",
"y c #7F7F7F",
"u c gray53",
"i c #8E8E8E",
"p c gray59",
"a c #A5A5A5",
"s c #AAAAAA",
"d c #ADADAD",
"f c #B4B4B4",
"g c #C3C3C3",
"h c #C6C6C6",
"j c #D7D7D7",
"k c gainsboro",
"l c #E1E1E1",
"z c #E3E3E3",
"x c #E6E6E6",
"c c gray92",
"v c #EEEEEE",
"b c gray94",
"n c gray96",
"m c white",
"M c None",
/* pixels */
"mmmmmmmmmmmmmmmmm                                                                  mmmmmmmmmmmmmmmmm",
"mmmmmmmmmmmmmmmmmm                                                                 mmmmmmmmmmmmmmmmm",
"mmmmmmmmmmmmmmmmm                                                                  mmmmmmmmmmmmmmmmm",
"mmmmmmmmmmmmmmmmm                                                                  mmmmmmmmmmmmmmmmm",
"mmmmmmmmmmmmmmmmm                                                                  mmmmmmmmmmmmmmmmm",
"mmmmmmmmmmmmmmmm:rrrrrrrrrrrrrrrrrrrrrrrrrrrrrrrrrrrrrrrrrrrrrrrrrrrrrrrrrrrrrrrrrr:mmmmmmmmmmmmmmmm",
"mmmmmmmmmmm     5mmmmmmmmmmmmmmmmmmmmmmmmmmmmmmmmmmmmmmmmmmmmmmmmmmmmmmmmmmmmmmmmmm5     mmmmmmmmmmm",
"mmmmmmmmmmm     5mmmmmmmmmmmmmmmmmmmmmmmmmmmmmmmmmmmmmmmmmmmmmmmmmmmmmmmmmmmmmmmmmm5     mmmmmmmmmmm",
"mmmmmmmmmmm     5mmmmmmmmmmmmmmmmmmmmmmmmmmmmmmmmmmmmmmmmmmmmmmmmmmmmmmmmmmmmmmmmmm5     mmmmmmmmmmm",
"mmmmmmmmmmm     5mmmmmmmmmmmmmmmmmmmmmmmmmmmmmmmmmmmmmmmmmmmmmmmmmmmmmmmmmmmmmmmmmm5     mmmmmmmmmmm",
"mmmmmmmmmmm     5mmmmmmmmmmmmmmmmmmmmmmmmmmmmmmmmmmmmmmmmmmmmmmmmmmmmmmmmmmmmmmmmmm5     mmmmmmmmmmm",
"mmmmmm     jbbbbnmmmmmmmmmmmmmmmmmmmmmmmmmmmmmmmmmmmmmmmmmmmmmmmmmmmmmmmmmmmmmmmmmmnbbbbj     mmmmmm",
"mmmmmm     zmmmmmmmmmmmmmmmmmmmmmmmmmmmmmmmmmmmmmmmmmmmmmmmmmmmmmmmmmmmmmmmmmmmmmmmmmmmmz     mmmmmm",
"mmmmmm     zmmmmmmmmmmmmmmmmmmmmmmmmmmmmmmmmmmmmmmmmmmmmmmmmmmmmmmmmmmmmmmmmmmmmmmmmmmmmz     mmmmmm",
"mmmmmm     zmmmmmmmmmmmmmmmmmmmmmmmmmmmmmmmmmmmmmmmmmmmmmmmmmmmmmmmmmmmmmmmmmmmmmmmmmmmmz     mmmmmm",
"mmmmmm     zmmmmmmmmmmmmmmmmmmmmmmmmmmmmmmmmmmmmmmmmmmmmmmmmmmmmmmmmmmmmmmmmmmmmmmmmmmmmz     mmmmmm",
"mmmmm,qqqqqvmmmmmmmmmmdppppppppppppppppppppppppppppppppppppppppppppppppppppppdmmmmmmmmmmvqqqqq,mmmmm",
"     wmmmmmmmmmmmmmmmm=                                                      =mmmmmmmmmmmmmmmmw     ",
"     wmmmmmmmmmmmmmmmm=                                                      =mmmmmmmmmmmmmmmmw     ",
"     wmmmmmmmmmmmmmmmm=                                                      =mmmmmmmmmmmmmmmmw     ",
"     wmmmmmmmmmmmmmmmm=                                                      =mmmmmmmmmmmmmmmmw     ",
"     wmmmmmmmmmmmmmmmm=                                                      =mmmmmmmmmmmmmmmmw     ",
"     wmmmmmmmmmmf+++++.    *zzzzzkzzkzzzzkzzkzzzzzkzzzky                     .+++++fmmmmmmmmmmw     ",
"     wmmmmmmmmmms          =mmmmmmmmmmmmmmmmmmmmmmmmmmmi                           smmmmmmmmmmw     ",
"     wmmmmmmmmmms          =mmmmmmmmmmmmmmmmmmmmmmmmmmmi                           smmmmmmmmmmw     ",
"     wmmmmmmmmmms          =mmmmmmmmmmmmmmmmmmmmmmmmmmmi                           smmmmmmmmmmw     ",
"     wmmmmmmmmmms          =mmmmmmmmmmmmmmmmmmmmmmmmmmmi                           smmmmmmmmmmw     ",
"     wmmmmmmmmmms     ,6666ymmmmmmmmmmmmmmmmmmmmmmmmmmmi                           smmmmmmmmmmw     ",
"     wmmmmmmmmmms     hmmmmmmmmmmmmmmmmmmmmmmmmmmmmmmmmi                           smmmmmmmmmmw     ",
"     wmmmmmmmmmms     hmmmmmmmmmmmmmmmmmmmmmmmmmmmmmmmmi                           smmmmmmmmmmw     ",
"     wmmmmmmmmmms     hmmmmmmmmmmmmmmmmmmmmmmmmmmmmmmmmi                           smmmmmmmmmmw     ",
"     wmmmmmmmmmms     hmmmmmmmmmmmmmmmmmmmmmmmmmmmmmmmmi                           smmmmmmmmmmw     ",
"     wmmmmmmmmmms     hmmmmmmmmmmmmmmmmmmmmmmmmmmmmmmmmi                           smmmmmmmmmmw     ",
"     wmmmmmmmmmms     @%%%%7mmmmmmmmmmmmmmmmmmmmmmmmmmmi                           smmmmmmmmmmw     ",
"     wmmmmmmmmmms          =mmmmmmmmmmmmmmmmmmmmmmmmmmmi                           smmmmmmmmmmw     ",
"     wmmmmmmmmmms          =mmmmmmmmmmmmmmmmmmmmmmmmmmmi                           smmmmmmmmmmw     ",
"     wmmmmmmmmmms          =mmmmmmmmmmmmmmmmmmmmmmmmmmmi                           smmmmmmmmmmw     ",
"     wmmmmmmmmmms          =mmmmmmmmmmmmmmmmmmmmmmmmmmmi                           smmmmmmmmmmw     ",
"     wmmmmmmmmmms     =22228fffffxmmmmmmmmmmmmmmmmmmmmmi                           smmmmmmmmmmw     ",
"     wmmmmmmmmmms     hmmmmh     smmmmmmmmmmmmmmmmmmmmmi                           smmmmmmmmmmw     ",
"     wmmmmmmmmmms     hmmmmh     smmmmmmmmmmmmmmmmmmmmmi                           smmmmmmmmmmw     ",
"     wmmmmmmmmmms     hmmmmh     smmmmmmmmmmmmmmmmmmmmmi                           smmmmmmmmmmw     ",
"     wmmmmmmmmmms     hmmmmh     smmmmmmmmmmmmmmmmmmmmmi                           smmmmmmmmmmw     ",
"     wmmmmmmmmmms     hmmmmh     smmmmmmmmmmmmmmmmmmmmmi                           smmmmmmmmmmw     ",
"     wmmmmmmmmmms     %::=:6gggggcmmmmmmmmmmmmmmmmmmmmmi                           smmmmmmmmmmw     ",
"     wmmmmmmmmmms          =mmmmmmmmmmmmmmmmmmmmmmmmmmmi                           smmmmmmmmmmw     ",
"     wmmmmmmmmmms          =mmmmmmmmmmmmmmmmmmmmmmmmmmmi                           smmmmmmmmmmw     ",
"     wmmmmmmmmmms          =mmmmmmmmmmmmmmmmmmmmmmmmmmmi                           smmmmmmmmmmw     ",
"     wmmmmmmmmmms          =mmmmmmmmmmmmmmmmmmmmmmmmmmmi                           smmmmmmmmmmw     ",
"     wmmmmmmmmmms     %::=:qmmmmmmmmmmmmmmmmmmmmmmgggggu=:=:::=:=:$                smmmmmmmmmmw     ",
"     wmmmmmmmmmms     hmmmmmmmmmmmmmmmmmmmmmmmmmmm     wmmmmmmmmmms                smmmmmmmmmmw     ",
"     wmmmmmmmmmms     hmmmmmmmmmmmmmmmmmmmmmmmmmmm     wmmmmmmmmmms                smmmmmmmmmmw     ",
"     wmmmmmmmmmms     hmmmmmmmmmmmmmmmmmmmmmmmmmmm     wmmmmmmmmmms                smmmmmmmmmmw     ",
"     wmmmmmmmmmms     hmmmmmmmmmmmmmmmmmmmmmmmmmmm     wmmmmmmmmmms                smmmmmmmmmmw     ",
"     wmmmmmmmmmms     hmmmmmmmmmmmmmmmmmmmmmmmmmmm     wmmmmmmmmmms                smmmmmmmmmmw     ",
"     wmmmmmmmmmms     hmmmmmmmmmmmmmmmmmmmmmmmmmmm     @22222cmmmms                smmmmmmmmmmw     ",
"     wmmmmmmmmmms     hmmmmmmmmmmmmmmmmmmmmmmmmmmm           zmmmms                smmmmmmmmmmw     ",
"     wmmmmmmmmmms     hmmmmmmmmmmmmmmmmmmmmmmmmmmm           zmmmms                smmmmmmmmmmw     ",
"     wmmmmmmmmmms     hmmmmmmmmmmmmmmmmmmmmmmmmmmm           zmmmms                smmmmmmmmmmw     ",
"     wmmmmmmmmmms     hmmmmmmmmmmmmmmmmmmmmmmmmmmm           zmmmms                smmmmmmmmmmw     ",
"     wmmmmmmmmmms     hmmmmmmmmmmmmmmmmmmmmmmmmmmm           zmmmms                smmmmmmmmmmw     ",
"     wmmmmmmmmmms     hmmmmmmmmmmmmmmmmmmmmmmmmmmm           zmmmms                smmmmmmmmmmw     ",
"     wmmmmmmmmmms     hmmmmmmmmmmmmmmmmmmmmmmmmmmm           zmmmms                smmmmmmmmmmw     ",
"     wmmmmmmmmmms     hmmmmmmmmmmmmmmmmmmmmmmmmmmm           zmmmms                smmmmmmmmmmw     ",
"     wmmmmmmmmmms     hmmmmmmmmmmmmmmmmmmmmmmmmmmm           zmmmms                smmmmmmmmmmw     ",
"     wmmmmmmmmmms     hmmmmmmmmmmmmmmmmmmmmmmmmmmm           zmmmms                smmmmmmmmmmw     ",
"     wmmmmmmmmmms     ,6666ymmmmmmmmmmmmmmmmmmmmmm     2aaaaanmmmms                smmmmmmmmmmw     ",
"     wmmmmmmmmmms          =mmmmmmmmmmmmmmmmmmmmmm     wmmmmmmmmmms                smmmmmmmmmmw     ",
"     wmmmmmmmmmms          =mmmmmmmmmmmmmmmmmmmmmm     wmmmmmmmmmms                smmmmmmmmmmw     ",
"     wmmmmmmmmmms          =mmmmmmmmmmmmmmmmmmmmmm     wmmmmmmmmmms                smmmmmmmmmmw     ",
"     wmmmmmmmmmms          =mmmmmmmmmmmmmmmmmmmmmm     wmmmmmmmmmms                smmmmmmmmmmw     ",
"     wmmmmmmmmmms     O++++2zkzzznmmmmmmmmmmmmmmmm     9kzzzkzzzzzp                smmmmmmmmmmw     ",
"     wmmmmmmmmmms     hmmmmh     smmmmmmmmmmmmmmmm                                 smmmmmmmmmmw     ",
"     wmmmmmmmmmms     hmmmmh     smmmmmmmmmmmmmmmm                                 smmmmmmmmmmw     ",
"     wmmmmmmmmmms     hmmmmh     smmmmmmmmmmmmmmmm                                 smmmmmmmmmmw     ",
"     wmmmmmmmmmms     hmmmmh     smmmmmmmmmmmmmmmm                                 smmmmmmmmmmw     ",
"     wmmmmmmmmmms     hmmmmh     smmmmmmmmmmmmmmmm                                 smmmmmmmmmmw     ",
"     wmmmmmmmmmms     3qqqqwpppppkmmmmmmmmmmmmmmmmppppp3                           smmmmmmmmmmw     ",
"     wmmmmmmmmmms          =mmmmmmmmmmmmmmmmmmmmmmmmmmmi                           smmmmmmmmmmw     ",
"     wmmmmmmmmmms          =mmmmmmmmmmmmmmmmmmmmmmmmmmmi                           smmmmmmmmmmw     ",
"     wmmmmmmmmmms          =mmmmmmmmmmmmmmmmmmmmmmmmmmmi                           smmmmmmmmmmw     ",
"     wmmmmmmmmmms          =mmmmmmmmmmmmmmmmmmmmmmmmmmmi                           smmmmmmmmmmw     ",
"     wmmmmmmmmmms     ooooo,mmmmmmmmmmmmmmmmmmmmmmmmmmmi                           smmmmmmmmmmw     ",
"     wmmmmmmmmmms     hmmmmmmmmmmmmmmmmmmmmmmmmmmmmmmmmi                           smmmmmmmmmmw     ",
"     wmmmmmmmmmms     hmmmmmmmmmmmmmmmmmmmmmmmmmmmmmmmmi                           smmmmmmmmmmw     ",
"     wmmmmmmmmmms     hmmmmmmmmmmmmmmmmmmmmmmmmmmmmmmmmi                           smmmmmmmmmmw     ",
"     wmmmmmmmmmms     hmmmmmmmmmmmmmmmmmmmmmmmmmmmmmmmmi                           smmmmmmmmmmw     ",
"     wmmmmmmmmmms     hmmmmmmmmmmmmmmmmmmmmmmmmmmmmmmmmi                           smmmmmmmmmmw     ",
"     wmmmmmmmmmms     hmmmmmmmmmmmmmmmmmmmmmmmmmmmmmmmmi                           smmmmmmmmmmw     ",
"     wmmmmmmmmmms     hmmmmmmmmmmmmmmmmmmmmmmmmmmmmmmmmi                           smmmmmmmmmmw     ",
"     wmmmmmmmmmms     hmmmmmmmmmmmmmmmmmmmmmmmmmmmmmmmmi                           smmmmmmmmmmw     ",
"     wmmmmmmmmmms     hmmmmmmmmmmmmmmmmmmmmmmmmmmmmmmmmi                           smmmmmmmmmmw     ",
"     wmmmmmmmmmms     hmmmmmmmmmmmmmmmmmmmmmmmmmmmmmmmmi                           smmmmmmmmmmw     ",
"     wmmmmmmmmmms     hmmmmmmmmmmmmmmmmmmmmmmmmmmmmmmmmi                           smmmmmmmmmmw     "
};
