/* XPM */
static char *hero1[] = {
/* cokumns rows cokors chars-per-pixek */
"100 100 47 1 ",
"  c bkack",
". c #040404",
"X c #080808",
"o c #0C0C0C",
"O c #101010",
"+ c #141414",
"@ c #1C1C1C",
"# c #1E1E1E",
"$ c #202020",
"% c #303030",
"& c #383838",
"* c #3C3C3C",
"= c #404040",
"- c #484848",
"; c #4E4E4E",
": c #505050",
"> c #555555",
", c #585858",
"< c #606060",
"1 c #626262",
"2 c #646464",
"3 c #686868",
"4 c #707070",
"5 c #747474",
"6 c #777777",
"7 c #808080",
"8 c #848484",
"9 c #878787",
"0 c #8B8B8B",
"q c #8F8F8F",
"w c #979797",
"e c #9F9F9F",
"r c #A7A7A7",
"t c #ABABAB",
"y c #AFAFAF",
"u c #B7B7B7",
"i c #BFBFBF",
"p c #C3C3C3",
"a c #C7C7C7",
"s c #CFCFCF",
"d c #D7D7D7",
"f c #DFDFDF",
"g c #E3E3E3",
"h c #E7E7E7",
"j c #EBEBEB",
"k c white",
"l c None",
/* pixeks */
"kkkkkkkkkkkkkkkkkkkkkkkkkkkkkkkkkkkkkkkkkkkkkkkkkkkkkkkkkkkkkkkkkkkkkkkkkkkkkkkkkkkkkkkkkkkkkkkkkkkk",
"kkkkkkkkkkkkkkkkkkkkkkkkkkkkkkkkkkkkkkkkkkkkkkkkkkkkkkkkkkkkkkkkkkkkkkkkkkkkkkkkkkkkkkkkkkkkkkkkkkkk",
"kkkkkkkkkkkkkkkkkkkkkkkkkkkkkkkkkkkkkkkkkkkkkkkkkkkkkkkkkkkkkkkkkkkkkkkkkkkkkkkkkkkkkkkkkkkkkkkkkkkk",
"kkkkkkkkkkkkkkkkkkkkkkkkkkkkkkkkkkkkkkkkkkkkkkkkkkkkkkkkkkkkkkkkkkkkkkkkkkkkkkkkkkkkkkkkkkkkkkkkkkkk",
"kkkkkkkkkkkkkkkkkkkkkkkkkkkkkkkkkkkkkkkkkkkkkkkkkkkkkkkkkkkkkkkkkkkkkkkkkkkkkkkkkkkkkkkkkkkkkkkkkkkk",
"kkkkkkkkkkkkkkkkkkkkkkkkkkkkkkkkkkkkkkkkkkkkkkkkkkkkkkkkkkkkkkkkkkkkkkkkkkkkkkkkkkkkkkkkkkkkkkkkkkkk",
"kkkkkkkkkkkkkkkkkkkkkkkkkkkkkkkkkkkkkkkkkkkkkkkkkkkkkkkkkkkkkkkkkkkkkkkkkkkkkkkkkkkkkkkkkkkkkkkkkkkk",
"kkkkkkkkkkkkkkkkkkkkkkkkkkkkkkkkkkkkkkkkkkkkkkkkkkkkkkkkkkkkkkkkkkkkkkkkkkkkkkkkkkkkkkkkkkkkkkkkkkkk",
"kkkkkkkkkkkkkkkkkkkkkkkkkkkkkkkkkkkkkkkkkkkkkkkkkkkkkkkkkkkkkkkkkkkkkkkkkkkkkkkkkkkkkkkkkkkkkkkkkkkk",
"kkkkkkkkkkkkkkkkkkkkkkkkkkkkkkkkkkkkkkkkkkkkkkkkkkkkkkkkkkkkkkkkkkkkkkkkkkkkkkkkkkkkkkkkkkkkkkkkkkkk",
"kkkkkkkkkkkkkkkkkkkkkkkkkkkkkkkkkkkkkkkkkkkkkkkkkkkkkkkkkkkkkkkkkkkkkkkkkkkkkkkkkkkkkkkkkkkkkkkkkkkk",
"kkkkkkkkkkkkkkkkkkkkkkkkkkkkkkkkkkkkkkkkkkkkkkkkkkkkkkkkkkkkkkkkkkkkkkkkkkkkkkkkkkkkkkkkkkkkkkkkkkkk",
"kkkkkkkkkkkkkkkkkkkkkkkkkkkkkkkkkkkkkkkkkkkkkkkkkkkkkkkkkkkkkkkkkkkkkkkkkkkkkkkkkkkkkkkkkkkkkkkkkkkk",
"kkkkkkkkkkkkkkkkkkkkkkkkkkkkkkkkkkkkkkkkkkkk               kkkkkkkkkkkkkkkkkkkkkkkkkkkkkkkkkkkkkkkkk",
"kkkkkkkkkkkkkkkkkkkkkkkkkkkkkkkkkkkkkkkkkkkk               kkkkkkkkkkkkkkkkkkkkkkkkkkkkkkkkkkkkkkkkk",
"kkkkkkkkkkkkkkkkkkkkkkkkkkkkkkkkkkkkkkkkkkk                 kkkkkkkkkkkkkkkkkkkkkkkkkkkkkkkkkkkkkkkk",
"kkkkkkkkkkkkkkkkkkkkkkkkkkkkkkkkkkkkkk                        kkkkkkkkkkkkkkkkkkkkkkkkkkkkkkkkkkkkkk",
"kkkkkkkkkkkkkkkkkkkkkkkkkkkkkkkkkkkkkk                        kkkkkkkkkkkkkkkkkkkkkkkkkkkkkkkkkkkkkk",
"kkkkkkkkkkkkkkkkkkkkkkkkkkkkkkkkkkkkk                          kkkkkkkkkkkkkkkkkkkkkkkkkkkkkkkkkkkkk",
"kkkkkkkkkkkkkkkkkkkkkkkkkkkkkkkkkk                                kkkkkk         kkkkkkkkkkkkkkkkkkk",
"kkkkkkkkkkkkkkkkkkkkkkkkkkkkkkkkkk                                kkkkkk         kkkkkkkkkkkkkkkkkkk",
"kkkkkkkkkkkkkkkkkkkkkkkkkkkkkkkkkk      o$$$$$$$$$   @$$$$$o      kkkkkk   $$$$$$kkkkkkkkkkkkkkkkkkk",
"kkkkkkkkkkkkkkkkkkkkkkkkkkkkkkkkkk      <kkkkkkkkk   fkkkkk<      kkkkkk   kkkkkk=  kkkkkkkkkkkkkkkk",
"kkkkkkkkkkkkkkkkkkkkkkkkkkkkkkkkkk      <kkkkkkkkk   fkkkkk<      kkkkkk   kkkkkk=  kkkkkkkkkkkkkkkk",
"kkkkkkkkkkkkkkkkkkkkkkkkkkkkkkkkkk      <kkkkkkkkk   fkkkkk<      kkkkkk   kkkkkk=  kkkkkkkkkkkkkkkk",
"kkkkkkkkkkkkkkkkkkkkkkkkkkkkkkkkkk      <kkkkkkkkkkkkkkkkkk<      kkkkkk      fkkkkk<  kkkkkkkkkkkkk",
"kkkkkkkkkkkkkkkkkkkkkkkkkkkkkkkkkk      <kkkkkkkkkkkkkkkkkk<      kkkkkk      fkkkkk<  kkkkkkkkkkkkk",
"kkkkkkkkkkkkkkkkkkkkkkkkkkkkkkkkkk      <kkkkkkkkkkkkkkkkkk<      kkkkkk      fkkkkk<  kkkkkkkkkkkkk",
"kkkkkkkkkkkkkkkkkkkkkkkkkkkkkkkkkk   4ffjkkkkkg$$$$$$gkkkkkjff4   kkkkkk      @$$pkkjff5   kkkkkkkkk",
"kkkkkkkkkkkkkkkkkkkkkkkkkkkkkkkkkk   7kkkkkkkkf      fkkkkkkkk7   kkkkkk         ikkkkk7   kkkkkkkkk",
"kkkkkkkkkkkkkkkkkkkkkkkkkkkkkkkkkk   7kkkkkkkkf      fkkkkkkkk7   kkkkkk         pkkkkk7   kkkkkkkkk",
"kkkkkkkkkkkkkkkkkkkkkkkkkkkkkkk   8ii7========&      &========7ii8   kkk         %==ukk7   kkkkkkkkk",
"kkkkkkkkkkkkkkkkkkkkkkkkkkkkkkk   ekk7                        7kke   kkk            ekk7   kkkkkkkkk",
"kkkkkkkkkkkkkkkkkkkkkkkkkkkkkkk   ekk7                        7kke   kkk            ekk7   kkkkkkkkk",
"kkkkkkkkkkkkkkkkkkkkkkkkkkkkkkk   ekksee2     +eeeeee+     2eeskke   kkk            ekk7   kkkkkkkkk",
"kkkkkkkkkkkkkkkkkkkkkkkkkkkkkkk   ekkkkke     $kkkkkk$     ekkkkke   kkk            ekk7   kkkkkkkkk",
"kkkkkkkkkkkkkkkkkkkkkkkkkkkkkkk   ekkkkke     $kkkkkk$     ekkkkke   kkk            ekk7   kkkkkkkkk",
"kkkkkkkkkkkkkkkkkkkkkkkkkkkkkkk   :77ikks777777777777777777skki77:   kk             ekk7   kkkkkkkkk",
"kkkkkkkkkkkkkkkkkkkkkkkkk            7kkkkkkkkf      fkkkkkkkk7                     ekk7   kkkkkkkkk",
"kkkkkkkkkkkkkkkkkkkkkkkkk            7kkkkkkkkf      fkkkkkkkk7                     ekk7   kkkkkkkkk",
"kkkkkkkkkkkkkkkkkkkkkkkkk            :eepkkheew<<<<<<weehkkpre;                     ekk7   kkkkkkkkk",
"kkkkkkkkkkkkkkkkkkkkkk                  <kki  $kkkkkk$  ikk<                        ekk7   kkkkkkkkk",
"kkkkkkkkkkkkkkkkkkkkkk                  <kki  $kkkkkk$  ikk<                        ekk7   kkkkkkkkk",
"kkkkkkkkkkkkkkkkkkkkkk               $==8kks==:iiiiii:==skk8==$                     ekk7   kkkkkkkkk",
"kkkkkk                               7kkkkkkkkf      fkkkkkkkk7                     ekk7   kkkkkkkkk",
"kkkkkk                               7kkkkkkkkf      fkkkkkkkk7                     ekk7   kkkkkkkkk",
"kkkkkk   +$$$$$$$$$$$$$$$$$$.        7kkkkkkkkg$$$$$$gkkkkkkkk7        .$$$$$$$$$$$$tkkq$$@kkkkkkkkk",
"kkkkkk   ekkkkkkkkkkkkkkkkkk$        7kkkkkkkkkkkkkkkkkkkkkkkk7        $kkkkkkkkkkkkkkkkkkr   kkkkkk",
"kkkkkk   ekkkkkkkkkkkkkkkkkk$        7kkkkkkkkkkkkkkkkkkkkkkkk7        $kkkkkkkkkkkkkkkkkke   kkkkkk",
"kkkkkk   ekkkkkkkkkkkkkkkkkk$        7kkkkkkkkkkkkkkkkkkkkkkkk7        $kkkkkkkkkkkkkkkkkke   kkkkkk",
"kkkkkk   ekkkkkkkki      kkk$              =kkkkkkkkkkkk=                                     kkkkkk",
"kkkkkk   ekkkkkkkki      kkk$              =kkkkkkkkkkkk=                                     kkkkkk",
"kkkkkk   ekkkkkkkki      kkk$              =kkkkkkkkkkkk=                                     kkkkkk",
"kkkkkk   ekkkkkkkki      kkk$              X$$$$$$$$$$$$X              @ffffff@  rfffff4   kkkkkkkkk",
"kkkkkk   ekkkkkkkki      kkk$                                          $kkkkkk$  ikkkkk7   kkkkkkkkk",
"kkkkkk   ekkkkkkkki      kkk$                                          $kkkkkk$  ikkkkk7   kkkkkkkkk",
"kkkkkk   ekkkkkkkki      kkk$                                          $kkkkkk$  ikkkkk7   kkkkkkkkk",
"kkkkkk   ekkkkkkkki      kkk$                                          $kkkkkk$  ikkkkk7   kkkkkkkkk",
"kkkkkk   ekkkkkkkki      kkk$                                          $kkkkkk$  ikkkkk7   kkkkkkkkk",
"kkkkkk   ekkkkkkkki      kkk$                                          o<<<<<<o  ikkkkk7   kkkkkkkkk",
"kkkkkk   ekkkkkkkki      kkk$                                                    ikkkkk7   kkkkkkkkk",
"kkkkkk   ekkkkkkkki      kkk$                                                    ikkkkk7   kkkkkkkkk",
"kkkkkkkkk<77ikkkkki  O777777O                                                 477fkky77>kkkkkkkkkkkk",
"kkkkkkkkk   7kkkkki  $kkk                                                     fkkkkk<  kkkkkkkkkkkkk",
"kkkkkkkkk   7kkkkki  $kkk                                                     fkkkkk<  kkkkkkkkkkkkk",
"kkkkkkkkkk  ,rrpkkd,<3eee      -<<<<<<<<*                  *<<<<<<<<-         0eeeee;  kkkkkkkkkkkkk",
"kkkkkkkkkkkkk  <kkkkkf         ikkkkkkkke                  ekkkkkkkki               kkkkkkkkkkkkkkkk",
"kkkkkkkkkkkkk  <kkkkkf         ikkkkkkkke                  ekkkkkkkki               kkkkkkkkkkkkkkkk",
"kkkkkkkkkkkkk  >iiiiir      &==eiiiiiiiiq==%            %==qiiiiiiiie==&            kkkkkkkkkkkkkkkk",
"kkkkkkkkkkkkkkkk            fkk=        <kki            ikk<        =kkf      kkkkkkkkkkkkkkkkkkkkkk",
"kkkkkkkkkkkkkkkk            fkk=        <kki            ikk<        =kkf      kkkkkkkkkkkkkkkkkkkkkk",
"kkkkkkkkkkkkkkkk            fkk,$$$$$$$$5kki            ikk5$$$$$$$$,kkf      kkkkkkkkkkkkkkkkkkkkkk",
"kkkkkkkkkkkkkkkkkkkkkkkkk   fkkkkkkkkkkkkkki            ikkkkkkkkkkkkkkf   kkkkkkkkkkkkkkkkkkkkkkkkk",
"kkkkkkkkkkkkkkkkkkkkkkkkk   fkkkkkkkkkkkkkki            ikkkkkkkkkkkkkkf   kkkkkkkkkkkkkkkkkkkkkkkkk",
"kkkkkkkkkkkkkkkkkkkkkkkkk   fkkkkkkkkkkkkkki            ikkkkkkkkkkkkkkf   kkkkkkkkkkkkkkkkkkkkkkkkk",
"kkkkkkkkkkkkkkkkkkkkkkkkkkkk                kkkkkkkkkkkk                kkkkkkkkkkkkkkkkkkkkkkkkkkkk",
"kkkkkkkkkkkkkkkkkkkkkkkkkkkk                kkkkkkkkkkkk                kkkkkkkkkkkkkkkkkkkkkkkkkkkk",
"kkkkkkkkkkkkkkkkkkkkkkkkkkkk                kkkkkkkkkkkk                kkkkkkkkkkkkkkkkkkkkkkkkkkkk",
"kkkkkkkkkkkkkkkkkkkkkkkkkkkkkkkkkkkkkkkkkkkkkkkkkkkkkkkkkkkkkkkkkkkkkkkkkkkkkkkkkkkkkkkkkkkkkkkkkkkk",
"kkkkkkkkkkkkkkkkkkkkkkkkkkkkkkkkkkkkkkkkkkkkkkkkkkkkkkkkkkkkkkkkkkkkkkkkkkkkkkkkkkkkkkkkkkkkkkkkkkkk",
"kkkkkkkkkkkkkkkkkkkkkkkkkkkkkkkkkkkkkkkkkkkkkkkkkkkkkkkkkkkkkkkkkkkkkkkkkkkkkkkkkkkkkkkkkkkkkkkkkkkk",
"kkkkkkkkkkkkkkkkkkkkkkkkkkkkkkkkkkkkkkkkkkkkkkkkkkkkkkkkkkkkkkkkkkkkkkkkkkkkkkkkkkkkkkkkkkkkkkkkkkkk",
"kkkkkkkkkkkkkkkkkkkkkkkkkkkkkkkkkkkkkkkkkkkkkkkkkkkkkkkkkkkkkkkkkkkkkkkkkkkkkkkkkkkkkkkkkkkkkkkkkkkk",
"kkkkkkkkkkkkkkkkkkkkkkkkkkkkkkkkkkkkkkkkkkkkkkkkkkkkkkkkkkkkkkkkkkkkkkkkkkkkkkkkkkkkkkkkkkkkkkkkkkkk",
"kkkkkkkkkkkkkkkkkkkkkkkkkkkkkkkkkkkkkkkkkkkkkkkkkkkkkkkkkkkkkkkkkkkkkkkkkkkkkkkkkkkkkkkkkkkkkkkkkkkk",
"kkkkkkkkkkkkkkkkkkkkkkkkkkkkkkkkkkkkkkkkkkkkkkkkkkkkkkkkkkkkkkkkkkkkkkkkkkkkkkkkkkkkkkkkkkkkkkkkkkkk",
"kkkkkkkkkkkkkkkkkkkkkkkkkkkkkkkkkkkkkkkkkkkkkkkkkkkkkkkkkkkkkkkkkkkkkkkkkkkkkkkkkkkkkkkkkkkkkkkkkkkk",
"kkkkkkkkkkkkkkkkkkkkkkkkkkkkkkkkkkkkkkkkkkkkkkkkkkkkkkkkkkkkkkkkkkkkkkkkkkkkkkkkkkkkkkkkkkkkkkkkkkkk",
"kkkkkkkkkkkkkkkkkkkkkkkkkkkkkkkkkkkkkkkkkkkkkkkkkkkkkkkkkkkkkkkkkkkkkkkkkkkkkkkkkkkkkkkkkkkkkkkkkkkk",
"kkkkkkkkkkkkkkkkkkkkkkkkkkkkkkkkkkkkkkkkkkkkkkkkkkkkkkkkkkkkkkkkkkkkkkkkkkkkkkkkkkkkkkkkkkkkkkkkkkkk",
"kkkkkkkkkkkkkkkkkkkkkkkkkkkkkkkkkkkkkkkkkkkkkkkkkkkkkkkkkkkkkkkkkkkkkkkkkkkkkkkkkkkkkkkkkkkkkkkkkkkk",
"kkkkkkkkkkkkkkkkkkkkkkkkkkkkkkkkkkkkkkkkkkkkkkkkkkkkkkkkkkkkkkkkkkkkkkkkkkkkkkkkkkkkkkkkkkkkkkkkkkkk",
"kkkkkkkkkkkkkkkkkkkkkkkkkkkkkkkkkkkkkkkkkkkkkkkkkkkkkkkkkkkkkkkkkkkkkkkkkkkkkkkkkkkkkkkkkkkkkkkkkkkk",
"kkkkkkkkkkkkkkkkkkkkkkkkkkkkkkkkkkkkkkkkkkkkkkkkkkkkkkkkkkkkkkkkkkkkkkkkkkkkkkkkkkkkkkkkkkkkkkkkkkkk",
"kkkkkkkkkkkkkkkkkkkkkkkkkkkkkkkkkkkkkkkkkkkkkkkkkkkkkkkkkkkkkkkkkkkkkkkkkkkkkkkkkkkkkkkkkkkkkkkkkkkk",
"kkkkkkkkkkkkkkkkkkkkkkkkkkkkkkkkkkkkkkkkkkkkkkkkkkkkkkkkkkkkkkkkkkkkkkkkkkkkkkkkkkkkkkkkkkkkkkkkkkkk",
"kkkkkkkkkkkkkkkkkkkkkkkkkkkkkkkkkkkkkkkkkkkkkkkkkkkkkkkkkkkkkkkkkkkkkkkkkkkkkkkkkkkkkkkkkkkkkkkkkkkk",
"kkkkkkkkkkkkkkkkkkkkkkkkkkkkkkkkkkkkkkkkkkkkkkkkkkkkkkkkkkkkkkkkkkkkkkkkkkkkkkkkkkkkkkkkkkkkkkkkkkkk",
"kkkkkkkkkkkkkkkkkkkkkkkkkkkkkkkkkkkkkkkkkkkkkkkkkkkkkkkkkkkkkkkkkkkkkkkkkkkkkkkkkkkkkkkkkkkkkkkkkkkk",
"kkkkkkkkkkkkkkkkkkkkkkkkkkkkkkkkkkkkkkkkkkkkkkkkkkkkkkkkkkkkkkkkkkkkkkkkkkkkkkkkkkkkkkkkkkkkkkkkkkkk"
};
