/* XPM */
static char *hero4[] = {
/* columns rows colors chars-per-pixel */
"100 100 45 1 ",
"  c black",
". c #040404",
"X c #080808",
"o c #0C0C0C",
"O c #101010",
"+ c #141414",
"@ c #181818",
"# c #1C1C1C",
"$ c #202020",
"% c #303030",
"& c #373737",
"* c #383838",
"= c #3B3B3B",
"- c #3C3C3C",
"; c #404040",
": c #464646",
"> c #484848",
", c #4E4E4E",
"< c #505050",
"1 c #545454",
"2 c #555555",
"3 c #585858",
"4 c #5B5B5B",
"5 c #606060",
"6 c #626262",
"7 c #707070",
"8 c #747474",
"9 c #787878",
"0 c #808080",
"q c #9F9F9F",
"w c #A7A7A7",
"e c #AFAFAF",
"r c #B7B7B7",
"t c #BFBFBF",
"y c #C3C3C3",
"u c #C7C7C7",
"i c #CFCFCF",
"p c #DFDFDF",
"a c #E3E3E3",
"s c #E7E7E7",
"d c #EBEBEB",
"f c #EFEFEF",
"g c #FBFBFB",
"h c white",
"j c None",
/* pixels */
"hhhhhhhhhhhhhhhhhhhhhhhhhhhhhhhhhhhhhhhhhhhhhhhhhhhhhhhhhhhhhhhhhhhhhhhhhhhhhhhhhhhhhhhhhhhhhhhhhhhh",
"hhhhhhhhhhhhhhhhhhhhhhhhhhhhhhhhhhhhhhhhhhhhhhhhhhhhhhhhhhhhhhhhhhhhhhhhhhhhhhhhhhhhhhhhhhhhhhhhhhhh",
"hhhhhhhhhhhhhhhhhhhhhhhhhhhhhhhhhhhhhhhhhhhhhhhhhhhhhhhhhhhhhhhhhhhhhhhhhhhhhhhhhhhhhhhhhhhhhhhhhhhh",
"hhhhhhhhhhhhhhhhhhhhhhhhhhhhhhhhhhhhhhhhhhhhhhhhhhhhhhhhhhhhhhhhhhhhhhhhhhhhhhhhhhhhhhhhhhhhhhhhhhhh",
"hhhhhhhhhhhhhhhhhhhhhhhhhhhhhhhhhhhhhhhhhhhhhhhhhhhhhhhhhhhhhhhhhhhhhhhhhhhhhhhhhhhhhhhhhhhhhhhhhhhh",
"hhhhhhhhhhhhhhhhhhhhhhhhhhhhhhhhhhhhhhhhhhhhhhhhhhhhhhhhhhhhhhhhhhhhhhhhhhhhhhhhhhhhhhhhhhhhhhhhhhhh",
"hhhhhhhhhhhhhhhhhhhhhhhhhhhhhhhhhhhhhhhhhhhhhhhhhhhhhhhhhhhhhhhhhhhhhhhhhhhhhhhhhhhhhhhhhhhhhhhhhhhh",
"hhhhhhhhhhhhhhhhhhhhhhhhhhhhhhhhhhhhhhhhhhhhhhhhhhhhhhhhhhhhhhhhhhhhhhhhhhhhhhhhhhhhhhhhhhhhhhhhhhhh",
"hhhhhhhhhhhhhhhhhhhhhhhhhhhhhhhhhhhhhhhhhhhhhhhhhhhhhhhhhhhhhhhhhhhhhhhhhhhhhhhhhhhhhhhhhhhhhhhhhhhh",
"hhhhhhhhhhhhhhhhhhhhhhhhhhhhhhhhhhhhhhhhhhhhhhhhhhhhhhhhhhhhhhhhhhhhhhhhhhhhhhhhhhhhhhhhhhhhhhhhhhhh",
"hhhhhhhhhhhhhhhhhhhhhhhhhhhhhhhhhhhhhhhhhhhhhhhhhhhhhhhhhhhhhhhhhhhhhhhhhhhhhhhhhhhhhhhhhhhhhhhhhhhh",
"hhhhhhhhhhhhhhhhhhhhhhhhhhhhhhhhhhhhhhhhhhhhhhhhhhhhhhhhhhhhhhhhhhhhhhhhhhhhhhhhhhhhhhhhhhhhhhhhhhhh",
"hhhhhhhhhhhhhhhhhhhhhhhhhhhhhhhhhhhhhhhhhhhhhhhhhhhhhhhhhhhhhhhhhhhhhhhhhhhhhhhhhhhhhhhhhhhhhhhhhhhh",
"hhhhhhhhhhhhhhhhhhhhhhhhhhhhhhhhhhhhhhhhhhhhhhhhhhhhhhhhhhhhhhhhhhhhhhhhhhhhhhhhhhhhhhhhhhhhhhhhhhhh",
"hhhhhhhhhhhhhhhhhhhhhhhhhhhhhhhhhhhhhhhhhhhhhhhhhhhhhhhhhhhhhhhhhhhhhhhhhhhhhhhhhhhhhhhhhhhhhhhhhhhh",
"hhhhhhhhhhhhhhhhhhhhhhhhhhhhhhhhhhhhhhhhhhhhhhhhhhhhhhhhhhhhhhhhhhhhhhhhhhhhhhhhhhhhhhhhhhhhhhhhhhhh",
"hhhhhhhhhhhhhhhhhhhhhhhhhhhhhhhhhhhhhhhhhhhhhhhhhhhhhhhhhhhhhhhhhhhhhhhhhhhhhhhhhhhhhhhhhhhhhhhhhhhh",
"hhhhhhhhhhhhhhhhhhhhhhhhhhhhhhhhhhhhhhhhhhhhhhhhhhhhhhhhhhhhhhhhhhhhhhhhhhhhhhhhhhhhhhhhhhhhhhhhhhhh",
"hhhhhhhhhhhhhhhhhhhhhhhhhhhhhhhhhhhhhhhhhhhhhhhhhhhhhhhhhhhhhhhhhhhhhhhhhhhhhhhhhhhhhhhhhhhhhhhhhhhh",
"hhhhhhhhhhhhhhhhhhhhhhhhhhhhhhhhhhhhhhhhhhhhhhhhhhhhhhhhhhhhhhhhhhhhh         hhhhhhhhhhhhhhhhhhhhhh",
"hhhhhhhhhhhhhhhhhhhhhhhhhhhhhhhhhhhhhhhhhhhhhhhhhhhhhhhhhhhhhhhhhhhhh         hhhhhhhhhhhhhhhhhhhhhh",
"hhhhhhhhhhhhhhhhhhhhhhhhhhhhhhhhhhhhhhhhhhhhhhhhhhhhhhhhhhhhhhhhhhhhh  .$$$$$$hhhhhhhhhhhhhhhhhhhhhh",
"hhhhhhhhhhhhhhhhhhhhhhhhhhhhhhhhhhhhhh                        hhhhhhh  $hhhhhh$  hhhhhhhhhhhhhhhhhhh",
"hhhhhhhhhhhhhhhhhhhhhhhhhhhhhhhhhhhhhh                        hhhhhhh  $hhhhhh$  hhhhhhhhhhhhhhhhhhh",
"hhhhhhhhhhhhhhhhhhhhhhhhhhhhhhhhhhhhhh                        hhhhhhh  $hhhhhh$  hhhhhhhhhhhhhhhhhhh",
"hhhhhhhhhhhhhhhhhhhhhhhhhhhhhhhhhh                                hhh      hhhhhh;  hhhhhhhhhhhhhhhh",
"hhhhhhhhhhhhhhhhhhhhhhhhhhhhhhhhhh                                hhh      hhhhhh;  hhhhhhhhhhhhhhhh",
"hhhhhhhhhhhhhhhhhhhhhhhhhhhhhhhhhh                                hhh      hhhhhh;  hhhhhhhhhhhhhhhh",
"hhhhhhhhhhhhhhhhhhhhhhhhhhhhhhhhhh      1ppppppppp      wpp1      hhh      $$$ahhspp3  hhhhhhhhhhhhh",
"hhhhhhhhhhhhhhhhhhhhhhhhhhhhhhhhhh      5hhhhhhhhh      thh5      hhh         phhhhh5  hhhhhhhhhhhhh",
"hhhhhhhhhhhhhhhhhhhhhhhhhhhhhhhhhh      5hhhhhhhhh      thh5      hhh         phhhhh5  hhhhhhhhhhhhh",
"hhhhhhhhhhhhhhhhhhhhhhhhhhhhhhhhhh      5hhhhhhhhhttttttfhh5      hhh         =;;ihh5  hhhhhhhhhhhhh",
"hhhhhhhhhhhhhhhhhhhhhhhhhhhhhhhhhh      5hhhhhhhhhhhhhhhhhh5      hhh            yhh5  hhhhhhhhhhhhh",
"hhhhhhhhhhhhhhhhhhhhhhhhhhhhhhhhhh      5hhhhhhhhhhhhhhhhhh5      hhh            thh5  hhhhhhhhhhhhh",
"hhhhhhhhhhhhhhhhhhhhhhhhhhhhhhhhhh   <qqyhhhhhd555555dhhhhhyqq<   hhh            thh5  hhhhhhhhhhhhh",
"hhhhhhhhhhhhhhhhhhhhhhhhhhhhhhhhhh   0hhhhhhhhp      phhhhhhhh0   hhh            thh5  hhhhhhhhhhhhh",
"hhhhhhhhhhhhhhhhhhhhhhhhhhhhhhhhhh   0hhhhhhhhp      phhhhhhhh0   hhh            thh5  hhhhhhhhhhhhh",
"hhhhhhhhhhhhhhhhhhhhhhhhhhhhhhhhhh5000000000007      7000000000005hh             thh5  hhhhhhhhhhhhh",
"hhhhhhhhhhhhhhhhhhhhhhhhhhhhhhh   qhh0                        0hhq               thh5  hhhhhhhhhhhhh",
"hhhhhhhhhhhhhhhhhhhhhhhhhhhhhhh   qhh0                        0hhq               thh5  hhhhhhhhhhhhh",
"hhhhhhhhhhhhhhhhhhhhhhhhhhhhhhh   whhe55-     o555555o     -55ehhq               thh5  hhhhhhhhhhhhh",
"hhhhhhhhhhhhhhhhhhhhhhhhh         qhhhhhq     $hhhhhh$     qhhhhhq               thh5  hhhhhhhhhhhhh",
"hhhhhhhhhhhhhhhhhhhhhhhhh         qhhhhhq     $hhhhhh$     qhhhhhq               thh5  hhhhhhhhhhhhh",
"hhhhhhhhhhhhhhhhhhhhhhhhh         8ttphhr;;;;;<tttttt<;;;;;rhhptt9               thh5  hhhhhhhhhhhhh",
"hhhhhhhhh                            0hhhhhhhhp      phhhhhhhh0                  thh5  hhhhhhhhhhhhh",
"hhhhhhhhh                            0hhhhhhhhp      phhhhhhhh0                  thh5  hhhhhhhhhhhhh",
"hhhhhhhhh   O$$$$$$$$$$$$$$$$$$X     7ppdhhhhha$$$$$$ahhhhhdpp7     X$$$$$$$$$$$$uhh8$$#hhhhhhhhhhhh",
"hhhhhhhhh   0hhhhhhhhhhhhhhhhhh;        5hhhhhhhhhhhhhhhhhh5        ;hhhhhhhhhhhhhhhhhh0   hhhhhhhhh",
"hhhhhhhhh   0hhhhhhhhhhhhhhhhhh;        5hhhhhhhhhhhhhhhhhh5        ;hhhhhhhhhhhhhhhhhh0   hhhhhhhhh",
"hhhhhhhhh   0hhhhhhhhhhhhhhhhhh;        5hhhhhhhhhhhhhhhhhh5        ;hhhhhhhhhhhhhhhhhh0   hhhhhhhhh",
"hhhhhhhhh   0hhhhhhhhp      phh;     0hhhhhhhhp      phhhhhhhh0                            hhhhhhhhh",
"hhhhhhhhh   0hhhhhhhhp      phh;     0hhhhhhhhp      phhhhhhhh0                            hhhhhhhhh",
"hhhhhhhhh   0hhhhhhhhp      phh;     0hhhhhhhhp      phhhhhhhh0                            hhhhhhhhh",
"hhhhhhhhh   0hhhhhhhhp      phh;     O$$8hhhhhgppppppghhhhh8$$O     =pppppp   yppppp1   hhhhhhhhhhhh",
"hhhhhhhhh   0hhhhhhhhp      phh;        5hhhhhhhhhhhhhhhhhh5        -hhhhhh   phhhhh5  hhhhhhhhhhhhh",
"hhhhhhhhh   0hhhhhhhhp      phh;        5hhhhhhhhhhhhhhhhhh5        ;hhhhhh   phhhhh5  hhhhhhhhhhhhh",
"hhhhhhhhh   0hhhhhhhhp      phh;        @;;;;;;;;;;;;;;;;;;@        ;hhhhhh   phhhhh5  hhhhhhhhhhhhh",
"hhhhhhhhh   0hhhhhhhhp      phh;                                    ;hhhhhh   phhhhh5  hhhhhhhhhhhhh",
"hhhhhhhhh   0hhhhhhhhp      phh;                                    ;hhhhhh   phhhhh5  hhhhhhhhhhhhh",
"hhhhhhhhh   0hhhhhhhhp      phh;                                    @555555   phhhhh5  hhhhhhhhhhhhh",
"hhhhhhhhh   0hhhhhhhhp      phh;                                              phhhhh5  hhhhhhhhhhhhh",
"hhhhhhhhh   0hhhhhhhhp      phh;                                              phhhhh5  hhhhhhhhhhhhh",
"hhhhhhhhhhhh100ehhhhhp   000000$                                           000fhhq00:hhhhhhhhhhhhhhh",
"hhhhhhhhhhhhh  5hhhhhp   hhh$                                              hhhhhh;  hhhhhhhhhhhhhhhh",
"hhhhhhhhhhhhh  5hghhhp   hhh$                                              hhhhhh;  hhhhhhhhhhhhhhhh",
"hhhhhhhhhhhhh  ,wqrhhd555qqq+  >55555%                        %55555>      qqqqqq&  hhhhhhhhhhhhhhhh",
"hhhhhhhhhhhhhhhh  -hhhhhh      thhhhh0                        0hhhhht            hhhhhhhhhhhhhhhhhhh",
"hhhhhhhhhhhhhhhh  ;hhhhhh      thhhhh0                        0hhhhht            hhhhhhhhhhhhhhhhhhh",
"hhhhhhhhhhhhhhhh  =tttttt   =-;wttttt5                        5ttttyq;;=         hhhhhhhhhhhhhhhhhhh",
"hhhhhhhhhhhhhhhhhhh         phh-                                    ;hhp   hhhhhhhhhhhhhhhhhhhhhhhhh",
"hhhhhhhhhhhhhhhhhhh         phh-                                    -hhp   hhhhhhhhhhhhhhhhhhhhhhhhh",
"hhhhhhhhhhhhhhhhhhh         phh3$$$$$$$$$$$@            @$$$$$$$$$$$3hhp   hhhhhhhhhhhhhhhhhhhhhhhhh",
"hhhhhhhhhhhhhhhhhhhhhhhhh   phhhhhhhhhhhhhht            thhhhhhhhhhhhhhp   hhhhhhhhhhhhhhhhhhhhhhhhh",
"hhhhhhhhhhhhhhhhhhhhhhhhh   phhhhhhhhhhhhhht            thhhhhhhhhhhhhhp   hhhhhhhhhhhhhhhhhhhhhhhhh",
"hhhhhhhhhhhhhhhhhhhhhhhhh   phhhhhhhhhhhhhht            thhhhhhhhhhhhhhp   hhhhhhhhhhhhhhhhhhhhhhhhh",
"hhhhhhhhhhhhhhhhhhhhhhhhhhhh                hhhhhhhhhhhh                hhhhhhhhhhhhhhhhhhhhhhhhhhhh",
"hhhhhhhhhhhhhhhhhhhhhhhhhhhh                hhhhhhhhhhhh                hhhhhhhhhhhhhhhhhhhhhhhhhhhh",
"hhhhhhhhhhhhhhhhhhhhhhhhhhhh                hhhhhhhhhhhh                hhhhhhhhhhhhhhhhhhhhhhhhhhhh",
"hhhhhhhhhhhhhhhhhhhhhhhhhhhhhhhhhhhhhhhhhhhhhhhhhhhhhhhhhhhhhhhhhhhhhhhhhhhhhhhhhhhhhhhhhhhhhhhhhhhh",
"hhhhhhhhhhhhhhhhhhhhhhhhhhhhhhhhhhhhhhhhhhhhhhhhhhhhhhhhhhhhhhhhhhhhhhhhhhhhhhhhhhhhhhhhhhhhhhhhhhhh",
"hhhhhhhhhhhhhhhhhhhhhhhhhhhhhhhhhhhhhhhhhhhhhhhhhhhhhhhhhhhhhhhhhhhhhhhhhhhhhhhhhhhhhhhhhhhhhhhhhhhh",
"hhhhhhhhhhhhhhhhhhhhhhhhhhhhhhhhhhhhhhhhhhhhhhhhhhhhhhhhhhhhhhhhhhhhhhhhhhhhhhhhhhhhhhhhhhhhhhhhhhhh",
"hhhhhhhhhhhhhhhhhhhhhhhhhhhhhhhhhhhhhhhhhhhhhhhhhhhhhhhhhhhhhhhhhhhhhhhhhhhhhhhhhhhhhhhhhhhhhhhhhhhh",
"hhhhhhhhhhhhhhhhhhhhhhhhhhhhhhhhhhhhhhhhhhhhhhhhhhhhhhhhhhhhhhhhhhhhhhhhhhhhhhhhhhhhhhhhhhhhhhhhhhhh",
"hhhhhhhhhhhhhhhhhhhhhhhhhhhhhhhhhhhhhhhhhhhhhhhhhhhhhhhhhhhhhhhhhhhhhhhhhhhhhhhhhhhhhhhhhhhhhhhhhhhh",
"hhhhhhhhhhhhhhhhhhhhhhhhhhhhhhhhhhhhhhhhhhhhhhhhhhhhhhhhhhhhhhhhhhhhhhhhhhhhhhhhhhhhhhhhhhhhhhhhhhhh",
"hhhhhhhhhhhhhhhhhhhhhhhhhhhhhhhhhhhhhhhhhhhhhhhhhhhhhhhhhhhhhhhhhhhhhhhhhhhhhhhhhhhhhhhhhhhhhhhhhhhh",
"hhhhhhhhhhhhhhhhhhhhhhhhhhhhhhhhhhhhhhhhhhhhhhhhhhhhhhhhhhhhhhhhhhhhhhhhhhhhhhhhhhhhhhhhhhhhhhhhhhhh",
"hhhhhhhhhhhhhhhhhhhhhhhhhhhhhhhhhhhhhhhhhhhhhhhhhhhhhhhhhhhhhhhhhhhhhhhhhhhhhhhhhhhhhhhhhhhhhhhhhhhh",
"hhhhhhhhhhhhhhhhhhhhhhhhhhhhhhhhhhhhhhhhhhhhhhhhhhhhhhhhhhhhhhhhhhhhhhhhhhhhhhhhhhhhhhhhhhhhhhhhhhhh",
"hhhhhhhhhhhhhhhhhhhhhhhhhhhhhhhhhhhhhhhhhhhhhhhhhhhhhhhhhhhhhhhhhhhhhhhhhhhhhhhhhhhhhhhhhhhhhhhhhhhh",
"hhhhhhhhhhhhhhhhhhhhhhhhhhhhhhhhhhhhhhhhhhhhhhhhhhhhhhhhhhhhhhhhhhhhhhhhhhhhhhhhhhhhhhhhhhhhhhhhhhhh",
"hhhhhhhhhhhhhhhhhhhhhhhhhhhhhhhhhhhhhhhhhhhhhhhhhhhhhhhhhhhhhhhhhhhhhhhhhhhhhhhhhhhhhhhhhhhhhhhhhhhh",
"hhhhhhhhhhhhhhhhhhhhhhhhhhhhhhhhhhhhhhhhhhhhhhhhhhhhhhhhhhhhhhhhhhhhhhhhhhhhhhhhhhhhhhhhhhhhhhhhhhhh",
"hhhhhhhhhhhhhhhhhhhhhhhhhhhhhhhhhhhhhhhhhhhhhhhhhhhhhhhhhhhhhhhhhhhhhhhhhhhhhhhhhhhhhhhhhhhhhhhhhhhh",
"hhhhhhhhhhhhhhhhhhhhhhhhhhhhhhhhhhhhhhhhhhhhhhhhhhhhhhhhhhhhhhhhhhhhhhhhhhhhhhhhhhhhhhhhhhhhhhhhhhhh",
"hhhhhhhhhhhhhhhhhhhhhhhhhhhhhhhhhhhhhhhhhhhhhhhhhhhhhhhhhhhhhhhhhhhhhhhhhhhhhhhhhhhhhhhhhhhhhhhhhhhh",
"hhhhhhhhhhhhhhhhhhhhhhhhhhhhhhhhhhhhhhhhhhhhhhhhhhhhhhhhhhhhhhhhhhhhhhhhhhhhhhhhhhhhhhhhhhhhhhhhhhhh",
"hhhhhhhhhhhhhhhhhhhhhhhhhhhhhhhhhhhhhhhhhhhhhhhhhhhhhhhhhhhhhhhhhhhhhhhhhhhhhhhhhhhhhhhhhhhhhhhhhhhh",
"hhhhhhhhhhhhhhhhhhhhhhhhhhhhhhhhhhhhhhhhhhhhhhhhhhhhhhhhhhhhhhhhhhhhhhhhhhhhhhhhhhhhhhhhhhhhhhhhhhhh"
};
