/* XPM */
static char *hero2[] = {
/* columns rows colors chars-per-pixel */
"100 100 46 1 ",
"  c blacj",
". c #040404",
"X c #080808",
"o c #0C0C0C",
"O c #101010",
"+ c #141414",
"@ c #181818",
"# c #1C1C1C",
"$ c #202020",
"% c #303030",
"& c #373737",
"* c #383838",
"= c #3B3B3B",
"- c #3C3C3C",
"; c #404040",
": c #464646",
"> c #484848",
", c #4E4E4E",
"< c #505050",
"1 c #545454",
"2 c #555555",
"3 c #585858",
"4 c #5B5B5B",
"5 c #606060",
"6 c #646464",
"7 c #707070",
"8 c #747474",
"9 c #808080",
"0 c #848484",
"q c #878787",
"w c #8F8F8F",
"e c #979797",
"r c #9F9F9F",
"t c #AFAFAF",
"y c #B7B7B7",
"u c #BFBFBF",
"i c #C3C3C3",
"p c #C7C7C7",
"a c #CFCFCF",
"s c #DFDFDF",
"d c #E3E3E3",
"f c #E7E7E7",
"g c #EBEBEB",
"h c #EFEFEF",
"j c white",
"k c None",
/* pixels */
"jjjjjjjjjjjjjjjjjjjjjjjjjjjjjjjjjjjjjjjjjjjjjjjjjjjjjjjjjjjjjjjjjjjjjjjjjjjjjjjjjjjjjjjjjjjjjjjjjjjj",
"jjjjjjjjjjjjjjjjjjjjjjjjjjjjjjjjjjjjjjjjjjjjjjjjjjjjjjjjjjjjjjjjjjjjjjjjjjjjjjjjjjjjjjjjjjjjjjjjjjjj",
"jjjjjjjjjjjjjjjjjjjjjjjjjjjjjjjjjjjjjjjjjjjjjjjjjjjjjjjjjjjjjjjjjjjjjjjjjjjjjjjjjjjjjjjjjjjjjjjjjjjj",
"jjjjjjjjjjjjjjjjjjjjjjjjjjjjjjjjjjjjjjjjjjjjjjjjjjjjjjjjjjjjjjjjjjjjjjjjjjjjjjjjjjjjjjjjjjjjjjjjjjjj",
"jjjjjjjjjjjjjjjjjjjjjjjjjjjjjjjjjjjjjjjjjjjjjjjjjjjjjjjjjjjjjjjjjjjjjjjjjjjjjjjjjjjjjjjjjjjjjjjjjjjj",
"jjjjjjjjjjjjjjjjjjjjjjjjjjjjjjjjjjjjjjjjjjjjjjjjjjjjjjjjjjjjjjjjjjjjjjjjjjjjjjjjjjjjjjjjjjjjjjjjjjjj",
"jjjjjjjjjjjjjjjjjjjjjjjjjjjjjjjjjjjjjjjjjjjjjjjjjjjjjjjjjjjjjjjjjjjjjjjjjjjjjjjjjjjjjjjjjjjjjjjjjjjj",
"jjjjjjjjjjjjjjjjjjjjjjjjjjjjjjjjjjjjjjjjjjjjjjjjjjjjjjjjjjjjjjjjjjjjjjjjjjjjjjjjjjjjjjjjjjjjjjjjjjjj",
"jjjjjjjjjjjjjjjjjjjjjjjjjjjjjjjjjjjjjjjjjjjjjjjjjjjjjjjjjjjjjjjjjjjjjjjjjjjjjjjjjjjjjjjjjjjjjjjjjjjj",
"jjjjjjjjjjjjjjjjjjjjjjjjjjjjjjjjjjjjjjjjjjjjjjjjjjjjjjjjjjjjjjjjjjjjjjjjjjjjjjjjjjjjjjjjjjjjjjjjjjjj",
"jjjjjjjjjjjjjjjjjjjjjjjjjjjjjjjjjjjjjjjjjjjjjjjjjjjjjjjjjjjjjjjjjjjjjjjjjjjjjjjjjjjjjjjjjjjjjjjjjjjj",
"jjjjjjjjjjjjjjjjjjjjjjjjjjjjjjjjjjjjjjjjjjjjjjjjjjjjjjjjjjjjjjjjjjjjjjjjjjjjjjjjjjjjjjjjjjjjjjjjjjjj",
"jjjjjjjjjjjjjjjjjjjjjjjjjjjjjjjjjjjjjjjjjjjjjjjjjjjjjjjjjjjjjjjjjjjjjjjjjjjjjjjjjjjjjjjjjjjjjjjjjjjj",
"jjjjjjjjjjjjjjjjjjjjjjjjjjjjjjjjjjjjjjjjjjjj               jjjjjjjjjjjjjjjjjjjjjjjjjjjjjjjjjjjjjjjjj",
"jjjjjjjjjjjjjjjjjjjjjjjjjjjjjjjjjjjjjjjjjjjj               jjjjjjjjjjjjjjjjjjjjjjjjjjjjjjjjjjjjjjjjj",
"jjjjjjjjjjjjjjjjjjjjjjjjjjjjjjjjjjjjjjjjjjj                 jjjjjjjjjjjjjjjjjjjjjjjjjjjjjjjjjjjjjjjj",
"jjjjjjjjjjjjjjjjjjjjjjjjjjjjjjjjjjjjjj                        jjjjjjjjjjjjjjjjjjjjjjjjjjjjjjjjjjjjjj",
"jjjjjjjjjjjjjjjjjjjjjjjjjjjjjjjjjjjjjj                        jjjjjjjjjjjjjjjjjjjjjjjjjjjjjjjjjjjjjj",
"jjjjjjjjjjjjjjjjjjjjjjjjjjjjjjjjjjjjj                          jjjjjjjjjjjjjjjjjjjjjjjjjjjjjjjjjjjjj",
"jjjjjjjjjjjjjjjjjjjjjjjjjjjjjjjjjj                                jjj         jjjjjjjjjjjjjjjjjjjjjj",
"jjjjjjjjjjjjjjjjjjjjjjjjjjjjjjjjjj                                jjj         jjjjjjjjjjjjjjjjjjjjjj",
"jjjjjjjjjjjjjjjjjjjjjjjjjjjjjjjjjj      o$$$$$$$$$   #$$$$$o      jjj  .$$$$$$jjjjjjjjjjjjjjjjjjjjjj",
"jjjjjjjjjjjjjjjjjjjjjjjjjjjjjjjjjj      5jjjjjjjjj   sjjjjj5      jjj  $jjjjjj$  jjjjjjjjjjjjjjjjjjj",
"jjjjjjjjjjjjjjjjjjjjjjjjjjjjjjjjjj      5jjjjjjjjj   sjjjjj5      jjj  $jjjjjj$  jjjjjjjjjjjjjjjjjjj",
"jjjjjjjjjjjjjjjjjjjjjjjjjjjjjjjjjj      5jjjjjjjjj   sjjjjj5      jjj  $jjjjjj$  jjjjjjjjjjjjjjjjjjj",
"jjjjjjjjjjjjjjjjjjjjjjjjjjjjjjjjjj      5jjjjjjjjjjjjjjjjjj5      jjj      jjjjjj;  jjjjjjjjjjjjjjjj",
"jjjjjjjjjjjjjjjjjjjjjjjjjjjjjjjjjj      5jjjjjjjjjjjjjjjjjj5      jjj      jjjjjj;  jjjjjjjjjjjjjjjj",
"jjjjjjjjjjjjjjjjjjjjjjjjjjjjjjjjjj      5jjjjjjjjjjjjjjjjjj5      jjj      jjjjjj;  jjjjjjjjjjjjjjjj",
"jjjjjjjjjjjjjjjjjjjjjjjjjjjjjjjjjj   7ssgjjjjjd$$$$$$djjjjjgss7   jjj      $$$djjfss3  jjjjjjjjjjjjj",
"jjjjjjjjjjjjjjjjjjjjjjjjjjjjjjjjjj   9jjjjjjjjs      sjjjjjjjj9   jjj         sjjjjj5  jjjjjjjjjjjjj",
"jjjjjjjjjjjjjjjjjjjjjjjjjjjjjjjjjj   9jjjjjjjjs      sjjjjjjjj9   jjj         sjjjjj5  jjjjjjjjjjjjj",
"jjjjjjjjjjjjjjjjjjjjjjjjjjjjjjj   0uu9;;;;;;;;*      *;;;;;;;;9uu0            *;;ajj5  jjjjjjjjjjjjj",
"jjjjjjjjjjjjjjjjjjjjjjjjjjjjjjj   rjj9                        9jjr               ujj5  jjjjjjjjjjjjj",
"jjjjjjjjjjjjjjjjjjjjjjjjjjjjjjj   rjj9                        9jjr               ujj5  jjjjjjjjjjjjj",
"jjjjjjjjjjjjjjjjjjjjjjjjjjjjjjj   rjjarr6     +rrrrrr+     6rrajjr               ujj5  jjjjjjjjjjjjj",
"jjjjjjjjjjjjjjjjjjjjjjjjjjjjjjj   rjjjjjr     $jjjjjj$     rjjjjjr               ujj5  jjjjjjjjjjjjj",
"jjjjjjjjjjjjjjjjjjjjjjjjjjjjjjj   rjjjjjr     $jjjjjj$     rjjjjjr               ujj5  jjjjjjjjjjjjj",
"jjjjjjjjjjjjjjjjjjjjjjjjjjjjjjj   <99ujja999999999999999999ajju99<               ujj5  jjjjjjjjjjjjj",
"jjjjjjjjjjjjjjjjjjjjjjjjjjjjjjj      9jjjjjjjjs      sjjjjjjjj9                  ujj5  jjjjjjjjjjjjj",
"jjjjjjjjjjjjjjjjjjjjjjjjjjjjjjj      9jjjjjjjjs      sjjjjjjjj9                  ujj5  jjjjjjjjjjjjj",
"jjjjjjjjjjjjjjjjjjjjjjjjjjjjjjj      <rrijjfrre555555errfjjprr,                  ujj5  jjjjjjjjjjjjj",
"jjjjjjjjjjjjjjjjjjjjjjjjj               5jju  $jjjjjj$  ujj5                     ujj5  jjjjjjjjjjjjj",
"jjjjjjjjjjjjjjjjjjjjjjjjj               5jju  $jjjjjj$  ujj5                     ujj5  jjjjjjjjjjjjj",
"jjjjjjjjjjjjjjjjjjjjjjjjj            $;;0jju  @uuuuuu@  ujj0;;$                  ujj5  jjjjjjjjjjjjj",
"jjjjjjjjj                            9jjjjju            ujjjjj9                  ujj5  jjjjjjjjjjjjj",
"jjjjjjjjj                            9jjjjju            ujjjjj9                  ujj5  jjjjjjjjjjjjj",
"jjjjjjjjj   O$$$$$$$$$$$$$$$$$$X     9jjjjjp$$#      #$$pjjjjj9     X$$$$$$$$$$$$pjj8$$#jjjjjjjjjjjj",
"jjjjjjjjj   9jjjjjjjjjjjjjjjjjj;     9jjjjjjjjs      sjjjjjjjj9     ;jjjjjjjjjjjjjjjjjj9   jjjjjjjjj",
"jjjjjjjjj   9jjjjjjjjjjjjjjjjjj;     9jjjjjjjjs      sjjjjjjjj9     ;jjjjjjjjjjjjjjjjjj9   jjjjjjjjj",
"jjjjjjjjj   9jjjjjjjjjjjjjjjjjj;     9jjjjjjjjs      sjjjjjjjj9     ;jjjjjjjjjjjjjjjjjj9   jjjjjjjjj",
"jjjjjjjjj   9jjjjjjjjs      sjj;           ;jjjjjjjjjjjj;                                  jjjjjjjjj",
"jjjjjjjjj   9jjjjjjjjs      sjj;           ;jjjjjjjjjjjj;                                  jjjjjjjjj",
"jjjjjjjjj   9jjjjjjjjs      sjj;           ;jjjjjjjjjjjj;                                  jjjjjjjjj",
"jjjjjjjjj   9jjjjjjjjs      sjj;           X$$$$$$$$$$$$X           *ssssss   isssss2   jjjjjjjjjjjj",
"jjjjjjjjj   9jjjjjjjjs      sjj;                                    ;jjjjjj   sjjjjj5  jjjjjjjjjjjjj",
"jjjjjjjjj   9jjjjjjjjs      sjj;                                    ;jjjjjj   sjjjjj5  jjjjjjjjjjjjj",
"jjjjjjjjj   9jjjjjjjjs      sjj;                                    ;jjjjjj   sjjjjj5  jjjjjjjjjjjjj",
"jjjjjjjjj   9jjjjjjjjs      sjj;                                    ;jjjjjj   sjjjjj5  jjjjjjjjjjjjj",
"jjjjjjjjj   9jjjjjjjjs      sjj;                                    ;jjjjjj   sjjjjj5  jjjjjjjjjjjjj",
"jjjjjjjjj   9jjjjjjjjs      sjj;                                    @555555   sjjjjj5  jjjjjjjjjjjjj",
"jjjjjjjjj   9jjjjjjjjs      sjj;                                              sjjjjj5  jjjjjjjjjjjjj",
"jjjjjjjjj   9jjjjjjjjs      sjj;                                              sjjjjj5  jjjjjjjjjjjjj",
"jjjjjjjjjjjj299tjjjjjs   999999$                                           999hjjr99:jjjjjjjjjjjjjjj",
"jjjjjjjjjjjjj  5jjjjjs   jjj$                                              jjjjjj;  jjjjjjjjjjjjjjjj",
"jjjjjjjjjjjjj  5jjjjjs   jjj$                                              jjjjjj;  jjjjjjjjjjjjjjjj",
"jjjjjjjjjjjjj  ,rryjjg555rrr+  >55555555-                  -55555555>      rrrrrr&  jjjjjjjjjjjjjjjj",
"jjjjjjjjjjjjjjjj  ;jjjjjj      ujjjjjjjjr                  rjjjjjjjju            jjjjjjjjjjjjjjjjjjj",
"jjjjjjjjjjjjjjjj  ;jjjjjj      ujjjjjjjjr                  rjjjjjjjju            jjjjjjjjjjjjjjjjjjj",
"jjjjjjjjjjjjjjjj  *iuuuuu   *;;ruuuuuuuuw;;%            %;;wuuuuuuuur;;*         jjjjjjjjjjjjjjjjjjj",
"jjjjjjjjjjjjjjjjjjj         sjj;        5jju            ujj5        ;jjs   jjjjjjjjjjjjjjjjjjjjjjjjj",
"jjjjjjjjjjjjjjjjjjj         sjj;        5jju            ujj5        ;jjs   jjjjjjjjjjjjjjjjjjjjjjjjj",
"jjjjjjjjjjjjjjjjjjj         sjj3$$$$$$$$8jju            ujj8$$$$$$$$3jjs   jjjjjjjjjjjjjjjjjjjjjjjjj",
"jjjjjjjjjjjjjjjjjjjjjjjjj   sjjjjjjjjjjjjjju            ujjjjjjjjjjjjjjs   jjjjjjjjjjjjjjjjjjjjjjjjj",
"jjjjjjjjjjjjjjjjjjjjjjjjj   sjjjjjjjjjjjjjju            ujjjjjjjjjjjjjjs   jjjjjjjjjjjjjjjjjjjjjjjjj",
"jjjjjjjjjjjjjjjjjjjjjjjjj   sjjjjjjjjjjjjjju            ujjjjjjjjjjjjjjs   jjjjjjjjjjjjjjjjjjjjjjjjj",
"jjjjjjjjjjjjjjjjjjjjjjjjjjjj                jjjjjjjjjjjj                jjjjjjjjjjjjjjjjjjjjjjjjjjjj",
"jjjjjjjjjjjjjjjjjjjjjjjjjjjj                jjjjjjjjjjjj                jjjjjjjjjjjjjjjjjjjjjjjjjjjj",
"jjjjjjjjjjjjjjjjjjjjjjjjjjjj                jjjjjjjjjjjj                jjjjjjjjjjjjjjjjjjjjjjjjjjjj",
"jjjjjjjjjjjjjjjjjjjjjjjjjjjjjjjjjjjjjjjjjjjjjjjjjjjjjjjjjjjjjjjjjjjjjjjjjjjjjjjjjjjjjjjjjjjjjjjjjjjj",
"jjjjjjjjjjjjjjjjjjjjjjjjjjjjjjjjjjjjjjjjjjjjjjjjjjjjjjjjjjjjjjjjjjjjjjjjjjjjjjjjjjjjjjjjjjjjjjjjjjjj",
"jjjjjjjjjjjjjjjjjjjjjjjjjjjjjjjjjjjjjjjjjjjjjjjjjjjjjjjjjjjjjjjjjjjjjjjjjjjjjjjjjjjjjjjjjjjjjjjjjjjj",
"jjjjjjjjjjjjjjjjjjjjjjjjjjjjjjjjjjjjjjjjjjjjjjjjjjjjjjjjjjjjjjjjjjjjjjjjjjjjjjjjjjjjjjjjjjjjjjjjjjjj",
"jjjjjjjjjjjjjjjjjjjjjjjjjjjjjjjjjjjjjjjjjjjjjjjjjjjjjjjjjjjjjjjjjjjjjjjjjjjjjjjjjjjjjjjjjjjjjjjjjjjj",
"jjjjjjjjjjjjjjjjjjjjjjjjjjjjjjjjjjjjjjjjjjjjjjjjjjjjjjjjjjjjjjjjjjjjjjjjjjjjjjjjjjjjjjjjjjjjjjjjjjjj",
"jjjjjjjjjjjjjjjjjjjjjjjjjjjjjjjjjjjjjjjjjjjjjjjjjjjjjjjjjjjjjjjjjjjjjjjjjjjjjjjjjjjjjjjjjjjjjjjjjjjj",
"jjjjjjjjjjjjjjjjjjjjjjjjjjjjjjjjjjjjjjjjjjjjjjjjjjjjjjjjjjjjjjjjjjjjjjjjjjjjjjjjjjjjjjjjjjjjjjjjjjjj",
"jjjjjjjjjjjjjjjjjjjjjjjjjjjjjjjjjjjjjjjjjjjjjjjjjjjjjjjjjjjjjjjjjjjjjjjjjjjjjjjjjjjjjjjjjjjjjjjjjjjj",
"jjjjjjjjjjjjjjjjjjjjjjjjjjjjjjjjjjjjjjjjjjjjjjjjjjjjjjjjjjjjjjjjjjjjjjjjjjjjjjjjjjjjjjjjjjjjjjjjjjjj",
"jjjjjjjjjjjjjjjjjjjjjjjjjjjjjjjjjjjjjjjjjjjjjjjjjjjjjjjjjjjjjjjjjjjjjjjjjjjjjjjjjjjjjjjjjjjjjjjjjjjj",
"jjjjjjjjjjjjjjjjjjjjjjjjjjjjjjjjjjjjjjjjjjjjjjjjjjjjjjjjjjjjjjjjjjjjjjjjjjjjjjjjjjjjjjjjjjjjjjjjjjjj",
"jjjjjjjjjjjjjjjjjjjjjjjjjjjjjjjjjjjjjjjjjjjjjjjjjjjjjjjjjjjjjjjjjjjjjjjjjjjjjjjjjjjjjjjjjjjjjjjjjjjj",
"jjjjjjjjjjjjjjjjjjjjjjjjjjjjjjjjjjjjjjjjjjjjjjjjjjjjjjjjjjjjjjjjjjjjjjjjjjjjjjjjjjjjjjjjjjjjjjjjjjjj",
"jjjjjjjjjjjjjjjjjjjjjjjjjjjjjjjjjjjjjjjjjjjjjjjjjjjjjjjjjjjjjjjjjjjjjjjjjjjjjjjjjjjjjjjjjjjjjjjjjjjj",
"jjjjjjjjjjjjjjjjjjjjjjjjjjjjjjjjjjjjjjjjjjjjjjjjjjjjjjjjjjjjjjjjjjjjjjjjjjjjjjjjjjjjjjjjjjjjjjjjjjjj",
"jjjjjjjjjjjjjjjjjjjjjjjjjjjjjjjjjjjjjjjjjjjjjjjjjjjjjjjjjjjjjjjjjjjjjjjjjjjjjjjjjjjjjjjjjjjjjjjjjjjj",
"jjjjjjjjjjjjjjjjjjjjjjjjjjjjjjjjjjjjjjjjjjjjjjjjjjjjjjjjjjjjjjjjjjjjjjjjjjjjjjjjjjjjjjjjjjjjjjjjjjjj",
"jjjjjjjjjjjjjjjjjjjjjjjjjjjjjjjjjjjjjjjjjjjjjjjjjjjjjjjjjjjjjjjjjjjjjjjjjjjjjjjjjjjjjjjjjjjjjjjjjjjj",
"jjjjjjjjjjjjjjjjjjjjjjjjjjjjjjjjjjjjjjjjjjjjjjjjjjjjjjjjjjjjjjjjjjjjjjjjjjjjjjjjjjjjjjjjjjjjjjjjjjjj",
"jjjjjjjjjjjjjjjjjjjjjjjjjjjjjjjjjjjjjjjjjjjjjjjjjjjjjjjjjjjjjjjjjjjjjjjjjjjjjjjjjjjjjjjjjjjjjjjjjjjj",
"jjjjjjjjjjjjjjjjjjjjjjjjjjjjjjjjjjjjjjjjjjjjjjjjjjjjjjjjjjjjjjjjjjjjjjjjjjjjjjjjjjjjjjjjjjjjjjjjjjjj"
};
