/* XPM */
static char *hero3[] = {
/* columns rows colors chars-per-pixel */
"100 100 45 1 ",
"  c black",
". c #040404",
"X c #080808",
"o c #0C0C0C",
"O c #101010",
"+ c #141414",
"@ c #1C1C1C",
"# c #1E1E1E",
"$ c #1F1F1F",
"% c #202020",
"& c #242424",
"* c #303030",
"= c gray20",
"- c #373737",
"; c #383838",
": c #3E3E3E",
"> c #404040",
", c #464646",
"< c #484848",
"1 c #505050",
"2 c #545454",
"3 c #585858",
"4 c #606060",
"5 c #646464",
"6 c #686868",
"7 c #707070",
"8 c #747474",
"9 c #808080",
"0 c #878787",
"q c #8F8F8F",
"w c #979797",
"e c #9F9F9F",
"r c #ABABAB",
"t c #AFAFAF",
"y c #BFBFBF",
"u c #C3C3C3",
"i c #CFCFCF",
"p c #D7D7D7",
"a c #DFDFDF",
"s c #E3E3E3",
"d c #E7E7E7",
"f c #EFEFEF",
"g c #F7F7F7",
"h c white",
"j c None",
/* pixels */
"hhhhhhhhhhhhhhhhhhhhhhhhhhhhhhhhhhhhhhhhhhhhhhhhhhhhhhhhhhhhhhhhhhhhhhhhhhhhhhhhhhhhhhhhhhhhhhhhhhhh",
"hhhhhhhhhhhhhhhhhhhhhhhhhhhhhhhhhhhhhhhhhhhhhhhhhhhhhhhhhhhhhhhhhhhhhhhhhhhhhhhhhhhhhhhhhhhhhhhhhhhh",
"hhhhhhhhhhhhhhhhhhhhhhhhhhhhhhhhhhhhhhhhhhhhhhhhhhhhhhhhhhhhhhhhhhhhhhhhhhhhhhhhhhhhhhhhhhhhhhhhhhhh",
"hhhhhhhhhhhhhhhhhhhhhhhhhhhhhhhhhhhhhhhhhhhhhhhhhhhhhhhhhhhhhhhhhhhhhhhhhhhhhhhhhhhhhhhhhhhhhhhhhhhh",
"hhhhhhhhhhhhhhhhhhhhhhhhhhhhhhhhhhhhhhhhhhhhhhhhhhhhhhhhhhhhhhhhhhhhhhhhhhhhhhhhhhhhhhhhhhhhhhhhhhhh",
"hhhhhhhhhhhhhhhhhhhhhhhhhhhhhhhhhhhhhhhhhhhhhhhhhhhhhhhhhhhhhhhhhhhhhhhhhhhhhhhhhhhhhhhhhhhhhhhhhhhh",
"hhhhhhhhhhhhhhhhhhhhhhhhhhhhhhhhhhhhhhhhhhhhhhhhhhhhhhhhhhhhhhhhhhhhhhhhhhhhhhhhhhhhhhhhhhhhhhhhhhhh",
"hhhhhhhhhhhhhhhhhhhhhhhhhhhhhhhhhhhhhhhhhhhhhhhhhhhhhhhhhhhhhhhhhhhhhhhhhhhhhhhhhhhhhhhhhhhhhhhhhhhh",
"hhhhhhhhhhhhhhhhhhhhhhhhhhhhhhhhhhhhhhhhhhhhhhhhhhhhhhhhhhhhhhhhhhhhhhhhhhhhhhhhhhhhhhhhhhhhhhhhhhhh",
"hhhhhhhhhhhhhhhhhhhhhhhhhhhhhhhhhhhhhhhhhhhhhhhhhhhhhhhhhhhhhhhhhhhhhhhhhhhhhhhhhhhhhhhhhhhhhhhhhhhh",
"hhhhhhhhhhhhhhhhhhhhhhhhhhhhhhhhhhhhhhhhhhhhhhhhhhhhhhhhhhhhhhhhhhhhhhhhhhhhhhhhhhhhhhhhhhhhhhhhhhhh",
"hhhhhhhhhhhhhhhhhhhhhhhhhhhhhhhhhhhhhhhhhhhhhhhhhhhhhhhhhhhhhhhhhhhhhhhhhhhhhhhhhhhhhhhhhhhhhhhhhhhh",
"hhhhhhhhhhhhhhhhhhhhhhhhhhhhhhhhhhhhhhhhhhhhhhhhhhhhhhhhhhhhhhhhhhhhhhhhhhhhhhhhhhhhhhhhhhhhhhhhhhhh",
"hhhhhhhhhhhhhhhhhhhhhhhhhhhhhhhhhhhhhhhhhhhhhhhhhhhhhhhhhhhhhhhhhhhhhhhhhhhhhhhhhhhhhhhhhhhhhhhhhhhh",
"hhhhhhhhhhhhhhhhhhhhhhhhhhhhhhhhhhhhhhhhhhhhhhhhhhhhhhhhhhhhhhhhhhhhhhhhhhhhhhhhhhhhhhhhhhhhhhhhhhhh",
"hhhhhhhhhhhhhhhhhhhhhhhhhhhhhhhhhhhhhhhhhhhhhhhhhhhhhhhhhhhhhhhhhhhhhhhhhhhhhhhhhhhhhhhhhhhhhhhhhhhh",
"hhhhhhhhhhhhhhhhhhhhhhhhhhhhhhhhhhhhhhhhhhhhhhh         hhhhhhhhhhhhhhhhhhhhhhhhhhhhhhhhhhhhhhhhhhhh",
"hhhhhhhhhhhhhhhhhhhhhhhhhhhhhhhhhhhhhhhhhhhhhhh         hhhhhhhhhhhhhhhhhhhhhhhhhhhhhhhhhhhhhhhhhhhh",
"hhhhhhhhhhhhhhhhhhhhhhhhhhhhhhhhhhhhhhhhhhhhhhh         hhhhhhhhhhhhhhhhhhhhhhhhhhhhhhhhhhhhhhhhhhhh",
"hhhhhhhhhhhhhhhhhhhhhhhhhhhhhhhhhhhhhh                        hhhh         hhhhhhhhhhhhhhhhhhhhhhhhh",
"hhhhhhhhhhhhhhhhhhhhhhhhhhhhhhhhhhhhhh                        hhhh         hhhhhhhhhhhhhhhhhhhhhhhhh",
"hhhhhhhhhhhhhhhhhhhhhhhhhhhhhhhhhhhhh                          hhh  X%%%%%%hhhhhhhhhhhhhhhhhhhhhhhhh",
"hhhhhhhhhhhhhhhhhhhhhhhhhhhhhhhhhh                                  >hhhhhh   hhhhhhhhhhhhhhhhhhhhhh",
"hhhhhhhhhhhhhhhhhhhhhhhhhhhhhhhhhh                                  >hhhhhh   hhhhhhhhhhhhhhhhhhhhhh",
"hhhhhhhhhhhhhhhhhhhhhhhhhhhhhhhhhh                                  >hhhhhh   hhhhhhhhhhhhhhhhhhhhhh",
"hhhhhhhhhhhhhhhhhhhhhhhhhhhhhhhhhh      4hhhhhhhhh      yhh4           %hhhhhh%  hhhhhhhhhhhhhhhhhhh",
"hhhhhhhhhhhhhhhhhhhhhhhhhhhhhhhhhh      4hhhhhhhhh      yhh4           %hhhhhh%  hhhhhhhhhhhhhhhhhhh",
"hhhhhhhhhhhhhhhhhhhhhhhhhhhhhhhhhh      4hhhhhhhhh      yhh4           %hhhhhh%  hhhhhhhhhhhhhhhhhhh",
"hhhhhhhhhhhhhhhhhhhhhhhhhhhhhhhhhh      4hhhhhhhhhaaaaaaghh4           .%%%hhhsaa:  hhhhhhhhhhhhhhhh",
"hhhhhhhhhhhhhhhhhhhhhhhhhhhhhhhhhh      4hhhhhhhhhhhhhhhhhh4               hhhhhh>  hhhhhhhhhhhhhhhh",
"hhhhhhhhhhhhhhhhhhhhhhhhhhhhhhhhhh      4hhhhhhhhhhhhhhhhhh4               hhhhhh>  hhhhhhhhhhhhhhhh",
"hhhhhhhhhhhhhhhhhhhhhhhhhhhhhhhhhh   4yyphhhhhd>>>>>>dhhhhhpyy4            >>>dhh>  hhhhhhhhhhhhhhhh",
"hhhhhhhhhhhhhhhhhhhhhhhhhhhhhhhhhh   9hhhhhhhha      ahhhhhhhh9               ahh>  hhhhhhhhhhhhhhhh",
"hhhhhhhhhhhhhhhhhhhhhhhhhhhhhhhhhh   9hhhhhhhha      ahhhhhhhh9               ahh>  hhhhhhhhhhhhhhhh",
"hhhhhhhhhhhhhhhhhhhhhhhhhhhhhhhh  8ee9444444442      2444444449ee5            ahh>  hhhhhhhhhhhhhhhh",
"hhhhhhhhhhhhhhhhhhhhhhhhhhhhhhh   ehh9                        9hhe            ahh>  hhhhhhhhhhhhhhhh",
"hhhhhhhhhhhhhhhhhhhhhhhhhhhhhhh   ehh9                        9hhe            ahh>  hhhhhhhhhhhhhhhh",
"hhhhhhhhhhhhhhhhhhhhhhhhhhhhhhh   ehhy991     O999999O     199yhhe            ahh>  hhhhhhhhhhhhhhhh",
"hhhhhhhhhhhhhhhhhhhhhhhhhhhhhhh   ehhhhhe     %hhhhhh%     ehhhhhe            ahh>  hhhhhhhhhhhhhhhh",
"hhhhhhhhhhhhhhhhhhhhhhhhhhhhhhh   ehhhhhe     %hhhhhh%     ehhhhhe            ahh>  hhhhhhhhhhhhhhhh",
"hhhhhhhhhhhhhhhhhhhhhhhhhhhhhhh   5eeihhu444446eeeeee644444uhhiee5            ahh>  hhhhhhhhhhhhhhhh",
"hhhhhhhhhhhhhhhhhhhhhhhhhhhh         9hhhhhhhha      ahhhhhhhh9               ahh>  hhhhhhhhhhhhhhhh",
"hhhhhhhhhhhhhhhhhhhhhhhhhhhh         9hhhhhhhha      ahhhhhhhh9               ahh>  hhhhhhhhhhhhhhhh",
"hhhhhhhhhhhhhhhhhhhhhhhhhhhh         4yyphhfyyt>>>>>>tyyfhhpyy4               ahh>  hhhhhhhhhhhhhhhh",
"hhhhhhhhhhhhh                           4hhy  %hhhhhh%  yhh4                  ahh>  hhhhhhhhhhhhhhhh",
"hhhhhhhhhhhhh                           4hhy  %hhhhhh%  yhh4                  ahh>  hhhhhhhhhhhhhhhh",
"hhhhhhhhhhhhh  o%%%%%%%%%%%%%%%%%%o  O%%8hhy  @aaaaaa@  yhh8%%O  o%%%%%%%%%%%%shh3%%hhhhhhhhhhhhhhhh",
"hhhhhhhhhhhhh  4hhhhhhhhhhhhhhhhhh4  9hhhhhy            yhhhhh9  4hhhhhhhhhhhhhhhhhh4  hhhhhhhhhhhhh",
"hhhhhhhhhhhhh  4hhhhhhhhhhhhhhhhhh4  9hhhhhy            yhhhhh9  4hhhhhhhhhhhhhhhhhh4  hhhhhhhhhhhhh",
"hhhhhhhhhhhhh  4hhhhhhhhhhhhhhhhhh4  9hhhhhy            yhhhhh9  4hhhhhhhhhhhhhhhhhh4  hhhhhhhhhhhhh",
"hhhhhhhhhhhhh  4hhhhhhhhh      yhh4  9hhhhhy            yhhhhh9                        hhhhhhhhhhhhh",
"hhhhhhhhhhhhh  4hhhhhhhhh      yhh4  9hhhhhy            yhhhhh9                        hhhhhhhhhhhhh",
"hhhhhhhhhhhhh  4hhhhhhhhh      yhh4  9hhhhhy            yhhhhh9                        hhhhhhhhhhhhh",
"hhhhhhhhhhhhh  4hhhhhhhhh      yhh4  9hhhhhy            yhhhhh9  2aaaaau   aaaaaa;  hhhhhhhhhhhhhhhh",
"hhhhhhhhhhhhh  4hhhhhhhhh      yhh4  9hhhhhy            yhhhhh9  4hhhhha   hhhhhh>  hhhhhhhhhhhhhhhh",
"hhhhhhhhhhhhh  4hhhhhhhhh      yhh4  9hhhhhy            yhhhhh9  4hhhhha   hhhhhh>  hhhhhhhhhhhhhhhh",
"hhhhhhhhhhhhh  4hhhhhhhhh      yhh4  %>>0hhfyyyyyyyyyyyyfhh0>>%  4hhhhha   hhhhhh>  hhhhhhhhhhhhhhhh",
"hhhhhhhhhhhhh  4hhhhhhhhh      yhh4     4hhhhhhhhhhhhhhhhhh4     4hhhhha   hhhhhh>  hhhhhhhhhhhhhhhh",
"hhhhhhhhhhhhh  4hhhhhhhhh      yhh4     4hhhhhhhhhhhhhhhhhh4     4hhhhha   hhhhhh>  hhhhhhhhhhhhhhhh",
"hhhhhhhhhhhhh  4hhhhhhhhh      yhh4     &444444444444444444&     &444442   hhhhhh>  hhhhhhhhhhhhhhhh",
"hhhhhhhhhhhhh  4hhhhhhhhh      yhh4                                        hhhhhh>  hhhhhhhhhhhhhhhh",
"hhhhhhhhhhhhh  4hhhhhhhhh      yhh4                                        hhhhhh>  hhhhhhhhhhhhhhhh",
"hhhhhhhhhhhhhhh,99ehhhhhh   799999*                                    O999hhhw99*hhhhhhhhhhhhhhhhhh",
"hhhhhhhhhhhhhhhh  >hhhhhh   ahh>                                       %hhhhhh@  hhhhhhhhhhhhhhhhhhh",
"hhhhhhhhhhhhhhhh  >hhhhhh   ahh>                                       %hhhhhh%  hhhhhhhhhhhhhhhhhhh",
"hhhhhhhhhhhhhhhh  -eethhh344wee744&                              &44<  +eeeeee@  hhhhhhhhhhhhhhhhhhh",
"hhhhhhhhhhhhhhhhhhh  %hhhhhh%  yhh4                              4hhy         hhhhhhhhhhhhhhhhhhhhhh",
"hhhhhhhhhhhhhhhhhhh  @hhhhhh%  yhh4                              4hhy         hhhhhhhhhhhhhhhhhhhhhh",
"hhhhhhhhhhhhhhhhhhh  @uyyyyy1>>eyy<                              <yye>>;      hhhhhhhhhhhhhhhhhhhhhh",
"hhhhhhhhhhhhhhhhhhhhhh      ahh>                                    >hha   hhhhhhhhhhhhhhhhhhhhhhhhh",
"hhhhhhhhhhhhhhhhhhhhhh      ahh>                                    >hha   hhhhhhhhhhhhhhhhhhhhhhhhh",
"hhhhhhhhhhhhhhhhhhhhhh      ahh3%%%%%%%%+                  +%%%%%%%%3hha   hhhhhhhhhhhhhhhhhhhhhhhhh",
"hhhhhhhhhhhhhhhhhhhhhhhhh   ahhhhhhhhhhhe                  ehhhhhhhhhhha   hhhhhhhhhhhhhhhhhhhhhhhhh",
"hhhhhhhhhhhhhhhhhhhhhhhhh   ahhhhhhhhhhhe                  ehhhhhhhhhhha   hhhhhhhhhhhhhhhhhhhhhhhhh",
"hhhhhhhhhhhhhhhhhhhhhhhhh   ahhhhhhhhhhhe                  ehhhhhhhhhhha   hhhhhhhhhhhhhhhhhhhhhhhhh",
"hhhhhhhhhhhhhhhhhhhhhhhhhhhh                                            hhhhhhhhhhhhhhhhhhhhhhhhhhhh",
"hhhhhhhhhhhhhhhhhhhhhhhhhhhh                                            hhhhhhhhhhhhhhhhhhhhhhhhhhhh",
"hhhhhhhhhhhhhhhhhhhhhhhhhhhh                                            hhhhhhhhhhhhhhhhhhhhhhhhhhhh",
"hhhhhhhhhhhhhhhhhhhhhhhhhhhhhhhhhhhhhhhhhhhhhhhhhhhhhhhhhhhhhhhhhhhhhhhhhhhhhhhhhhhhhhhhhhhhhhhhhhhh",
"hhhhhhhhhhhhhhhhhhhhhhhhhhhhhhhhhhhhhhhhhhhhhhhhhhhhhhhhhhhhhhhhhhhhhhhhhhhhhhhhhhhhhhhhhhhhhhhhhhhh",
"hhhhhhhhhhhhhhhhhhhhhhhhhhhhhhhhhhhhhhhhhhhhhhhhhhhhhhhhhhhhhhhhhhhhhhhhhhhhhhhhhhhhhhhhhhhhhhhhhhhh",
"hhhhhhhhhhhhhhhhhhhhhhhhhhhhhhhhhhhhhhhhhhhhhhhhhhhhhhhhhhhhhhhhhhhhhhhhhhhhhhhhhhhhhhhhhhhhhhhhhhhh",
"hhhhhhhhhhhhhhhhhhhhhhhhhhhhhhhhhhhhhhhhhhhhhhhhhhhhhhhhhhhhhhhhhhhhhhhhhhhhhhhhhhhhhhhhhhhhhhhhhhhh",
"hhhhhhhhhhhhhhhhhhhhhhhhhhhhhhhhhhhhhhhhhhhhhhhhhhhhhhhhhhhhhhhhhhhhhhhhhhhhhhhhhhhhhhhhhhhhhhhhhhhh",
"hhhhhhhhhhhhhhhhhhhhhhhhhhhhhhhhhhhhhhhhhhhhhhhhhhhhhhhhhhhhhhhhhhhhhhhhhhhhhhhhhhhhhhhhhhhhhhhhhhhh",
"hhhhhhhhhhhhhhhhhhhhhhhhhhhhhhhhhhhhhhhhhhhhhhhhhhhhhhhhhhhhhhhhhhhhhhhhhhhhhhhhhhhhhhhhhhhhhhhhhhhh",
"hhhhhhhhhhhhhhhhhhhhhhhhhhhhhhhhhhhhhhhhhhhhhhhhhhhhhhhhhhhhhhhhhhhhhhhhhhhhhhhhhhhhhhhhhhhhhhhhhhhh",
"hhhhhhhhhhhhhhhhhhhhhhhhhhhhhhhhhhhhhhhhhhhhhhhhhhhhhhhhhhhhhhhhhhhhhhhhhhhhhhhhhhhhhhhhhhhhhhhhhhhh",
"hhhhhhhhhhhhhhhhhhhhhhhhhhhhhhhhhhhhhhhhhhhhhhhhhhhhhhhhhhhhhhhhhhhhhhhhhhhhhhhhhhhhhhhhhhhhhhhhhhhh",
"hhhhhhhhhhhhhhhhhhhhhhhhhhhhhhhhhhhhhhhhhhhhhhhhhhhhhhhhhhhhhhhhhhhhhhhhhhhhhhhhhhhhhhhhhhhhhhhhhhhh",
"hhhhhhhhhhhhhhhhhhhhhhhhhhhhhhhhhhhhhhhhhhhhhhhhhhhhhhhhhhhhhhhhhhhhhhhhhhhhhhhhhhhhhhhhhhhhhhhhhhhh",
"hhhhhhhhhhhhhhhhhhhhhhhhhhhhhhhhhhhhhhhhhhhhhhhhhhhhhhhhhhhhhhhhhhhhhhhhhhhhhhhhhhhhhhhhhhhhhhhhhhhh",
"hhhhhhhhhhhhhhhhhhhhhhhhhhhhhhhhhhhhhhhhhhhhhhhhhhhhhhhhhhhhhhhhhhhhhhhhhhhhhhhhhhhhhhhhhhhhhhhhhhhh",
"hhhhhhhhhhhhhhhhhhhhhhhhhhhhhhhhhhhhhhhhhhhhhhhhhhhhhhhhhhhhhhhhhhhhhhhhhhhhhhhhhhhhhhhhhhhhhhhhhhhh",
"hhhhhhhhhhhhhhhhhhhhhhhhhhhhhhhhhhhhhhhhhhhhhhhhhhhhhhhhhhhhhhhhhhhhhhhhhhhhhhhhhhhhhhhhhhhhhhhhhhhh",
"hhhhhhhhhhhhhhhhhhhhhhhhhhhhhhhhhhhhhhhhhhhhhhhhhhhhhhhhhhhhhhhhhhhhhhhhhhhhhhhhhhhhhhhhhhhhhhhhhhhh",
"hhhhhhhhhhhhhhhhhhhhhhhhhhhhhhhhhhhhhhhhhhhhhhhhhhhhhhhhhhhhhhhhhhhhhhhhhhhhhhhhhhhhhhhhhhhhhhhhhhhh",
"hhhhhhhhhhhhhhhhhhhhhhhhhhhhhhhhhhhhhhhhhhhhhhhhhhhhhhhhhhhhhhhhhhhhhhhhhhhhhhhhhhhhhhhhhhhhhhhhhhhh",
"hhhhhhhhhhhhhhhhhhhhhhhhhhhhhhhhhhhhhhhhhhhhhhhhhhhhhhhhhhhhhhhhhhhhhhhhhhhhhhhhhhhhhhhhhhhhhhhhhhhh",
"hhhhhhhhhhhhhhhhhhhhhhhhhhhhhhhhhhhhhhhhhhhhhhhhhhhhhhhhhhhhhhhhhhhhhhhhhhhhhhhhhhhhhhhhhhhhhhhhhhhh"
};
