/* XPM */
static char *interior_walls[] = {
/* columns rows colors chars-per-pixel */
"100 100 20 1 ",
"  c black",
". c #202020",
"X c #282828",
"o c #303030",
"O c #3C3C3C",
"+ c gray25",
"@ c #606060",
"# c #646464",
"$ c #707070",
"% c #787878",
"& c #808080",
"* c #989898",
"= c #A0A0A0",
"- c #C0C0C0",
"; c #CFCFCF",
": c #D7D7D7",
"> c #DBDBDB",
", c #DFDFDF",
"< c gray97",
"1 c white",
/* pixels */
"                                                                                                    ",
"                                                                                                    ",
"                                                                                                    ",
"                                                                                                    ",
"                                                                                                    ",
"                                                                                                    ",
"                                                                                                    ",
"                                                                                                    ",
"                                                                                                    ",
"         #=====#                                                                    #=====#         ",
"         =11111=                                                                    =11111=         ",
"         =11111=                                                                    *11111=         ",
"         =11111;&&&&&$   &&&&%&&&%&%&&&%&&&%&&&%&&&&&%&&&&%&&&&&&%&&&&%&&%&   $&&&&%:11111=         ",
"         =11111111111,   11111111111111111111111111111111111111111111111111   ,11111111111=         ",
"         =11111111111,   11111111111111111111111111111111111111111111111111   ,11111111111=         ",
"         #==;11>====**@@@11111111111111111111111111111111111111111111111111@@@*=====>11;==#         ",
"            &11=     .11111111111111111111111111111111111111111111111111111111.     =11&            ",
"            &11=     .11111111111111111111111111111111111111111111111111111111.     =11&            ",
"            &11=     .111111111111:------------------------------:111111111111.     =11&            ",
"            %11=     .111111111111@                              @111111111111.     =11&            ",
"            &11=     .111111111111@                              @111111111111.     =11&            ",
"            $,,*.....O111,,,,,,<11@                              @11<,,,,,,111O.....*,,$            ",
"               @111111111      -11@                              @11-      111111111@               ",
"               @111111111      -11@                              @11-      111111111#               ",
"               @111111111      -11@                              @11-      111111111@               ",
"            &11111111,            =11&                        &11=            ,11111111&            ",
"            %11111111,            =11%                        %11=            ,11111111%            ",
"            &11111111,            =11&                        &11=            ,11111111&            ",
"            &11111111,            =11&                        &11=            ,11111111&            ",
"            %11111111,            =11&                        &11=            ,11111111%            ",
"            &11111111,            =11&                        &11=            ,11111111&            ",
"            &11111111<---         X++&--%                  %--&++X         ---<11111111&            ",
"            &111111111111            &11=                  =11&            111111111111&            ",
"            %111111111111            &11=                  *11&            111111111111%            ",
"            &11111:@@@#@@======X     o@@%*=%            %==%@@o     X======@@@@@@:11111&            ",
"            &11111-      111111+        @11-            -11@        +111111      -11111&            ",
"            &11111-      111111+        @11-            -11@        +111111      -11111&            ",
"            &11111-      &&%&&&&&&o     o&&&&%&&&&&&%&&&&&&o     o&&&&&&%&&      -11111%            ",
"            %11111-            -11@        +111111111111+        @11-            -11111&            ",
"            &11111-            -11@        +111111111111+        @11-            -11111&            ",
"            &11111-            %*=%#@o     X============X     o@@%==%            -11111%            ",
"            &11111-               =11&                        &11=               -11111&            ",
"            &11111-               =11&                        &11=               -11111&            ",
"            &11111-               %--&++X                  X++&--%               -11111&            ",
"            &11111-                  &11=                  =11&                  -11111&            ",
"            %11111-                  &11=                  =11&                  -11111&            ",
"            &11111-                  &11=                  =11%                  -11111%            ",
"            &11111-                  &11=                  =11&                  -11111&            ",
"            &11111-                  %11=                  =11&                  -11111&            ",
"            &11111-                  &11=                  =11&                  -11111&            ",
"            &11111-                  &11=                  =11%                  -11111&            ",
"            %11111-                  &11=                  =11&                  -11111&            ",
"            &11111-                  &11=                  =11&                  -11111%            ",
"            &11111-                  %11=                  =11&                  -11111&            ",
"            &11111-                  &11=                  =11%                  -11111&            ",
"            %11111-                  &11=                  =11&                  -11111&            ",
"            &11111-               %--&++X                  X++&--%               -11111&            ",
"            &11111-               =11&                        &11=               -11111%            ",
"            &11111-               =11&                        &11*               -11111&            ",
"            %11111-            %==%@@o     X============X     o@@%==%            -11111&            ",
"            &11111-            -11@        +111111111111+        @11-            -11111&            ",
"            &11111-            -11@        +111111111111+        @11-            -11111%            ",
"            &11111-      &&&&&&&&&o     o&&&&&&&&&&%&&&&&&&o     o&&&&&&%&&      -11111&            ",
"            %11111-      111111+        @11-            -11@        +111111      -11111&            ",
"            &11111-      111111+        @11-            -11@        +111111      -11111%            ",
"            &11111:@@@@@@======X     o@@%*=%            %==%@@o     X======@@@@@@:11111&            ",
"            &111111111111            &11=                  =11%            111111111111&            ",
"            &111111111111            &11=                  =11&            111111111111&            ",
"            &11111111<---         X++&--%                  %--&++X         ---<11111111&            ",
"            %11111111,            =11&                        &11=            ,11111111&            ",
"            &11111111,            =11&                        &11=            ,11111111%            ",
"            &11111111,            =11&                        &11=            ,11111111&            ",
"            &11111111,            =11&                        &11=            ,11111111&            ",
"            &11111111,            =11%                        &11=            ,11111111&            ",
"            &11111111,            =11&                        &11=            ,11111111&            ",
"               @111111111      -11@                              @11-      111111111@               ",
"               @111111111      -11@                              @11-      111111111@               ",
"               @111111111      -11@                              @11-      111111111@               ",
"            %,,*.....O111,,,,,,<11@                              @11<,,,,,,111O.....*,,%            ",
"            %11=     .111111111111@                              @111111111111.     *11&            ",
"            &11=     .111111111111@                              @111111111111.     =11&            ",
"            %11=     .111111111111:------------------------------:111111111111.     =11&            ",
"            &11=     .11111111111111111111111111111111111111111111111111111111.     =11%            ",
"            &11=     .11111111111111111111111111111111111111111111111111111111.     =11&            ",
"         #==;11>=====*@@@11111111111111111111111111111111111111111111111111@@@*=====>11;==#         ",
"         =11111111111,   11111111111111111111111111111111111111111111111111   ,11111111111=         ",
"         =11111111111,   11111111111111111111111111111111111111111111111111   ,11111111111=         ",
"         =11111;&%&&&$   &&&&&%&&&&&%&&&&%&&&%&&&&%&&&&&&&%&&%&&&&%&&&&&&%&   $&&%&&;11111=         ",
"         =11111=                                                                    =11111=         ",
"         =11111=                                                                    =11111=         ",
"         #=====#                                                                    #=====#         ",
"                                                                                                    ",
"                                                                                                    ",
"                                                                                                    ",
"                                                                                                    ",
"                                                                                                    ",
"                                                                                                    ",
"                                                                                                    ",
"                                                                                                    ",
"                                                                                                    "
};
