/* XPM */
static char *Key_outline2[] = {
/* columns rows colors chars-per-pixel */
"100 100 25 1 ",
"  c black",
". c #0E0E0E",
"X c #151515",
"o c #1C1C1C",
"O c #232323",
"+ c #2A2A2A",
"@ c #2B2B2B",
"# c #474747",
"$ c #555555",
"% c #7F7F7F",
"& c #808080",
"* c #8E8E8E",
"= c #AAAAAA",
"- c #B1B1B1",
"; c #B6B6B6",
": c #B8B8B8",
"> c #BFBFBF",
", c #C6C6C6",
"< c #D4D4D4",
"1 c #D5D5D5",
"2 c #D8D8D8",
"3 c #DCDCDC",
"4 c #E3E3E3",
"5 c white",
"6 c None",
/* pixels */
"6666666666666666666666666666666666666666666666666666666666666666666666666666666666666666666666666666",
"6666666666666666666666666666666666666666666666666666666666666666666666666666666666666666666666666666",
"6666666666666666666666666666666666666666666666666666666666666666666666666666666666666666666666666666",
"6666666666666666666666666666666666666666666666666666666666666666666666666666666666666666666666666666",
"6666666666666666666666666666666666666666666666666666666666666666666666666666666666666666666666666666",
"6666666666666666666666666666666666666666666666666666666666666666666666666666666666666666666666666666",
"6666666666666666666666666666666666666666666666666666666666666666666666666666666666666666666666666666",
"6666666666666666666666666666666666666666666666666666666666666666666666666666666666666666666666666666",
"6666666666666666666666666666666666666666666666666666666666666666666666666666666666666666666666666666",
"6666666666666666666666666666666666666666666666666666666666666666666666666666666666666666666666666666",
"6666666666666666666666666666666666666666666666666666666666666666666666666666666666666666666666666666",
"6666666666666666666666666666666666666666666666666666666666666666666666666666666666666666666666666666",
"6666666666666666666666666666666666666666666666666666666666666666666666666666666666666666666666666666",
"6666666666666666666666666666666666666666666666666666666666666666666666666666666666666666666666666666",
"6666666666666666666666666666666666666666666666666666666666666666666666666666666666666666666666666666",
"6666666666666666666666666666666666666666666666666666666666666666666666666666666666666666666666666666",
"6666666666666666666666666666666666666666666666666666666666666666666666666666666666666666666666666666",
"6666666666666666666666666666666666666666666666666666666666666666666666666666666666666666666666666666",
"6666666666666666666666666666666666666666666666666666666666666666666666666666666666666666666666666666",
"6666666666666666666666666666666666666666666666666666666666666666666666666666666666666666666666666666",
"6666666666666666666666666666666666666666666666666666666666666666666666666666666666666666666666666666",
"6666666666666666666666666666666666666666666666666666666666666666666666666666666666666666666666666666",
"6666666666666666666666666666666666666666666666666666666666666666666666666666666666666666666666666666",
"6666666666666666666666666666666666666666666666666666666666666666666666666666666666666666666666666666",
"6666666666666666666666666666666666666666666666666666666666666666666666666666666666666666666666666666",
"6666666666666666666666666666666666666666666666666666666666666666666666666666666666666666666666666666",
"6666666666666666666666666666666666666666666666666666666666666666666666666666666666666666666666666666",
"6666666666666666666666666666666666666666666666666666666666666666666666666666666666666666666666666666",
"6666666666666666666666666666666666666666666666666666666666666666666666666666666666666666666666666666",
"6666666666666666655555555555555555555555555555555555556666666666666666666666666666666666666666666666",
"6666666666666666655555555555555555555555555555555555556666666666666666666666666666666666666666666666",
"6666666666666666655555555555555555555555555555555555556666666666666666666666666666666666666666666666",
"6666666666666666655555555555555555555555555555555555556666666666666666666666666666666666666666666666",
"6666666666666555;$$$$$$$$$$$$$$$$$$$$$$$$$$$$$$$$$$$$$2555666666666555555555555555566666666666666666",
"6666666666666555=                                     1555666666666555555555555555566666666666666666",
"6666666666666555=                                     1555666666666555555555555555566666666666666666",
"6666666666666555=                                     1555666666666555555555555555566666666666666666",
"6666666666666555=   X%%%%%%%%%%%%%%%%%%%%%%%%%%%%%    155566666666>&&&&&&&&&&&&&&&&>6666666666666666",
"6666666666666555=   @55555555555555555555555555555    155566666555=                =5555666666666666",
"6666666666666555=   @55555555555555555555555555555    155566666555=                =5555666666666666",
"6666666666666555=   @55555555555555555555555555555    155566666555=                =5555666666666666",
"6666666666666555=   @55555555555555555555555555555    155556665555=   .$$$$$$$$.   =5555666666666666",
"6666666666666555=   @55555555555555555555555555555    155555555555=   @55555555@   =5555666666666666",
"6666666666666555=   @55555555555555555555555555555    155555555555=   @55555555@   =5555666666666666",
"6666666666666555=   @55555555555555555555555555555    155555555555=   @55555555@   =5555666666666666",
"6666666666666555=   @55555555311111111111455555555    -11111111111*   O11115555@   =5555666666666666",
"6666666666666555=   @55555555@           $55555555                         5555@   =5555666666666666",
"6666666666666555=   @55555555@           $55555555                         5555@   =5555666666666666",
"6666666666666555=   @55555555@           $55555555                         5555@   =5555666666666666",
"6666666666666555=   @55555555@           $55555555                         5555@   =5555666666666666",
"6666666666666555=   @55555555@           $5555555555555555555555555555555555555@   =5555666666666666",
"6666666666666555=   @55555555@           $5555555555555555555555555555555555555@   =5555666666666666",
"6666666666666555=   @55555555@           $5555555555555555555555555555555555555@   =5555666666666666",
"6666666666666555=   @55555555@           $5555555555555555555555555555555555555@   =5555666666666666",
"6666666666666555=   @55555555@           $55555555@@@@3555555555555555555555555@   =5555666666666666",
"6666666666666555=   @55555555@           $55555555    1555555555555555555555555@   =5555666666666666",
"6666666666666555=   @55555555@           $55555555    1555555555555555555555555@   =5555666666666666",
"6666666666666555=   @55555555@           $55555555    1555555555555555555555555@   =5555666666666666",
"6666666666666555=   @55555555:===========,55555555    #$$$$$$$$$$$$$$$$$$$$$$$$.   =5555666666666666",
"6666666666666555=   @55555555555555555555555555555                                 =5555666666666666",
"6666666666666555=   @55555555555555555555555555555                                 =5555666666666666",
"6666666666666555=   @55555555555555555555555555555                                 =5555666666666666",
"6666666666666555=   @55555555555555555555555555555                                 =5555666666666666",
"6666666666666555=   @55555555555555555555555555555                                 =5555666666666666",
"6666666666666555=   @55555555555555555555555555555                                 =5555666666666666",
"6666666666666555=   @55555555555555555555555555555                                 =5555666666666666",
"6666666666666555=   o=============================    #$$$$$$$$$$$$$$$$$$$$$$$$$$$$;5556666666666666",
"6666666666666555=                                     1555555555555555555555555555566666666666666666",
"6666666666666555=                                     1555555555555555555555555555566666666666666666",
"6666666666666555=                                     1555555555555555555555555555566666666666666666",
"6666666666666555=                                     1555555555555555555555555555566666666666666666",
"6666666666666555=                                     1555666666666666666666666666666666666666666666",
"6666666666666555=                                     1555666666666666666666666666666666666666666666",
"6666666666666555=                                     1555666666666666666666666666666666666666666666",
"6666666666666555=                                     1555666666666666666666666666666666666666666666",
"6666666666666666655555555555555555555555555555555555556666666666666666666666666666666666666666666666",
"6666666666666666655555555555555555555555555555555555556666666666666666666666666666666666666666666666",
"6666666666666666655555555555555555555555555555555555556666666666666666666666666666666666666666666666",
"6666666666666666655555555555555555555555555555555555556666666666666666666666666666666666666666666666",
"6666666666666666666666666666666666666666666666666666666666666666666666666666666666666666666666666666",
"6666666666666666666666666666666666666666666666666666666666666666666666666666666666666666666666666666",
"6666666666666666666666666666666666666666666666666666666666666666666666666666666666666666666666666666",
"6666666666666666666666666666666666666666666666666666666666666666666666666666666666666666666666666666",
"6666666666666666666666666666666666666666666666666666666666666666666666666666666666666666666666666666",
"6666666666666666666666666666666666666666666666666666666666666666666666666666666666666666666666666666",
"6666666666666666666666666666666666666666666666666666666666666666666666666666666666666666666666666666",
"6666666666666666666666666666666666666666666666666666666666666666666666666666666666666666666666666666",
"6666666666666666666666666666666666666666666666666666666666666666666666666666666666666666666666666666",
"6666666666666666666666666666666666666666666666666666666666666666666666666666666666666666666666666666",
"6666666666666666666666666666666666666666666666666666666666666666666666666666666666666666666666666666",
"6666666666666666666666666666666666666666666666666666666666666666666666666666666666666666666666666666",
"6666666666666666666666666666666666666666666666666666666666666666666666666666666666666666666666666666",
"6666666666666666666666666666666666666666666666666666666666666666666666666666666666666666666666666666",
"6666666666666666666666666666666666666666666666666666666666666666666666666666666666666666666666666666",
"6666666666666666666666666666666666666666666666666666666666666666666666666666666666666666666666666666",
"6666666666666666666666666666666666666666666666666666666666666666666666666666666666666666666666666666",
"6666666666666666666666666666666666666666666666666666666666666666666666666666666666666666666666666666",
"6666666666666666666666666666666666666666666666666666666666666666666666666666666666666666666666666666",
"6666666666666666666666666666666666666666666666666666666666666666666666666666666666666666666666666666",
"6666666666666666666666666666666666666666666666666666666666666666666666666666666666666666666666666666"
};
