/* XPM */
static char *Key_outline3[] = {
/* columns rows colors chars-per-pixel */
"100 100 21 1 ",
"  c black",
". c #0E0E0E",
"X c #151515",
"o c #232323",
"O c #2A2A2A",
"+ c #2B2B2B",
"@ c #4E4E4E",
"# c #555555",
"$ c #6A6A6A",
"% c #717171",
"& c #7F7F7F",
"* c #808080",
"= c #8E8E8E",
"- c #AAAAAA",
"; c #B8B8B8",
": c #D4D4D4",
"> c #D5D5D5",
", c #D6D6D6",
"< c #DBDBDB",
"1 c white",
"2 c None",
/* pixels */
"2222222222222222222222222222222222222222222222222222222222222222222222222222222222222222222222222222",
"2222222222222222222222222222222222222222222222222222222222222222222222222222222222222222222222222222",
"2222222222222222222222222222222222222222222222222222222222222222222222222222222222222222222222222222",
"2222222222222222222222222222222222222222222222222222222222222222222222222222222222222222222222222222",
"2222222222222222222222222222222222222222222222222222222222222222222222222222222222222222222222222222",
"2222222222222222222222222222222222222222222222222222222222222222222222222222222222222222222222222222",
"2222222222222222222222222222222222222222222222222222222222222222222222222222222222222222222222222222",
"2222222222222222222222222222222222222222222222222222222222222222222222222222222222222222222222222222",
"2222222222222222222222222222222222222222222222222222222222222222222222222222222222222222222222222222",
"2222222222222222222222222222222222222222222222222222222222222222222222222222222222222222222222222222",
"2222222222222222222222222222222222222222222222222222222222222222222222222222222222222222222222222222",
"2222222222222222222222222222222222222222222222222222222222222222222222222222222222222222222222222222",
"2222222222222222222222222222222222222222222222222222222222222222222222222222222222222222222222222222",
"2222222222222222222222222222222222222222222222222222222222222222222222222222222222222222222222222222",
"2222222222222222222222222222222222222222222222222222222222222222222222222222222222222222222222222222",
"2222222222222222222222222222222222222222222222222222222222222222222222222222222222222222222222222222",
"2222222222222222222222222222222222222222222222222222222222222222222222222222222222222222222222222222",
"2222222222222222222222222222222222222222222222222222222222222222222222222222222222222222222222222222",
"2222222222222222222222222222222222222222222222222222222222222222222222222222222222222222222222222222",
"2222222222222222222222222222222222222222222222222222222222222222222222222222222222222222222222222222",
"2222222222222222222222222222222222222222222222222222222222222222222222222222222222222222222222222222",
"2222222222222222222222222222222222222222222222222222222222222222222222222222222222222222222222222222",
"2222222222222222222222222222222222222222222222222222222222222222222222222222222222222222222222222222",
"2222222222222222222222222222222222222222222222222222222222222222222222222222222222222222222222222222",
"2222222222222222222222222222222222222222222222222222222222222222222222222222222222222222222222222222",
"2222222222222222222222222222222222222222222222222222222222222222222222222222222222222222222222222222",
"2222222222222222222222222222222222222222222222222222222222222222222222222222222222222222222222222222",
"2222222222222222222222222222222222222222222222222222222222222222222222222222222222222222222222222222",
"2222222222222222222222222222222222222222222222222222222222222222222222222222222222222222222222222222",
"2222222222222222222222222222222222222222222222222222222222222222222222222222222222222222222222222222",
"2222222222222222222222222222222222222222222222222222222222222222222222222222222222222222222222222222",
"2222222222222222222222222222222222222222222222222222222222222222222222222222222222222222222222222222",
"2222222222222222222222222222222222222222222222222222222222222222222222222222222222222222222222222222",
"2222222222222222222222222222222222222222222222222222222222222222222222222222222222222222222222222222",
"2222222222222222222222222222222222222222222222222222222222222222222222222222222222222222222222222222",
"2222222222222222222222222222222222222222222222222222222222222222222222222222222222222222222222222222",
"2222222222222222222222222222222222222222222222222222222222222222222222222222222222222222222222222222",
"2222222222222222222222222222222222222222222222222222222222222222222222222222222222222222222222222222",
"2222222222222222222221111111111111111111111111111111112222222222222222222222222222222222222222222222",
"2222222222222222222221111111111111111111111111111111112222222222222222222222222222222222222222222222",
"2222222222222222222221111111111111111111111111111111112222222222222222222222222222222222222222222222",
"222222222222222222222---------------------------------2222222222222222222222222222222222222222222222",
"22222222222222222111>                                 >111222221111111111111111222222222222222222222",
"22222222222222222111>                                 >111222221111111111111111222222222222222222222",
"22222222222222222111>                                 >111222221111111111111111222222222222222222222",
"22222222222222222111>    OOOOOOOOOOOOOOOOOOOOOOOOO    >1112222<>>>>>>>>>>>>>>>>222222222222222222222",
"22222222222222222111>    1111111111111111111111111    >1111111*                >11122222222222222222",
"22222222222222222111>    1111111111111111111111111    >1111111*                >11122222222222222222",
"22222222222222222111>    1111111111111111111111111    >1111111&                >11122222222222222222",
"22222222222222222111>    1111111111111111111111111    >1111111*                >11122222222222222222",
"22222222222222222111>    1111111111111111111111111    >1111111*   #11111111    >11122222222222222222",
"22222222222222222111>    1111111111111111111111111    >1111111*   #11111111    >11122222222222222222",
"22222222222222222111>    1111111111111111111111111    >1111111*   #11111111    >11122222222222222222",
"22222222222222222111>    1111111111111111111111111    >1111111*   #11111111    >11122222222222222222",
"22222222222222222111>    11111111%OOOOOOO%11111111    oOOOOOOOX   .OOO@1111    >11122222222222222222",
"22222222222222222111>    11111111#       #11111111                    O1111    >11122222222222222222",
"22222222222222222111>    11111111#       #11111111                    O1111    >11122222222222222222",
"22222222222222222111>    11111111#       #11111111                    O1111    >11122222222222222222",
"22222222222222222111>    11111111#       #11111111    =---------------;1111    >11122222222222222222",
"22222222222222222111>    11111111#       #11111111    >11111111111111111111    >11122222222222222222",
"22222222222222222111>    11111111#       #11111111    >11111111111111111111    >11122222222222222222",
"22222222222222222111>    11111111#       #11111111    >11111111111111111111    >11122222222222222222",
"22222222222222222111>    11111111-&&&&&&&-11111111    $********************    >11122222222222222222",
"22222222222222222111>    1111111111111111111111111                             >11122222222222222222",
"22222222222222222111>    1111111111111111111111111                             >11122222222222222222",
"22222222222222222111>    1111111111111111111111111                             >11122222222222222222",
"22222222222222222111>    1111111111111111111111111                             >11122222222222222222",
"22222222222222222111>    1111111111111111111111111                             >11122222222222222222",
"22222222222222222111>    1111111111111111111111111                             >11122222222222222222",
"22222222222222222111>    1111111111111111111111111                             >11122222222222222222",
"22222222222222222111>    >>>>>>>>>>>>>>>>>>>>>>>>>    oOOOOOOOOOOOOOOOOOOOOOOOO>11122222222222222222",
"22222222222222222111>                                 >111111111111111111111111222222222222222222222",
"22222222222222222111>                                 >111111111111111111111111222222222222222222222",
"22222222222222222111>                                 >111111111111111111111111222222222222222222222",
"22222222222222222111>                                 >111111111111111111111111222222222222222222222",
"22222222222222222111>                                 >111222222222222222222222222222222222222222222",
"22222222222222222111>                                 >111222222222222222222222222222222222222222222",
"22222222222222222111>                                 >111222222222222222222222222222222222222222222",
"22222222222222222111>                                 >111222222222222222222222222222222222222222222",
"222222222222222222222>>>>>>>>>>>>>>>>>>>>>>>>>>>>>>>>>2222222222222222222222222222222222222222222222",
"2222222222222222222221111111111111111111111111111111112222222222222222222222222222222222222222222222",
"2222222222222222222221111111111111111111111111111111112222222222222222222222222222222222222222222222",
"2222222222222222222221111111111111111111111111111111112222222222222222222222222222222222222222222222",
"2222222222222222222222222222222222222222222222222222222222222222222222222222222222222222222222222222",
"2222222222222222222222222222222222222222222222222222222222222222222222222222222222222222222222222222",
"2222222222222222222222222222222222222222222222222222222222222222222222222222222222222222222222222222",
"2222222222222222222222222222222222222222222222222222222222222222222222222222222222222222222222222222",
"2222222222222222222222222222222222222222222222222222222222222222222222222222222222222222222222222222",
"2222222222222222222222222222222222222222222222222222222222222222222222222222222222222222222222222222",
"2222222222222222222222222222222222222222222222222222222222222222222222222222222222222222222222222222",
"2222222222222222222222222222222222222222222222222222222222222222222222222222222222222222222222222222",
"2222222222222222222222222222222222222222222222222222222222222222222222222222222222222222222222222222",
"2222222222222222222222222222222222222222222222222222222222222222222222222222222222222222222222222222",
"2222222222222222222222222222222222222222222222222222222222222222222222222222222222222222222222222222",
"2222222222222222222222222222222222222222222222222222222222222222222222222222222222222222222222222222",
"2222222222222222222222222222222222222222222222222222222222222222222222222222222222222222222222222222",
"2222222222222222222222222222222222222222222222222222222222222222222222222222222222222222222222222222",
"2222222222222222222222222222222222222222222222222222222222222222222222222222222222222222222222222222",
"2222222222222222222222222222222222222222222222222222222222222222222222222222222222222222222222222222",
"2222222222222222222222222222222222222222222222222222222222222222222222222222222222222222222222222222"
};
