/* XPM */
static char *Key_outline4[] = {
/* columns rows colors chars-per-pixel */
"100 100 20 1 ",
"  c black",
". c #1C1C1C",
"X c #2A2A2A",
"o c #2B2B2B",
"O c #474747",
"+ c #555555",
"@ c #6A6A6A",
"# c #7F7F7F",
"$ c #808080",
"% c #AAAAAA",
"& c #B1B1B1",
"* c #C6C6C6",
"= c #D4D4D4",
"- c #D5D5D5",
"; c #D8D8D8",
": c #DBDBDB",
"> c #DCDCDC",
", c #E3E3E3",
"< c white",
"1 c None",
/* pixels */
"1111111111111111111111111111111111111111111111111111111111111111111111111111111111111111111111111111",
"1111111111111111111111111111111111111111111111111111111111111111111111111111111111111111111111111111",
"1111111111111111111111111111111111111111111111111111111111111111111111111111111111111111111111111111",
"1111111111111111111111111111111111111111111111111111111111111111111111111111111111111111111111111111",
"1111111111111111111111111111111111111111111111111111111111111111111111111111111111111111111111111111",
"1111111111111111111111111111111111111111111111111111111111111111111111111111111111111111111111111111",
"1111111111111111111111111111111111111111111111111111111111111111111111111111111111111111111111111111",
"1111111111111111111111111111111111111111111111111111111111111111111111111111111111111111111111111111",
"1111111111111111111111111111111111111111111111111111111111111111111111111111111111111111111111111111",
"1111111111111111111111111111111111111111111111111111111111111111111111111111111111111111111111111111",
"1111111111111111111111111111111111111111111111111111111111111111111111111111111111111111111111111111",
"1111111111111111111111111111111111111111111111111111111111111111111111111111111111111111111111111111",
"1111111111111111111111111111111111111111111111111111111111111111111111111111111111111111111111111111",
"1111111111111111111111111111111111111111111111111111111111111111111111111111111111111111111111111111",
"1111111111111111111111111111111111111111111111111111111111111111111111111111111111111111111111111111",
"1111111111111111111111111111111111111111111111111111111111111111111111111111111111111111111111111111",
"1111111111111111111111111111111111111111111111111111111111111111111111111111111111111111111111111111",
"1111111111111111111111111111111111111111111111111111111111111111111111111111111111111111111111111111",
"1111111111111111111111111111111111111111111111111111111111111111111111111111111111111111111111111111",
"1111111111111111111111111111111111111111111111111111111111111111111111111111111111111111111111111111",
"1111111111111111111111111111111111111111111111111111111111111111111111111111111111111111111111111111",
"1111111111111111111111111111111111111111111111111111111111111111111111111111111111111111111111111111",
"1111111111111111111111111111111111111111111111111111111111111111111111111111111111111111111111111111",
"1111111111111111111111111111111111111111111111111111111111111111111111111111111111111111111111111111",
"1111111111111111111111111111111111111111111111111111111111111111111111111111111111111111111111111111",
"1111111111111111111111111111111111111111111111111111111111111111111111111111111111111111111111111111",
"1111111111111111111111111111111111111111111111111111111111111111111111111111111111111111111111111111",
"1111111111111111111111111111111111111111111111111111111111111111111111111111111111111111111111111111",
"1111111111111111111111111111111111111111111111111111111111111111111111111111111111111111111111111111",
"111111111111111111111<<<<<<<<<<<<<<<<<<<<<<<<<<<<<<<<<1111111111111111111111111111111111111111111111",
"111111111111111111111<<<<<<<<<<<<<<<<<<<<<<<<<<<<<<<<<1111111111111111111111111111111111111111111111",
"111111111111111111111<<<<<<<<<<<<<<<<<<<<<<<<<<<<<<<<<1111111111111111111111111111111111111111111111",
"111111111111111111111<<<<<<<<<<<<<<<<<<<<<<<<<<<<<<<<<1111111111111111111111111111111111111111111111",
"11111111111111111<<<;+++++++++++++++++++++++++++++++++;<<<11111<<<<<<<<<<<<<<<<111111111111111111111",
"11111111111111111<<<-                                 -<<<11111<<<<<<<<<<<<<<<<111111111111111111111",
"11111111111111111<<<-                                 -<<<11111<<<<<<<<<<<<<<<<111111111111111111111",
"11111111111111111<<<-                                 -<<<11111<<<<<<<<<<<<<<<<111111111111111111111",
"11111111111111111<<<-    #########################    -<<<<111%$$$$$$$$$$$$$$$$;11111111111111111111",
"11111111111111111<<<-    <<<<<<<<<<<<<<<<<<<<<<<<<    -<<<<<<<$                -<<<11111111111111111",
"11111111111111111<<<-    <<<<<<<<<<<<<<<<<<<<<<<<<    -<<<<<<<$                -<<<11111111111111111",
"11111111111111111<<<-    <<<<<<<<<<<<<<<<<<<<<<<<<    -<<<<<<<$                -<<<11111111111111111",
"11111111111111111<<<-    <<<<<<<<<<<<<<<<<<<<<<<<<    -<<<<<<<$   .++++++++    -<<<11111111111111111",
"11111111111111111<<<-    <<<<<<<<<<<<<<<<<<<<<<<<<    -<<<<<<<$   +<<<<<<<<    -<<<11111111111111111",
"11111111111111111<<<-    <<<<<<<<<<<<<<<<<<<<<<<<<    -<<<<<<<$   +<<<<<<<<    -<<<11111111111111111",
"11111111111111111<<<-    <<<<<<<<<<<<<<<<<<<<<<<<<    -<<<<<<<$   +<<<<<<<<    -<<<11111111111111111",
"11111111111111111<<<-    <<<<<<<<,-------,<<<<<<<<    &-------@   O---><<<<    -<<<11111111111111111",
"11111111111111111<<<-    <<<<<<<<+       +<<<<<<<<                    o<<<<    -<<<11111111111111111",
"11111111111111111<<<-    <<<<<<<<+       +<<<<<<<<                    o<<<<    -<<<11111111111111111",
"11111111111111111<<<-    <<<<<<<<+       +<<<<<<<<                    o<<<<    -<<<11111111111111111",
"11111111111111111<<<-    <<<<<<<<+       +<<<<<<<<                    o<<<<    -<<<11111111111111111",
"11111111111111111<<<-    <<<<<<<<+       +<<<<<<<<<<<<<<<<<<<<<<<<<<<<<<<<<    -<<<11111111111111111",
"11111111111111111<<<-    <<<<<<<<+       +<<<<<<<<<<<<<<<<<<<<<<<<<<<<<<<<<    -<<<11111111111111111",
"11111111111111111<<<-    <<<<<<<<+       +<<<<<<<<<<<<<<<<<<<<<<<<<<<<<<<<<    -<<<11111111111111111",
"11111111111111111<<<-    <<<<<<<<+       +<<<<<<<<<<<<<<<<<<<<<<<<<<<<<<<<<    -<<<11111111111111111",
"11111111111111111<<<-    <<<<<<<<+       +<<<<<<<<oooo><<<<<<<<<<<<<<<<<<<<    -<<<11111111111111111",
"11111111111111111<<<-    <<<<<<<<+       +<<<<<<<<    -<<<<<<<<<<<<<<<<<<<<    -<<<11111111111111111",
"11111111111111111<<<-    <<<<<<<<+       +<<<<<<<<    -<<<<<<<<<<<<<<<<<<<<    -<<<11111111111111111",
"11111111111111111<<<-    <<<<<<<<+       +<<<<<<<<    -<<<<<<<<<<<<<<<<<<<<    -<<<11111111111111111",
"11111111111111111<<<-    <<<<<<<<*%%%%%%%*<<<<<<<<    O++++++++++++++++++++    -<<<11111111111111111",
"11111111111111111<<<-    <<<<<<<<<<<<<<<<<<<<<<<<<                             -<<<11111111111111111",
"11111111111111111<<<-    <<<<<<<<<<<<<<<<<<<<<<<<<                             -<<<11111111111111111",
"11111111111111111<<<-    <<<<<<<<<<<<<<<<<<<<<<<<<                             -<<<11111111111111111",
"11111111111111111<<<-    <<<<<<<<<<<<<<<<<<<<<<<<<                             -<<<11111111111111111",
"11111111111111111<<<-    <<<<<<<<<<<<<<<<<<<<<<<<<                             -<<<11111111111111111",
"11111111111111111<<<-    <<<<<<<<<<<<<<<<<<<<<<<<<                             -<<<11111111111111111",
"11111111111111111<<<-    <<<<<<<<<<<<<<<<<<<<<<<<<                             -<<<11111111111111111",
"11111111111111111<<<-    %%%%%%%%%%%%%%%%%%%%%%%%%    O++++++++++++++++++++++++;<<<11111111111111111",
"11111111111111111<<<-                                 -<<<<<<<<<<<<<<<<<<<<<<<<111111111111111111111",
"11111111111111111<<<-                                 -<<<<<<<<<<<<<<<<<<<<<<<<111111111111111111111",
"11111111111111111<<<-                                 -<<<<<<<<<<<<<<<<<<<<<<<<111111111111111111111",
"11111111111111111<<<-                                 -<<<<<<<<<<<<<<<<<<<<<<<<111111111111111111111",
"11111111111111111<<<-                                 -<<<111111111111111111111111111111111111111111",
"11111111111111111<<<-                                 -<<<111111111111111111111111111111111111111111",
"11111111111111111<<<-                                 -<<<111111111111111111111111111111111111111111",
"11111111111111111<<<-                                 -<<<111111111111111111111111111111111111111111",
"111111111111111111111<<<<<<<<<<<<<<<<<<<<<<<<<<<<<<<<<1111111111111111111111111111111111111111111111",
"111111111111111111111<<<<<<<<<<<<<<<<<<<<<<<<<<<<<<<<<1111111111111111111111111111111111111111111111",
"111111111111111111111<<<<<<<<<<<<<<<<<<<<<<<<<<<<<<<<<1111111111111111111111111111111111111111111111",
"111111111111111111111<<<<<<<<<<<<<<<<<<<<<<<<<<<<<<<<<1111111111111111111111111111111111111111111111",
"1111111111111111111111111111111111111111111111111111111111111111111111111111111111111111111111111111",
"1111111111111111111111111111111111111111111111111111111111111111111111111111111111111111111111111111",
"1111111111111111111111111111111111111111111111111111111111111111111111111111111111111111111111111111",
"1111111111111111111111111111111111111111111111111111111111111111111111111111111111111111111111111111",
"1111111111111111111111111111111111111111111111111111111111111111111111111111111111111111111111111111",
"1111111111111111111111111111111111111111111111111111111111111111111111111111111111111111111111111111",
"1111111111111111111111111111111111111111111111111111111111111111111111111111111111111111111111111111",
"1111111111111111111111111111111111111111111111111111111111111111111111111111111111111111111111111111",
"1111111111111111111111111111111111111111111111111111111111111111111111111111111111111111111111111111",
"1111111111111111111111111111111111111111111111111111111111111111111111111111111111111111111111111111",
"1111111111111111111111111111111111111111111111111111111111111111111111111111111111111111111111111111",
"1111111111111111111111111111111111111111111111111111111111111111111111111111111111111111111111111111",
"1111111111111111111111111111111111111111111111111111111111111111111111111111111111111111111111111111",
"1111111111111111111111111111111111111111111111111111111111111111111111111111111111111111111111111111",
"1111111111111111111111111111111111111111111111111111111111111111111111111111111111111111111111111111",
"1111111111111111111111111111111111111111111111111111111111111111111111111111111111111111111111111111",
"1111111111111111111111111111111111111111111111111111111111111111111111111111111111111111111111111111",
"1111111111111111111111111111111111111111111111111111111111111111111111111111111111111111111111111111",
"1111111111111111111111111111111111111111111111111111111111111111111111111111111111111111111111111111",
"1111111111111111111111111111111111111111111111111111111111111111111111111111111111111111111111111111",
"1111111111111111111111111111111111111111111111111111111111111111111111111111111111111111111111111111"
};
