/* XPM */
static char *Key3[] = {
/* columns rows colors chars-per-pixel */
"100 100 17 1 ",
"  c black",
". c #0E0E0E",
"X c #2A2A2A",
"o c #2B2B2B",
"O c #4E4E4E",
"+ c #555555",
"@ c #6A6A6A",
"# c #717171",
"$ c #7F7F7F",
"% c #808080",
"& c #8E8E8E",
"* c #AAAAAA",
"= c #B8B8B8",
"- c #D4D4D4",
"; c #D5D5D5",
": c white",
"> c None",
/* pixels */
"::::::::::::::::::::::::::::::::::::::::::::::::::::::::::::::::::::::::::::::::::::::::::::::::::::",
"::::::::::::::::::::::::::::::::::::::::::::::::::::::::::::::::::::::::::::::::::::::::::::::::::::",
"::::::::::::::::::::::::::::::::::::::::::::::::::::::::::::::::::::::::::::::::::::::::::::::::::::",
"::::::::::::::::::::::::::::::::::::::::::::::::::::::::::::::::::::::::::::::::::::::::::::::::::::",
"::::::::::::::::::::::::::::::::::::::::::::::::::::::::::::::::::::::::::::::::::::::::::::::::::::",
"::::::::::::::::::::::::::::::::::::::::::::::::::::::::::::::::::::::::::::::::::::::::::::::::::::",
"::::::::::::::::::::::::::::::::::::::::::::::::::::::::::::::::::::::::::::::::::::::::::::::::::::",
"::::::::::::::::::::::::::::::::::::::::::::::::::::::::::::::::::::::::::::::::::::::::::::::::::::",
"::::::::::::::::::::::::::::::::::::::::::::::::::::::::::::::::::::::::::::::::::::::::::::::::::::",
"::::::::::::::::::::::::::::::::::::::::::::::::::::::::::::::::::::::::::::::::::::::::::::::::::::",
"::::::::::::::::::::::::::::::::::::::::::::::::::::::::::::::::::::::::::::::::::::::::::::::::::::",
"::::::::::::::::::::::::::::::::::::::::::::::::::::::::::::::::::::::::::::::::::::::::::::::::::::",
"::::::::::::::::::::::::::::::::::::::::::::::::::::::::::::::::::::::::::::::::::::::::::::::::::::",
"::::::::::::::::::::::::::::::::::::::::::::::::::::::::::::::::::::::::::::::::::::::::::::::::::::",
"::::::::::::::::::::::::::::::::::::::::::::::::::::::::::::::::::::::::::::::::::::::::::::::::::::",
"::::::::::::::::::::::::::::::::::::::::::::::::::::::::::::::::::::::::::::::::::::::::::::::::::::",
"::::::::::::::::::::::::::::::::::::::::::::::::::::::::::::::::::::::::::::::::::::::::::::::::::::",
"::::::::::::::::::::::::::::::::::::::::::::::::::::::::::::::::::::::::::::::::::::::::::::::::::::",
"::::::::::::::::::::::::::::::::::::::::::::::::::::::::::::::::::::::::::::::::::::::::::::::::::::",
"::::::::::::::::::::::::::::::::::::::::::::::::::::::::::::::::::::::::::::::::::::::::::::::::::::",
"::::::::::::::::::::::::::::::::::::::::::::::::::::::::::::::::::::::::::::::::::::::::::::::::::::",
"::::::::::::::::::::::::::::::::::::::::::::::::::::::::::::::::::::::::::::::::::::::::::::::::::::",
"::::::::::::::::::::::::::::::::::::::::::::::::::::::::::::::::::::::::::::::::::::::::::::::::::::",
"::::::::::::::::::::::::::::::::::::::::::::::::::::::::::::::::::::::::::::::::::::::::::::::::::::",
"::::::::::::::::::::::::::::::::::::::::::::::::::::::::::::::::::::::::::::::::::::::::::::::::::::",
"::::::::::::::::::::::::::::::::::::::::::::::::::::::::::::::::::::::::::::::::::::::::::::::::::::",
"::::::::::::::::::::::::::::::::::::::::::::::::::::::::::::::::::::::::::::::::::::::::::::::::::::",
"::::::::::::::::::::::::::::::::::::::::::::::::::::::::::::::::::::::::::::::::::::::::::::::::::::",
"::::::::::::::::::::::::::::::::::::::::::::::::::::::::::::::::::::::::::::::::::::::::::::::::::::",
"::::::::::::::::::::::::::::::::::::::::::::::::::::::::::::::::::::::::::::::::::::::::::::::::::::",
"::::::::::::::::::::::::::::::::::::::::::::::::::::::::::::::::::::::::::::::::::::::::::::::::::::",
"::::::::::::::::::::::::::::::::::::::::::::::::::::::::::::::::::::::::::::::::::::::::::::::::::::",
"::::::::::::::::::::::::::::::::::::::::::::::::::::::::::::::::::::::::::::::::::::::::::::::::::::",
"::::::::::::::::::::::::::::::::::::::::::::::::::::::::::::::::::::::::::::::::::::::::::::::::::::",
"::::::::::::::::::::::::::::::::::::::::::::::::::::::::::::::::::::::::::::::::::::::::::::::::::::",
"::::::::::::::::::::::::::::::::::::::::::::::::::::::::::::::::::::::::::::::::::::::::::::::::::::",
"::::::::::::::::::::::::::::::::::::::::::::::::::::::::::::::::::::::::::::::::::::::::::::::::::::",
"::::::::::::::::::::::::::::::::::::::::::::::::::::::::::::::::::::::::::::::::::::::::::::::::::::",
"::::::::::::::::::::::::::::::::::::::::::::::::::::::::::::::::::::::::::::::::::::::::::::::::::::",
"::::::::::::::::::::::::::::::::::::::::::::::::::::::::::::::::::::::::::::::::::::::::::::::::::::",
"::::::::::::::::::::::::::::::::::::::::::::::::::::::::::::::::::::::::::::::::::::::::::::::::::::",
"::::::::::::::::::::::::::::::::::::::::::::::::::::::::::::::::::::::::::::::::::::::::::::::::::::",
":::::::::::::::::::::                                 ::::::::::::::::::::::::::::::::::::::::::::::",
":::::::::::::::::::::                                 ::::::::::::::::::::::::::::::::::::::::::::::",
":::::::::::::::::::::                                 ::::::::::::::::::::::::::::::::::::::::::::::",
":::::::::::::::::::::    XXXXXXXXXXXXXXXXXXXXXXXXX    ::::::::::::::::::::::::::::::::::::::::::::::",
":::::::::::::::::::::    :::::::::::::::::::::::::    :::::::::                :::::::::::::::::::::",
":::::::::::::::::::::    :::::::::::::::::::::::::    :::::::::                :::::::::::::::::::::",
":::::::::::::::::::::    :::::::::::::::::::::::::    :::::::::                :::::::::::::::::::::",
":::::::::::::::::::::    :::::::::::::::::::::::::    :::::::::                :::::::::::::::::::::",
":::::::::::::::::::::    :::::::::::::::::::::::::    :::::::::   +::::::::    :::::::::::::::::::::",
":::::::::::::::::::::    :::::::::::::::::::::::::    :::::::::   +::::::::    :::::::::::::::::::::",
":::::::::::::::::::::    :::::::::::::::::::::::::    :::::::::   +::::::::    :::::::::::::::::::::",
":::::::::::::::::::::    :::::::::::::::::::::::::    :::::::::   +::::::::    :::::::::::::::::::::",
":::::::::::::::::::::    ::::::::#XXXXXXX#::::::::                .XXXO::::    :::::::::::::::::::::",
":::::::::::::::::::::    ::::::::+       +::::::::                    X::::    :::::::::::::::::::::",
":::::::::::::::::::::    ::::::::+       +::::::::                    X::::    :::::::::::::::::::::",
":::::::::::::::::::::    ::::::::+       +::::::::                    X::::    :::::::::::::::::::::",
":::::::::::::::::::::    ::::::::+       +::::::::    &***************=::::    :::::::::::::::::::::",
":::::::::::::::::::::    ::::::::+       +::::::::    -::::::::::::::::::::    :::::::::::::::::::::",
":::::::::::::::::::::    ::::::::+       +::::::::    -::::::::::::::::::::    :::::::::::::::::::::",
":::::::::::::::::::::    ::::::::+       +::::::::    -::::::::::::::::::::    :::::::::::::::::::::",
":::::::::::::::::::::    ::::::::*$$$$$$$*::::::::    @%%%%%%%%%%%%%%%%%%%%    :::::::::::::::::::::",
":::::::::::::::::::::    :::::::::::::::::::::::::                             :::::::::::::::::::::",
":::::::::::::::::::::    :::::::::::::::::::::::::                             :::::::::::::::::::::",
":::::::::::::::::::::    :::::::::::::::::::::::::                             :::::::::::::::::::::",
":::::::::::::::::::::    :::::::::::::::::::::::::                             :::::::::::::::::::::",
":::::::::::::::::::::    :::::::::::::::::::::::::                             :::::::::::::::::::::",
":::::::::::::::::::::    :::::::::::::::::::::::::                             :::::::::::::::::::::",
":::::::::::::::::::::    :::::::::::::::::::::::::                             :::::::::::::::::::::",
":::::::::::::::::::::    -------------------------                             :::::::::::::::::::::",
":::::::::::::::::::::                                 ::::::::::::::::::::::::::::::::::::::::::::::",
":::::::::::::::::::::                                 ::::::::::::::::::::::::::::::::::::::::::::::",
":::::::::::::::::::::                                 ::::::::::::::::::::::::::::::::::::::::::::::",
":::::::::::::::::::::                                 ::::::::::::::::::::::::::::::::::::::::::::::",
":::::::::::::::::::::                                 ::::::::::::::::::::::::::::::::::::::::::::::",
":::::::::::::::::::::                                 ::::::::::::::::::::::::::::::::::::::::::::::",
":::::::::::::::::::::                                 ::::::::::::::::::::::::::::::::::::::::::::::",
":::::::::::::::::::::                                 ::::::::::::::::::::::::::::::::::::::::::::::",
"::::::::::::::::::::::::::::::::::::::::::::::::::::::::::::::::::::::::::::::::::::::::::::::::::::",
"::::::::::::::::::::::::::::::::::::::::::::::::::::::::::::::::::::::::::::::::::::::::::::::::::::",
"::::::::::::::::::::::::::::::::::::::::::::::::::::::::::::::::::::::::::::::::::::::::::::::::::::",
"::::::::::::::::::::::::::::::::::::::::::::::::::::::::::::::::::::::::::::::::::::::::::::::::::::",
"::::::::::::::::::::::::::::::::::::::::::::::::::::::::::::::::::::::::::::::::::::::::::::::::::::",
"::::::::::::::::::::::::::::::::::::::::::::::::::::::::::::::::::::::::::::::::::::::::::::::::::::",
"::::::::::::::::::::::::::::::::::::::::::::::::::::::::::::::::::::::::::::::::::::::::::::::::::::",
"::::::::::::::::::::::::::::::::::::::::::::::::::::::::::::::::::::::::::::::::::::::::::::::::::::",
"::::::::::::::::::::::::::::::::::::::::::::::::::::::::::::::::::::::::::::::::::::::::::::::::::::",
"::::::::::::::::::::::::::::::::::::::::::::::::::::::::::::::::::::::::::::::::::::::::::::::::::::",
"::::::::::::::::::::::::::::::::::::::::::::::::::::::::::::::::::::::::::::::::::::::::::::::::::::",
"::::::::::::::::::::::::::::::::::::::::::::::::::::::::::::::::::::::::::::::::::::::::::::::::::::",
"::::::::::::::::::::::::::::::::::::::::::::::::::::::::::::::::::::::::::::::::::::::::::::::::::::",
"::::::::::::::::::::::::::::::::::::::::::::::::::::::::::::::::::::::::::::::::::::::::::::::::::::",
"::::::::::::::::::::::::::::::::::::::::::::::::::::::::::::::::::::::::::::::::::::::::::::::::::::",
"::::::::::::::::::::::::::::::::::::::::::::::::::::::::::::::::::::::::::::::::::::::::::::::::::::",
"::::::::::::::::::::::::::::::::::::::::::::::::::::::::::::::::::::::::::::::::::::::::::::::::::::",
"::::::::::::::::::::::::::::::::::::::::::::::::::::::::::::::::::::::::::::::::::::::::::::::::::::",
"::::::::::::::::::::::::::::::::::::::::::::::::::::::::::::::::::::::::::::::::::::::::::::::::::::",
"::::::::::::::::::::::::::::::::::::::::::::::::::::::::::::::::::::::::::::::::::::::::::::::::::::",
"::::::::::::::::::::::::::::::::::::::::::::::::::::::::::::::::::::::::::::::::::::::::::::::::::::"
};
