/* XPM */
static char *Key4[] = {
/* columns rows colors chars-per-pixel */
"100 100 15 1 ",
"  c black",
". c #1C1C1C",
"X c #2A2A2A",
"o c #2B2B2B",
"O c #474747",
"+ c #555555",
"@ c #7F7F7F",
"# c #AAAAAA",
"$ c #C6C6C6",
"% c #D4D4D4",
"& c #D5D5D5",
"* c #DCDCDC",
"= c #E3E3E3",
"- c white",
"; c None",
/* pixels */
"----------------------------------------------------------------------------------------------------",
"----------------------------------------------------------------------------------------------------",
"----------------------------------------------------------------------------------------------------",
"----------------------------------------------------------------------------------------------------",
"----------------------------------------------------------------------------------------------------",
"----------------------------------------------------------------------------------------------------",
"----------------------------------------------------------------------------------------------------",
"----------------------------------------------------------------------------------------------------",
"----------------------------------------------------------------------------------------------------",
"----------------------------------------------------------------------------------------------------",
"----------------------------------------------------------------------------------------------------",
"----------------------------------------------------------------------------------------------------",
"----------------------------------------------------------------------------------------------------",
"----------------------------------------------------------------------------------------------------",
"----------------------------------------------------------------------------------------------------",
"----------------------------------------------------------------------------------------------------",
"----------------------------------------------------------------------------------------------------",
"----------------------------------------------------------------------------------------------------",
"----------------------------------------------------------------------------------------------------",
"----------------------------------------------------------------------------------------------------",
"----------------------------------------------------------------------------------------------------",
"----------------------------------------------------------------------------------------------------",
"----------------------------------------------------------------------------------------------------",
"----------------------------------------------------------------------------------------------------",
"----------------------------------------------------------------------------------------------------",
"----------------------------------------------------------------------------------------------------",
"----------------------------------------------------------------------------------------------------",
"----------------------------------------------------------------------------------------------------",
"----------------------------------------------------------------------------------------------------",
"----------------------------------------------------------------------------------------------------",
"----------------------------------------------------------------------------------------------------",
"----------------------------------------------------------------------------------------------------",
"----------------------------------------------------------------------------------------------------",
"---------------------                                 ----------------------------------------------",
"---------------------                                 ----------------------------------------------",
"---------------------                                 ----------------------------------------------",
"---------------------                                 ----------------------------------------------",
"---------------------    @@@@@@@@@@@@@@@@@@@@@@@@@    ----------------------------------------------",
"---------------------    -------------------------    ---------                ---------------------",
"---------------------    -------------------------    ---------                ---------------------",
"---------------------    -------------------------    ---------                ---------------------",
"---------------------    -------------------------    ---------   .++++++++    ---------------------",
"---------------------    -------------------------    ---------   +--------    ---------------------",
"---------------------    -------------------------    ---------   +--------    ---------------------",
"---------------------    -------------------------    ---------   +--------    ---------------------",
"---------------------    --------=&&&&&&&=--------    --------    O&&&*----    ---------------------",
"---------------------    --------+       +--------                    o----    ---------------------",
"---------------------    --------+       +--------                    o----    ---------------------",
"---------------------    --------+       +--------                    o----    ---------------------",
"---------------------    --------+       +--------                    o----    ---------------------",
"---------------------    --------+       +---------------------------------    ---------------------",
"---------------------    --------+       +---------------------------------    ---------------------",
"---------------------    --------+       +---------------------------------    ---------------------",
"---------------------    --------+       +---------------------------------    ---------------------",
"---------------------    --------+       +--------oooo*--------------------    ---------------------",
"---------------------    --------+       +--------    &--------------------    ---------------------",
"---------------------    --------+       +--------    &--------------------    ---------------------",
"---------------------    --------+       +--------    &--------------------    ---------------------",
"---------------------    --------$#######$--------    O++++++++++++++++++++    ---------------------",
"---------------------    -------------------------                             ---------------------",
"---------------------    -------------------------                             ---------------------",
"---------------------    -------------------------                             ---------------------",
"---------------------    -------------------------                             ---------------------",
"---------------------    -------------------------                             ---------------------",
"---------------------    -------------------------                             ---------------------",
"---------------------    -------------------------                             ---------------------",
"---------------------    #########################                             ---------------------",
"---------------------                                 ----------------------------------------------",
"---------------------                                 ----------------------------------------------",
"---------------------                                 ----------------------------------------------",
"---------------------                                 ----------------------------------------------",
"---------------------                                 ----------------------------------------------",
"---------------------                                 ----------------------------------------------",
"---------------------                                 ----------------------------------------------",
"---------------------                                 ----------------------------------------------",
"----------------------------------------------------------------------------------------------------",
"----------------------------------------------------------------------------------------------------",
"----------------------------------------------------------------------------------------------------",
"----------------------------------------------------------------------------------------------------",
"----------------------------------------------------------------------------------------------------",
"----------------------------------------------------------------------------------------------------",
"----------------------------------------------------------------------------------------------------",
"----------------------------------------------------------------------------------------------------",
"----------------------------------------------------------------------------------------------------",
"----------------------------------------------------------------------------------------------------",
"----------------------------------------------------------------------------------------------------",
"----------------------------------------------------------------------------------------------------",
"----------------------------------------------------------------------------------------------------",
"----------------------------------------------------------------------------------------------------",
"----------------------------------------------------------------------------------------------------",
"----------------------------------------------------------------------------------------------------",
"----------------------------------------------------------------------------------------------------",
"----------------------------------------------------------------------------------------------------",
"----------------------------------------------------------------------------------------------------",
"----------------------------------------------------------------------------------------------------",
"----------------------------------------------------------------------------------------------------",
"----------------------------------------------------------------------------------------------------",
"----------------------------------------------------------------------------------------------------",
"----------------------------------------------------------------------------------------------------",
"----------------------------------------------------------------------------------------------------"
}-
