/* XPM */
static char *Longwall_right[] = {
/* columns rows colors chars-per-pixel */
"100 100 4 1 ",
"  c black",
". c #808080",
"X c #BFBFBF",
"o c white",
/* pixels */
"            .oooooX                                           .oooooooooooo                         ",
"            .oooooX                                           .oooooooooooo                         ",
"            .oooooX                                           .oooooooooooo                         ",
"            .oooooX                                           .oooooooooooo                         ",
"            .oooooX                                           .oooooooooooo                         ",
"            .oooooX                                           .oooooooooooo                         ",
"            .oooooX                                           .oooooooooooo                         ",
"            .oooooX                                           .oooooooooooo                         ",
"            .oooooX                                           .oooooooooooo                         ",
"            .oooooX                                           .oooooooooooo                         ",
"            .oooooX                                           .oooooooooooo                         ",
"            .oooooX                                           .oooooooooooo                         ",
"            .oooooX                                           .oooooooooooo                         ",
"            .oooooX                                           .oooooooooooo                         ",
"            .oooooX                                           .oooooooooooo                         ",
"            .oooooX                                           .oooooooooooo                         ",
"            .oooooX                                           .oooooooooooo                         ",
"            .oooooX                                           .oooooooooooo                         ",
"            .oooooX                                           .oooooooooooo                         ",
"            .oooooX                                           .oooooooooooo                         ",
"            .oooooX                                           .oooooooooooo                         ",
"            .oooooX                                           .oooooooooooo                         ",
"            .oooooX                                           .oooooooooooo                         ",
"            .oooooX                                           .oooooooooooo                         ",
"            .oooooX                                           .oooooooooooo                         ",
"            .oooooX                                           .oooooooooooo                         ",
"            .oooooX                                           .oooooooooooo                         ",
"            .oooooX                                           .oooooooooooo                         ",
"            .oooooX                                           .oooooooooooo                         ",
"            .oooooX                                           .oooooooooooo                         ",
"            .oooooX                                           .oooooooooooo                         ",
"            .oooooX                                           .oooooooooooo                         ",
"            .oooooX                                           .oooooooooooo                         ",
"            .oooooX                                           .oooooooooooo                         ",
"            .oooooX                                           .oooooooooooo                         ",
"            .oooooX                                           .oooooooooooo                         ",
"            .oooooX                                           .oooooooooooo                         ",
"            .oooooX                                           .oooooooooooo                         ",
"            .oooooX                                           .oooooooooooo                         ",
"            .oooooX                                           .oooooooooooo                         ",
"            .oooooX                                           .oooooooooooo                         ",
"            .oooooX                                           .oooooooooooo                         ",
"            .oooooX                                           .oooooooooooo                         ",
"            .oooooX                                           .oooooooooooo                         ",
"            .oooooX                                           .oooooooooooo                         ",
"            .oooooX                                           .oooooooooooo                         ",
"            .oooooX                                           .oooooooooooo                         ",
"            .oooooX                                           .oooooooooooo                         ",
"            .oooooX                                           .oooooooooooo                         ",
"            .oooooX                                           .oooooooooooo                         ",
"            .oooooX                                           .oooooooooooo                         ",
"            .oooooX                                           .oooooooooooo                         ",
"            .oooooX                                           .oooooooooooo                         ",
"            .oooooX                                           .oooooooooooo                         ",
"            .oooooX                                           .oooooooooooo                         ",
"            .oooooX                                           .oooooooooooo                         ",
"            .oooooX                                           .oooooooooooo                         ",
"            .oooooX                                           .oooooooooooo                         ",
"            .oooooX                                           .oooooooooooo                         ",
"            .oooooX                                           .oooooooooooo                         ",
"            .oooooX                                           .oooooooooooo                         ",
"            .oooooX                                           .oooooooooooo                         ",
"            .oooooX                                           .oooooooooooo                         ",
"            .oooooX                                           .oooooooooooo                         ",
"            .oooooX                                           .oooooooooooo                         ",
"            .oooooX                                           .oooooooooooo                         ",
"            .oooooX                                           .oooooooooooo                         ",
"            .oooooX                                           .oooooooooooo                         ",
"            .oooooX                                           .oooooooooooo                         ",
"            .oooooX                                           .oooooooooooo                         ",
"            .oooooX                                           .oooooooooooo                         ",
"            .oooooX                                           .oooooooooooo                         ",
"            .oooooX                                           .oooooooooooo                         ",
"            .oooooX                                           .oooooooooooo                         ",
"            .oooooX                                           .oooooooooooo                         ",
"            .oooooX                                           .oooooooooooo                         ",
"            .oooooX                                           .oooooooooooo                         ",
"            .oooooX                                           .oooooooooooo                         ",
"            .oooooX                                           .oooooooooooo                         ",
"            .oooooX                                           .oooooooooooo                         ",
"            .oooooX                                           .oooooooooooo                         ",
"            .oooooX                                           .oooooooooooo                         ",
"            .oooooX                                           .oooooooooooo                         ",
"            .oooooX                                           .oooooooooooo                         ",
"            .oooooX                                           .oooooooooooo                         ",
"            .oooooX                                           .oooooooooooo                         ",
"            .oooooX                                           .oooooooooooo                         ",
"            .oooooX                                           .oooooooooooo                         ",
"            .oooooX                                           .oooooooooooo                         ",
"            .oooooX                                           .oooooooooooo                         ",
"            .oooooX                                           .oooooooooooo                         ",
"            .oooooX                                           .oooooooooooo                         ",
"            .oooooX                                           .oooooooooooo                         ",
"            .oooooX                                           .oooooooooooo                         ",
"            .oooooX                                           .oooooooooooo                         ",
"            .oooooX                                           .oooooooooooo                         ",
"            .oooooX                                           .oooooooooooo                         ",
"            .oooooX                                           .oooooooooooo                         ",
"            .oooooX                                           .oooooooooooo                         ",
"            .oooooX                                           .oooooooooooo                         "
};
