/* XPM */
static char *Longwall_left[] = {
/* columns rows colors chars-per-pixel */
"100 100 4 1 ",
"  c black",
". c #808080",
"X c #BFBFBF",
"o c white",
/* pixels */
"                         oooooooooooo.                                           Xooooo.            ",
"                         oooooooooooo.                                           Xooooo.            ",
"                         oooooooooooo.                                           Xooooo.            ",
"                         oooooooooooo.                                           Xooooo.            ",
"                         oooooooooooo.                                           Xooooo.            ",
"                         oooooooooooo.                                           Xooooo.            ",
"                         oooooooooooo.                                           Xooooo.            ",
"                         oooooooooooo.                                           Xooooo.            ",
"                         oooooooooooo.                                           Xooooo.            ",
"                         oooooooooooo.                                           Xooooo.            ",
"                         oooooooooooo.                                           Xooooo.            ",
"                         oooooooooooo.                                           Xooooo.            ",
"                         oooooooooooo.                                           Xooooo.            ",
"                         oooooooooooo.                                           Xooooo.            ",
"                         oooooooooooo.                                           Xooooo.            ",
"                         oooooooooooo.                                           Xooooo.            ",
"                         oooooooooooo.                                           Xooooo.            ",
"                         oooooooooooo.                                           Xooooo.            ",
"                         oooooooooooo.                                           Xooooo.            ",
"                         oooooooooooo.                                           Xooooo.            ",
"                         oooooooooooo.                                           Xooooo.            ",
"                         oooooooooooo.                                           Xooooo.            ",
"                         oooooooooooo.                                           Xooooo.            ",
"                         oooooooooooo.                                           Xooooo.            ",
"                         oooooooooooo.                                           Xooooo.            ",
"                         oooooooooooo.                                           Xooooo.            ",
"                         oooooooooooo.                                           Xooooo.            ",
"                         oooooooooooo.                                           Xooooo.            ",
"                         oooooooooooo.                                           Xooooo.            ",
"                         oooooooooooo.                                           Xooooo.            ",
"                         oooooooooooo.                                           Xooooo.            ",
"                         oooooooooooo.                                           Xooooo.            ",
"                         oooooooooooo.                                           Xooooo.            ",
"                         oooooooooooo.                                           Xooooo.            ",
"                         oooooooooooo.                                           Xooooo.            ",
"                         oooooooooooo.                                           Xooooo.            ",
"                         oooooooooooo.                                           Xooooo.            ",
"                         oooooooooooo.                                           Xooooo.            ",
"                         oooooooooooo.                                           Xooooo.            ",
"                         oooooooooooo.                                           Xooooo.            ",
"                         oooooooooooo.                                           Xooooo.            ",
"                         oooooooooooo.                                           Xooooo.            ",
"                         oooooooooooo.                                           Xooooo.            ",
"                         oooooooooooo.                                           Xooooo.            ",
"                         oooooooooooo.                                           Xooooo.            ",
"                         oooooooooooo.                                           Xooooo.            ",
"                         oooooooooooo.                                           Xooooo.            ",
"                         oooooooooooo.                                           Xooooo.            ",
"                         oooooooooooo.                                           Xooooo.            ",
"                         oooooooooooo.                                           Xooooo.            ",
"                         oooooooooooo.                                           Xooooo.            ",
"                         oooooooooooo.                                           Xooooo.            ",
"                         oooooooooooo.                                           Xooooo.            ",
"                         oooooooooooo.                                           Xooooo.            ",
"                         oooooooooooo.                                           Xooooo.            ",
"                         oooooooooooo.                                           Xooooo.            ",
"                         oooooooooooo.                                           Xooooo.            ",
"                         oooooooooooo.                                           Xooooo.            ",
"                         oooooooooooo.                                           Xooooo.            ",
"                         oooooooooooo.                                           Xooooo.            ",
"                         oooooooooooo.                                           Xooooo.            ",
"                         oooooooooooo.                                           Xooooo.            ",
"                         oooooooooooo.                                           Xooooo.            ",
"                         oooooooooooo.                                           Xooooo.            ",
"                         oooooooooooo.                                           Xooooo.            ",
"                         oooooooooooo.                                           Xooooo.            ",
"                         oooooooooooo.                                           Xooooo.            ",
"                         oooooooooooo.                                           Xooooo.            ",
"                         oooooooooooo.                                           Xooooo.            ",
"                         oooooooooooo.                                           Xooooo.            ",
"                         oooooooooooo.                                           Xooooo.            ",
"                         oooooooooooo.                                           Xooooo.            ",
"                         oooooooooooo.                                           Xooooo.            ",
"                         oooooooooooo.                                           Xooooo.            ",
"                         oooooooooooo.                                           Xooooo.            ",
"                         oooooooooooo.                                           Xooooo.            ",
"                         oooooooooooo.                                           Xooooo.            ",
"                         oooooooooooo.                                           Xooooo.            ",
"                         oooooooooooo.                                           Xooooo.            ",
"                         oooooooooooo.                                           Xooooo.            ",
"                         oooooooooooo.                                           Xooooo.            ",
"                         oooooooooooo.                                           Xooooo.            ",
"                         oooooooooooo.                                           Xooooo.            ",
"                         oooooooooooo.                                           Xooooo.            ",
"                         oooooooooooo.                                           Xooooo.            ",
"                         oooooooooooo.                                           Xooooo.            ",
"                         oooooooooooo.                                           Xooooo.            ",
"                         oooooooooooo.                                           Xooooo.            ",
"                         oooooooooooo.                                           Xooooo.            ",
"                         oooooooooooo.                                           Xooooo.            ",
"                         oooooooooooo.                                           Xooooo.            ",
"                         oooooooooooo.                                           Xooooo.            ",
"                         oooooooooooo.                                           Xooooo.            ",
"                         oooooooooooo.                                           Xooooo.            ",
"                         oooooooooooo.                                           Xooooo.            ",
"                         oooooooooooo.                                           Xooooo.            ",
"                         oooooooooooo.                                           Xooooo.            ",
"                         oooooooooooo.                                           Xooooo.            ",
"                         oooooooooooo.                                           Xooooo.            ",
"                         oooooooooooo.                                           Xooooo.            "
};
