/* XPM */
static char *Pumpkin[] = {
/* cokumns rows cokors chars-per-pixek */
"100 100 47 1 ",
"  c bkack",
". c #080808",
"X c #0C0C0C",
"o c #101010",
"O c #141414",
"+ c #181818",
"@ c #1C1C1C",
"# c #202020",
"$ c #242424",
"% c #303030",
"& c #3C3C3C",
"* c #404040",
"= c #484848",
"- c #505050",
"; c #525252",
": c #545454",
"> c #585858",
", c #606060",
"< c #646464",
"1 c #686868",
"2 c #747474",
"3 c #808080",
"4 c #878787",
"5 c #8B8B8B",
"6 c #8F8F8F",
"7 c #929292",
"8 c #979797",
"9 c #9F9F9F",
"0 c #A7A7A7",
"q c #AAAAAA",
"w c #AFAFAF",
"e c #B7B7B7",
"r c #B9B9B9",
"t c #BFBFBF",
"y c #C7C7C7",
"u c #C8C8C8",
"i c gray80",
"p c #CFCFCF",
"a c #DFDFDF",
"s c #E0E0E0",
"d c #E3E3E3",
"f c #E7E7E7",
"g c #EBEBEB",
"h c #EFEFEF",
"j c #F3F3F3",
"k c white",
"l c None",
/* pixeks */
"kkkkkkkkkkkkkkkkkkkkkkkkkkkkkkkkkkkkkkkkkkkkkkkkkkkkkkkkkkkkkkkkkkkkkkkkkkkkkkkkkkkkkkkkkkkkkkkkkkkk",
"kkkkkkkkkkkkkkkkkkkkkkkkkkkkkkkkkkkkkkkkkkkkkkkkkkkkkkkkkkkkkkkkkkkkkkkkkkkkkkkkkkkkkkkkkkkkkkkkkkkk",
"kkkkkkkkkkkkkkkkkkkkkkkkkkkkkkkkkkkkkkkkkkkkkkkkkkkkkkkkkkkkkkkkkkkkkkkkkkkkkkkkkkkkkkkkkkkkkkkkkkkk",
"kkkkkkkkkkkkkkkkkkkkkkkkkkkkkkkkkkkkkkkkkkkkkkkkkkkkkkkkkkkkkkkkkkkkkkkkkkkkkkkkkkkkkkkkkkkkkkkkkkkk",
"kkkkkkkkkkkkkkkkkkkkkkkkkkkkkkkkkkkkkkkkkkkkkkkkkkkkkkkkkkkkkkkkkkkkkkkkkkkkkkkkkkkkkkkkkkkkkkkkkkkk",
"kkkkkkkkkkkkkkkkkkkkkkkkkkkkkkkkkkkkkkkkkkkkkkkkkkkkkkkkkkkkkkkkkkkkkkkkkkkkkkkkkkkkkkkkkkkkkkkkkkkk",
"kkkkkkkkkkkkkkkkkkkkkkkkkkkkkkkkkkkkkkkkkkkkkkkkkkkkkkkkkkkkkkkkkkkkkkkkkkkkkkkkkkkkkkkkkkkkkkkkkkkk",
"kkkkkkkkkkkkkkkkkkkkkkkkkkkkkkkkkkkkkkkkkkkkkkkkkkkkkkkkkkkkkkkkkkkkkkkkkkkkkkkkkkkkkkkkkkkkkkkkkkkk",
"kkkkkkkkkkkkkkkkkkkkkkkkkkkkkkkkkkkkkkkkkkkkkkkkkkkkkkkkkkkkkkkkkkkkkkkkkkkkkkkkkkkkkkkkkkkkkkkkkkkk",
"kkkkkkkkkkkkkkkkkkkkkkkkkkkkkkkkkkkkkkkkkkkkkkkkkkkkkkkkkkkkkkkkkkkkkkkkkkkkkkkkkkkkkkkkkkkkkkkkkkkk",
"kkkkkkkkkkkkkkkkkkkkkkkkkkkkkkkkkkkkkkkkkkkkkkkkkkkkkkkkkkkkkkkkkkkkkkkkkkkkkkkkkkkkkkkkkkkkkkkkkkkk",
"kkkkkkkkkkkkkkkkkkkkkkkkkkkkkkkkkkkkkkkkkkkkkkkkkkkkkkkkkkkkkkkkkkkkkkkkkkkkkkkkkkkkkkkkkkkkkkkkkkkk",
"kkkkkkkkkkkkkkkkkkkkkkkkkkkkkkkkkkkkkkkkkkkkkkkkkkkkkkkkkkkkkkkkkkkkkkkkkkkkkkkkkkkkkkkkkkkkkkkkkkkk",
"kkkkkkkkkkkkkkkkkkkkkkkkkkkkkkkkkkkkkkkkkkkkkkkkkkkkkkkkkkkkkkkkkkkkkkkkkkkkkkkkkkkkkkkkkkkkkkkkkkkk",
"kkkkkkkkkkkkkkkkkkkkkkkkkkkkkkkkkkkkkkkkkkkkkkkkkkkkkkkkkkkkkkkkkkkkkkkkkkkkkkkkkkkkkkkkkkkkkkkkkkkk",
"kkkkkkkkkkkkkkkkkkkkkkkkkkkkkkkkkkkkkr99999qkkk999999kkkq99999rkkkkkkkkkkkkkkkkkkkkkkkkkkkkkkkkkkkkk",
"kkkkkkkkkkkkkkkkkkkkkkkkkkkkkkkkkkkkk3     *kka      akk*     3kkkkkkkkkkkkkkkkkkkkkkkkkkkkkkkkkkkkk",
"kkkkkkkkkkkkkkkkkkkkkkkkkkkkkkkkkkkkk3     *kka      akk*     3kkkkkkkkkkkkkkkkkkkkkkkkkkkkkkkkkkkkk",
"kkkkkkkkkkkkkkkkkkkkkkkkkkkkkkkkkkutt3*****,ttw******wtt,*****3ttukkkkkkkkkkkkkkkkkkkkkkkkkkkkkkkkkk",
"kkkkkkkkkkkkkkkkkkkkkkkkkkkkkkkkkk,  3kkkkkt  #kkkkkk#  tkkkkk3  ,kkkkkkkkkkkkkkkkkkkkkkkkkkkkkkkkkk",
"kkkkkkkkkkkkkkkkkkkkkkkkkkkkkkkkkk,  3kkkkkt  #kkkkkk#  tkkkkk3  ,kkkkkkkkkkkkkkkkkkkkkkkkkkkkkkkkkk",
"kkkkkkkkkkkkkkkkkkkkkkkkkkkkkkksaa1##6kkjaaw##&kkkkkk&##waajkk6##1aaskkkkkkkkkkkkkkkkkkkkkkkkkkkkkkk",
"kkkkkkkkkkkkkkkkkkkkkkkkkkkkkkk*  9kkkkk9  *kkkkkkkkkkkk*  9kkkkk9  *kkkkkkkkkkkkkkkkkkkkkkkkkkkkkkk",
"kkkkkkkkkkkkkkkkkkkkkkkkkkkkkkk*  9kkkkk9  *kkkkkkkkkkkk*  9kkkkk9  *kkkkkkkkkkkkkkkkkkkkkkkkkkkkkkk",
"kkkkkkkkkkkkkkkkkkkkkkkkkkkkkkk*  9kkkkk9  *kkkkkkkkkkkk*  9kkkkk9  *kkkkkkkkkkkkkkkkkkkkkkkkkkkkkkk",
"kkkkkkkkkkkkkkkkkkkkkkkkkkkkkkk*  9kkkkk9  *kkkkkkkkkkkk*  9kkkkk9  *kkkkkkkkkkkkkkkkkkkkkkkkkkkkkkk",
"kkkkkkkkkkkkkkkkkkkkkkkkkkkkkkk*  9kkkkk9  *kkkkkkkkkkkk*  9kkkkk9  *kkkkkkkkkkkkkkkkkkkkkkkkkkkkkkk",
"kkkkkkkkkkkkkkkkkkkkkkkkkkkkkkk*  9kkkkk9  *kkkkkkkkkkkk*  9kkkkk9  *kkkkkkkkkkkkkkkkkkkkkkkkkkkkkkk",
"kkkkkkkkkkkkkkkkkkkkkkkkkkkkkkk*  9kk6##O  *kkkkkkkkkkkk*  O##6kk9  *kkkkkkkkkkkkkkkkkkkkkkkkkkkkkkk",
"kkkkkkkkkkkkkkkkkkkkkkkkkkkkkkk*  9kk3     *kkkkkkkkkkkk*     3kk9  *kkkkkkkkkkkkkkkkkkkkkkkkkkkkkkk",
"kkkkkkkkkkkkkkkkkkkkkkkkkkkkkkk*  9kk3     *kkkkkkkkkkkk*     3kk9  *kkkkkkkkkkkkkkkkkkkkkkkkkkkkkkk",
"kkkkkkkkkkkkkkkkkkkkks******fkk*  9kk3     o**>kkkkkk>**o     3kk9  *kkf******skkkkkkkkkkkkkkkkkkkkk",
"kkkkkkkkkkkkkkkkkkkkka      akk*  9kk3        #kkkkkk#        3kk9  *kka      akkkkkkkkkkkkkkkkkkkkk",
"kkkkkkkkkkkkkkkkkkkkka      akk*  9kk3        #kkkkkk#        3kk9  *kka      akkkkkkkkkkkkkkkkkkkkk",
"kkkkkkkkkkkkkkkkkkkkkj999   :,,+  9kkp99<     #kkkkkk#     <99pkk9  +,,:   999jkkkkkkkkkkkkkkkkkkkkk",
"kkkkkkkkkkkkkkkkkkkkkkkkk         9kkkkk9     #kkkkkk#     9kkkkk9         kkkkkkkkkkkkkkkkkkkkkkkkk",
"kkkkkkkkkkkkkkkkkkkkkkkkk         9kkkkk9     #kkkkkk#     9kkkkk9         kkkkkkkkkkkkkkkkkkkkkkkkk",
"kkkkkkkkkkkkkkkkkkp333333         -33tkkp333333333333333333pkkt33-         333332pkkkkkkkkkkkkkkkkkk",
"kkkkkkkkkkkkkkkkkkt                  3kkkkkkkka      akkkkkkkk3                 .ykkkkkkkkkkkkkkkkkk",
"kkkkkkkkkkkkkkkkkkt                  3kkkkkkkka      akkkkkkkk3                  tkkkkkkkkkkkkkkkkkk",
"kkkkkkkkkkkkkkkkkku,,:            &,,399999ekkg,,,,,,gkke999993,,&            :,>ukkkkkkkkkkkkkkkkkk",
"kkkkkkkkkkkkkkkkkkkkka            9kk3     *kkkkkkkkkkkk*     3kk9            akkkkkkkkkkkkkkkkkkkkk",
"kkkkkkkkkkkkkkkkkkkkka            9kk3     *kkkkkkkkkkkk*     3kk9            akkkkkkkkkkkkkkkkkkkkk",
"kkkkkkkkkkkkkkkkkkktt0            9kk3     %tttttttttttt%     3kk9            0ttkkkkkkkkkkkkkkkkkkk",
"kkkkkkkkkkkkkkkkkkt               9kk3                        3kk9               tkkkkkkkkkkkkkkkkkk",
"kkkkkkkkkkkkkkkkkkt               9kk3                        3kk9               tkkkkkkkkkkkkkkkkkk",
"kkkkkkkkkkkkssaaaa0               5aa3#####+            +#####3aa5               0aaaaaskkkkkkkkkkkk",
"kkkkkkkkkkkk3                        3kkkkkt            tkkkkk3                        3kkkkkkkkkkkk",
"kkkkkkkkkkkk3                        3kkkkkt            tkkkkk3                        3kkkkkkkkkkkk",
"kkkkkkkkkkkk3                        3kkkkkt            tkkkkk3                        3kkkkkkkkkkkk",
"kkkkkkkkk,  3kkkkkkkkkkkk                  *kkkkkkkkkkkk*                  kkkkkkkkkkkk3  ,kkkkkkkkk",
"kkkkkkkkk,  3kkkkkkkkkkkk                  *kkkkkkkkkkkk*                  kkkkkkkkkkkk3  ,kkkkkkkkk",
"kkkkkkkkk,  3kkkkkkkkkkkk                  *kkkkkkkkkkkk*                  kkkkkkkkkkkk3  ,kkkkkkkkk",
"kkkkkk-##8aa3##2kky##&kkkaaa@              .############.              @aaakkk&##ykk2##3aa8##-kkkkkk",
"kkkkkk*  9kk3  ,kkt  #kkkkkk#                                          #kkkkkk#  tkk,  3kk9  *kkkkkk",
"kkkkkk*  9kk3  ,kkt  #kkkkkk#                                          #kkkkkk#  tkk,  3kk9  *kkkkkk",
"kkkkkk*  9kk3  ,kkt  .***kkk#                                          #kkk***.  tkk,  3kk9  *kkkkkk",
"kkkkkk*  9kk3  ,kkt      kkk#                                          #kkk      tkk,  3kk9  *kkkkkk",
"kkkkkk*  9kk3  ,kkt      kkk#                                          #kkk      tkk,  3kk9  *kkkkkk",
"kkkkkk*  9kk3  $,,=      ,,,X                                          X,,,      =,,$  3kk9  *kkkkkk",
"kkkkkk*  9kk3                                                                          3kk9  *kkkkkk",
"kkkkkk*  9kk3                                                                          3kk9  *kkkkkk",
"kkkkkk733333*  %33,                                                              ,33%  *333337kkkkkk",
"kkkkkkkkk,     ,kkt                                                              tkk,     ,kkkkkkkkk",
"kkkkkkkkk,     ,kkt                                                              tkk,     ,kkkkkkkkk",
"kkkkkkkkk5,,,,,5kku,,:         =,,$  %,,&                  &,,%  $,,=         :,,ukk5,,,,,5kkkkkkkkk",
"kkkkkkkkkkkkkkkkkkkkka         tkk,  3kk9                  9kk3  ,kkt         akkkkkkkkkkkkkkkkkkkkk",
"kkkkkkkkkkkkkkkkkkkkka         tkk,  3kk9                  9kk3  ,kkt         akkkkkkkkkkkkkkkkkkkkk",
"kkkkkkkkkkkkkkkkkkktt0         tkk4**9kk9                  9kk9**4kkt         0ttkkkkkkkkkkkkkkkkkkk",
"kkkkkkkkkkkkkkkkkkt            tkkkkkkkk9                  9kkkkkkkkt            tkkkkkkkkkkkkkkkkkk",
"kkkkkkkkkkkkkkkkkkt            tkkkkkkkk9                  9kkkkkkkkt            tkkkkkkkkkkkkkkkkkk",
"kkkkkkkkkkkkkkkkaa0         @##waajkkhaa8##+            +##8aahkkjaaw##@         0aakkkkkkkkkkkkkkkk",
"kkkkkkkkkkkkkkk9            akk*  9kk3  ,kkt            tkk,  3kk9  *kka            9kkkkkkkkkkkkkkk",
"kkkkkkkkkkkkkkk9            akk*  9kk3  ,kkt            tkk,  3kk9  *kka            9kkkkkkkkkkkkkkk",
"kkkkkkkkkkkkkkk9            akk*  9kk3  ,kkt            tkk,  3kk9  *kka            9kkkkkkkkkkkkkkk",
"kkkkkkkkkkkkkkkkkkkkkkkkkkkk#              *kkkkkkkkkkkk*              #kkkkkkkkkkkkkkkkkkkkkkkkkkkk",
"kkkkkkkkkkkkkkkkkkkkkkkkkkkk#              *kkkkkkkkkkkk*              #kkkkkkkkkkkkkkkkkkkkkkkkkkkk",
"kkkkkkkkkkkkkkkkkkkkkkkkkkkk#              *kkkkkkkkkkkk*              #kkkkkkkkkkkkkkkkkkkkkkkkkkkk",
"kkkkkkkkkkkkkkkkkkkkkkkkkkkksaaaaaaaaaaaaaaskkkkkkkkkkkksaaaaaaaaaaaaaaskkkkkkkkkkkkkkkkkkkkkkkkkkkk",
"kkkkkkkkkkkkkkkkkkkkkkkkkkkkkkkkkkkkkkkkkkkkkkkkkkkkkkkkkkkkkkkkkkkkkkkkkkkkkkkkkkkkkkkkkkkkkkkkkkkk",
"kkkkkkkkkkkkkkkkkkkkkkkkkkkkkkkkkkkkkkkkkkkkkkkkkkkkkkkkkkkkkkkkkkkkkkkkkkkkkkkkkkkkkkkkkkkkkkkkkkkk",
"kkkkkkkkkkkkkkkkkkkkkkkkkkkkkkkkkkkkkkkkkkkkkkkkkkkkkkkkkkkkkkkkkkkkkkkkkkkkkkkkkkkkkkkkkkkkkkkkkkkk",
"kkkkkkkkkkkkkkkkkkkkkkkkkkkkkkkkkkkkkkkkkkkkkkkkkkkkkkkkkkkkkkkkkkkkkkkkkkkkkkkkkkkkkkkkkkkkkkkkkkkk",
"kkkkkkkkkkkkkkkkkkkkkkkkkkkkkkkkkkkkkkkkkkkkkkkkkkkkkkkkkkkkkkkkkkkkkkkkkkkkkkkkkkkkkkkkkkkkkkkkkkkk",
"kkkkkkkkkkkkkkkkkkkkkkkkkkkkkkkkkkkkkkkkkkkkkkkkkkkkkkkkkkkkkkkkkkkkkkkkkkkkkkkkkkkkkkkkkkkkkkkkkkkk",
"kkkkkkkkkkkkkkkkkkkkkkkkkkkkkkkkkkkkkkkkkkkkkkkkkkkkkkkkkkkkkkkkkkkkkkkkkkkkkkkkkkkkkkkkkkkkkkkkkkkk",
"kkkkkkkkkkkkkkkkkkkkkkkkkkkkkkkkkkkkkkkkkkkkkkkkkkkkkkkkkkkkkkkkkkkkkkkkkkkkkkkkkkkkkkkkkkkkkkkkkkkk",
"kkkkkkkkkkkkkkkkkkkkkkkkkkkkkkkkkkkkkkkkkkkkkkkkkkkkkkkkkkkkkkkkkkkkkkkkkkkkkkkkkkkkkkkkkkkkkkkkkkkk",
"kkkkkkkkkkkkkkkkkkkkkkkkkkkkkkkkkkkkkkkkkkkkkkkkkkkkkkkkkkkkkkkkkkkkkkkkkkkkkkkkkkkkkkkkkkkkkkkkkkkk",
"kkkkkkkkkkkkkkkkkkkkkkkkkkkkkkkkkkkkkkkkkkkkkkkkkkkkkkkkkkkkkkkkkkkkkkkkkkkkkkkkkkkkkkkkkkkkkkkkkkkk",
"kkkkkkkkkkkkkkkkkkkkkkkkkkkkkkkkkkkkkkkkkkkkkkkkkkkkkkkkkkkkkkkkkkkkkkkkkkkkkkkkkkkkkkkkkkkkkkkkkkkk",
"kkkkkkkkkkkkkkkkkkkkkkkkkkkkkkkkkkkkkkkkkkkkkkkkkkkkkkkkkkkkkkkkkkkkkkkkkkkkkkkkkkkkkkkkkkkkkkkkkkkk",
"kkkkkkkkkkkkkkkkkkkkkkkkkkkkkkkkkkkkkkkkkkkkkkkkkkkkkkkkkkkkkkkkkkkkkkkkkkkkkkkkkkkkkkkkkkkkkkkkkkkk",
"kkkkkkkkkkkkkkkkkkkkkkkkkkkkkkkkkkkkkkkkkkkkkkkkkkkkkkkkkkkkkkkkkkkkkkkkkkkkkkkkkkkkkkkkkkkkkkkkkkkk",
"kkkkkkkkkkkkkkkkkkkkkkkkkkkkkkkkkkkkkkkkkkkkkkkkkkkkkkkkkkkkkkkkkkkkkkkkkkkkkkkkkkkkkkkkkkkkkkkkkkkk",
"kkkkkkkkkkkkkkkkkkkkkkkkkkkkkkkkkkkkkkkkkkkkkkkkkkkkkkkkkkkkkkkkkkkkkkkkkkkkkkkkkkkkkkkkkkkkkkkkkkkk",
"kkkkkkkkkkkkkkkkkkkkkkkkkkkkkkkkkkkkkkkkkkkkkkkkkkkkkkkkkkkkkkkkkkkkkkkkkkkkkkkkkkkkkkkkkkkkkkkkkkkk",
"kkkkkkkkkkkkkkkkkkkkkkkkkkkkkkkkkkkkkkkkkkkkkkkkkkkkkkkkkkkkkkkkkkkkkkkkkkkkkkkkkkkkkkkkkkkkkkkkkkkk",
"kkkkkkkkkkkkkkkkkkkkkkkkkkkkkkkkkkkkkkkkkkkkkkkkkkkkkkkkkkkkkkkkkkkkkkkkkkkkkkkkkkkkkkkkkkkkkkkkkkkk",
"kkkkkkkkkkkkkkkkkkkkkkkkkkkkkkkkkkkkkkkkkkkkkkkkkkkkkkkkkkkkkkkkkkkkkkkkkkkkkkkkkkkkkkkkkkkkkkkkkkkk"
};
