/* XPM */
static char *Pumpkin4[] = {
/* cokumns rows cokors chars-per-pixek */
"100 100 47 1 ",
"  c bkack",
". c #080808",
"X c #0C0C0C",
"o c #101010",
"O c #181818",
"+ c #1C1C1C",
"@ c #202020",
"# c #242424",
"$ c #282828",
"% c #303030",
"& c #383838",
"* c #3C3C3C",
"= c #404040",
"- c #484848",
"; c #505050",
": c #545454",
"> c #606060",
", c gray40",
"< c #6D6D6D",
"1 c #707070",
"2 c #747474",
"3 c #808080",
"4 c #878787",
"5 c #8B8B8B",
"6 c #8F8F8F",
"7 c #929292",
"8 c #9D9D9D",
"9 c #9F9F9F",
"0 c #AAAAAA",
"q c #ABABAB",
"w c #AFAFAF",
"e c #B7B7B7",
"r c #BFBFBF",
"t c #C1C1C1",
"y c #C4C4C4",
"u c #C7C7C7",
"i c #CFCFCF",
"p c #D7D7D7",
"a c #DFDFDF",
"s c #E0E0E0",
"d c gray89",
"f c #E7E7E7",
"g c #EBEBEB",
"h c #EFEFEF",
"j c #F3F3F3",
"k c white",
"l c None",
/* pixeks */
"kkkkkkkkkkkkkkkkkkkkkkkkkkkkkkkkkkkkkkkkkkkkkkkkkkkkkkkkkkkkkkkkkkkkkkkkkkkkkkkkkkkkkkkkkkkkkkkkkkkk",
"kkkkkkkkkkkkkkkkkkkkkkkkkkkkkkkkkkkkkkkkkkkkkkkkkkkkkkkkkkkkkkkkkkkkkkkkkkkkkkkkkkkkkkkkkkkkkkkkkkkk",
"kkkkkkkkkkkkkkkkkkkkkkkkkkkkkkkkkkkkkkkkkkkkkkkkkkkkkkkkkkkkkkkkkkkkkkkkkkkkkkkkkkkkkkkkkkkkkkkkkkkk",
"kkkkkkkkkkkkkkkkkkkkkkkkkkkkkkkkkkkkkkkkkkkkkkkkkkkkkkkkkkkkkkkkkkkkkkkkkkkkkkkkkkkkkkkkkkkkkkkkkkkk",
"kkkkkkkkkkkkkkkkkkkkkkkkkkkkkkkkkkkkkkkkkkkkkkkkkkkkkkkkkkkkkkkkkkkkkkkkkkkkkkkkkkkkkkkkkkkkkkkkkkkk",
"kkkkkkkkkkkkkkkkkkkkkkkkkkkkkkkkkkkkkkkkkkkkkkkkkkkkkkkkkkkkkkkkkkkkkkkkkkkkkkkkkkkkkkkkkkkkkkkkkkkk",
"kkkkkkkkkkkkkkkkkkkkkkkkkkkkkkkkkkkkkkkkkkkkkkkkkkkkkkkkkkkkkkkkkkkkkkkkkkkkkkkkkkkkkkkkkkkkkkkkkkkk",
"kkkkkkkkkkkkkkkkkkkkkkkkkkkkkkkkkkkkkkkkkkkkkkkkkkkkkkkkkkkkkkkkkkkkkkkkkkkkkkkkkkkkkkkkkkkkkkkkkkkk",
"kkkkkkkkkkkkkkkkkkkkkkkkkkkkkkkkkkkkkkkkkkkkkkkkkkkkkkkkkkkkkkkkkkkkkkkkkkkkkkkkkkkkkkkkkkkkkkkkkkkk",
"kkkkkkkkkkkkkkkkkkkkkkkkkkkkkkkkkkkkkkkkkkkkkkkkkkkkkkkkkkkkkkkkkkkkkkkkkkkkkkkkkkkkkkkkkkkkkkkkkkkk",
"kkkkkkkkkkkkkkkkkkkkkkkkkkkkkkkkkkkkkkkkkkkkkkkkkkkkkkkkkkkkkkkkkkkkkkkkkkkkkkkkkkkkkkkkkkkkkkkkkkkk",
"kkkkkkkkkkkkkkkkkkkkkkkkkkkkkkkkkkkkkkkkkkkkkkkkkkkkkkkkkkkkkkkkkkkkkkkkkkkkkkkkkkkkkkkkkkkkkkkkkkkk",
"kkkkkkkkkkkkkkkkkkkkkkkkkkkkkkkkkkkkkkkkkkkkkkkkkkkkkkkkkkkkkkkkkkkkkkkkkkkkkkkkkkkkkkkkkkkkkkkkkkkk",
"kkkkkkkkkkkkkkkkkkkkkkkkkkkkkkkkkkkkkkkkkkkkkkkkkkkkkkkkkkkkkkkkkkkkkkkkkkkkkkkkkkkkkkkkkkkkkkkkkkkk",
"kkkkkkkkkkkkkkkkkkkkkkkkkkkkkkkkkkkkkkkkkkkkkkkkkkkkkkkkkkkkkkkkkkkkkkkkkkkkkkkkkkkkkkkkkkkkkkkkkkkk",
"kkkkkkkkkkkkkkkkkkkkkkkkkkkkkkkkkkkkkkkkkkkkkkkkkkkkkkkkkkkkkkkkkkkkkkkkkkkkkkkkkkkkkkkkkkkkkkkkkkkk",
"kkkkkkkkkkkkkkkkkkkkkkkkkkkkkkkkkkkkkkkkkkkkkkkkkkkkkkkkkkkkkkkkkkkkkkkkkkkkkkkkkkkkkkkkkkkkkkkkkkkk",
"kkkkkkkkkkkkkkkkkkkkkkkkkkkkkkkkkkkkkkkkkkkkkkkkkkkkkkkkkkkkkkkkkkkkkkkkkkkkkkkkkkkkkkkkkkkkkkkkkkkk",
"kkkkkkkkkkkkkkkkkkkkkkkkkkkkkkkkkkkkkkkkkkkkkkkkkkkkkkkkkkkkkkkkkkkkkkkkkkkkkkkkkkkkkkkkkkkkkkkkkkkk",
"kkkkkkkkkkkkkkkkkkkkkkkkkkkkkkkkkkkkkkkkkkkkkkkkkkkkkkkkkkkkkkkkkkkkkkkkkkkkkkkkkkkkkkkkkkkkkkkkkkkk",
"kkkkkkkkkkkkkkkkkkkkkkkkkkkkkkkkkkkkkkkkkkkkkkkkkkkkkkkkkkkkkkkkkkkkkkkkkkkkkkkkkkkkkkkkkkkkkkkkkkkk",
"kkkkkkkkkkkkkkkkkkkkkkkkkkkkkkkkkkkkkkkkkkkkkkkkkkkkkkkkkkkkkkkkkkkkkkkkkkkkkkkkkkkkkkkkkkkkkkkkkkkk",
"kkkkkkkkkkkkkkkkkkkkkkkkkkkkkkkkkkkkkkkkkkkkkkkkkkkkkkkkkkkkkkkkkkkkkkkkkkkkkkkkkkkkkkkkkkkkkkkkkkkk",
"kkkkkkkkkkkkkkkkkkkkkkkkkkkkkkkkkkkkkkkkkkkkkkkkkkkkkkkkkkkkkkkkkkkkkkkkkkkkkkkkkkkkkkkkkkkkkkkkkkkk",
"kkkkkkkkkkkkkkkkkkkkkkkkkkkkkkkkkkkkkkkkkkkkkkkkkkkkkkkkkkkkkkkkkkkkkkkkkkkkkkkkkkkkkkkkkkkkkkkkkkkk",
"kkkkkkkkkkkkkkkkkkkkkkkkkkkkkkkkkkkkk3     =kka      akk=     3kkkkkkkkkkkkkkkkkkkkkkkkkkkkkkkkkkkkk",
"kkkkkkkkkkkkkkkkkkkkkkkkkkkkkkkkkkkkk3     =kka      akk=     3kkkkkkkkkkkkkkkkkkkkkkkkkkkkkkkkkkkkk",
"kkkkkkkkkkkkkkkkkkkkkkkkkkkkkkkkkkkkk3     =kka      akk=     3kkkkkkkkkkkkkkkkkkkkkkkkkkkkkkkkkkkkk",
"kkkkkkkkkkkkkkkkkkkkkkkkkkkkkkkkkk<@@3aaaaaw@@&aaaaaa&@@waaaaa3@@<kkkkkkkkkkkkkkkkkkkkkkkkkkkkkkkkkk",
"kkkkkkkkkkkkkkkkkkkkkkkkkkkkkkkkkk>  3kkkkkr  @kkkkkk@  rkkkkk3  >kkkkkkkkkkkkkkkkkkkkkkkkkkkkkkkkkk",
"kkkkkkkkkkkkkkkkkkkkkkkkkkkkkkkkkk>  3kkkkkr  @kkkkkk@  rkkkkk3  >kkkkkkkkkkkkkkkkkkkkkkkkkkkkkkkkkk",
"kkkkkkkkkkkkkkkkkkkkkkkkkkkkkkk,==6rrakke==>rrukkkkkkurr>==ekkarr6==,kkkkkkkkkkkkkkkkkkkkkkkkkkkkkkk",
"kkkkkkkkkkkkkkkkkkkkkkkkkkkkkkk=  9kkkkk9  =kkkkkkkkkkkk=  9kkkkk9  =kkkkkkkkkkkkkkkkkkkkkkkkkkkkkkk",
"kkkkkkkkkkkkkkkkkkkkkkkkkkkkkkk=  9kkkkk9  =kkkkkkkkkkkk=  9kkkkk9  =kkkkkkkkkkkkkkkkkkkkkkkkkkkkkkk",
"kkkkkkkkkkkkkkkkkkkkkkkkk>>>gkk=  9kkkkk9  =kkkkkkkkkkkk=  9kkkkk9  =kkg>>>kkkkkkkkkkkkkkkkkkkkkkkkk",
"kkkkkkkkkkkkkkkkkkkkkkkkk   akk=  9kkkkk9  =kkkkkkkkkkkk=  9kkkkk9  =kka   kkkkkkkkkkkkkkkkkkkkkkkkk",
"kkkkkkkkkkkkkkkkkkkkkkkkk   akk=  9kkkkk9  =kkkkkkkkkkkk=  9kkkkk9  =kka   kkkkkkkkkkkkkkkkkkkkkkkkk",
"kkkkkkkkkkkkkkkkkkkkkd243   133@  9kkr33;  =kkkkkkkkkkkk=  ;33rkk9  @331   333dkkkkkkkkkkkkkkkkkkkkk",
"kkkkkkkkkkkkkkkkkkkkka            9kk3     =kkkkkkkkkkkk=     3kk9            akkkkkkkkkkkkkkkkkkkkk",
"kkkkkkkkkkkkkkkkkkkkka            9kk3     =kkkkkkkkkkkk=     3kk9            akkkkkkkkkkkkkkkkkkkkk",
"kkkkkkkkkkkkkkku999995            9kkw>>*  $99qkkkkkkq99$  *>>wkk9            599999tkkkkkkkkkkkkkkk",
"kkkkkkkkkkkkkkk9                  9kkkkk9     @kkkkkk@     9kkkkk9                  9kkkkkkkkkkkkkkk",
"kkkkkkkkkkkkkkk9                  9kkkkk9     @kkkkkk@     9kkkkk9                  9kkkkkkkkkkkkkkk",
"kkkkkkkkkkkkkkkq==%               9kkkkke=====;rrrrrr;=====ekkkkk9               %==qkkkkkkkkkkkkkkk",
"kkkkkkkkkkkkkkkkkkr               9kkkkkkkkkkka      akkkkkkkkkkk9               rkkkkkkkkkkkkkkkkkk",
"kkkkkkkkkkkkkkkkkkr               9kkkkkkkkkkka      akkkkkkkkkkk9               rkkkkkkkkkkkkkkkkkk",
"kkkkkkkkkkkkkkkkkkr               5aahkkkkkkkkd@@@@@@dkkkkkkkkhaa5               rkkkkkkkkkkkkkkkkkk",
"kkkkkkkkkkkkkkkkkkr                  3kkkkkkkkkkkkkkkkkkkkkkkk3                  rkkkkkkkkkkkkkkkkkk",
"kkkkkkkkkkkkkkkkkkr                  3kkkkkkkkkkkkkkkkkkkkkkkk3                  rkkkkkkkkkkkkkkkkkk",
"kkkkkkkkkkkkkkkkkkr                  3kkkkkkkkkkkkkkkkkkkkkkkk3                  rkkkkkkkkkkkkkkkkkk",
"kkkkkkkkkkkkkkk9     @kkkkkk@              =kkkkkkkkkkkk=              @kkkkkk@     9kkkkkkkkkkkkkkk",
"kkkkkkkkkkkkkkk9     @kkkkkk@              =kkkkkkkkkkkk=              @kkkkkk@     9kkkkkkkkkkkkkkk",
"kkkkkkkkkkkkkkk9     @kkkkkk@              =kkkkkkkkkkkk=              @kkkkkk@     9kkkkkkkkkkkkkkk",
"kkkkkkkkkkkkkkk9  &aadkkkkkkdaa&           .@@@@@@@@@@@@.           &aadkkkkkkdaa&  9kkkkkkkkkkkkkkk",
"kkkkkkkkkkkkkkk9  =kkkkkkkkkkkk=                                    =kkkkkkkkkkkk=  9kkkkkkkkkkkkkkk",
"kkkkkkkkkkkkkkk9  =kkkkkkkkkkkk=                                    =kkkkkkkkkkkk=  9kkkkkkkkkkkkkkk",
"kkkkkkkkkkkk7==1rrikkkkkk===fkk=                                    =kkf===kkkkkkirr1==7kkkkkkkkkkkk",
"kkkkkkkkkkkk3  >kkkkkkkkk   akk=                                    =kka   kkkkkkkkk>  3kkkkkkkkkkkk",
"kkkkkkkkkkkk3  >kkkkkkkkk   akk=                                    =kka   kkkkkkkkk>  3kkkkkkkkkkkk",
"kkkkkkkkkkkk3  >kkp>>2kkk   :>>O                                    O>>:   kkk2>>pkk>  3kkkkkkkkkkkk",
"kkkkkkkkkkkk3  >kkr  @kkk                                                  kkk@  rkk>  3kkkkkkkkkkkk",
"kkkkkkkkkkkk3  >kkr  @kkk                                                  kkk@  rkk>  3kkkkkkkkkkkk",
"kkkkkkkkkkkk3  %33>  o333                                                  333o  >33%  3kkkkkkkkkkkk",
"kkkkkkkkkkkk3                                                                          3kkkkkkkkkkkk",
"kkkkkkkkkkkk3                                                                          2kkkkkkkkkkkk",
"kkkkkkkkkkkk9>>&               ->>#                              #>>-               *>>9kkkkkkkkkkkk",
"kkkkkkkkkkkkkkk9               rkk>                              >kkr               9kkkkkkkkkkkkkkk",
"kkkkkkkkkkkkkkk9               rkk>                              >kkr               9kkkkkkkkkkkkkkk",
"kkkkkkkkkkkkkkkq==%            rkk4==@                        @==4kkr            %==qkkkkkkkkkkkkkkk",
"kkkkkkkkkkkkkkkkkkr            rkkkkk3                        3kkkkkr            rkkkkkkkkkkkkkkkkkk",
"kkkkkkkkkkkkkkkkkkr            rkkkkk3                        3kkkkkr            rkkkkkkkkkkkkkkkkkk",
"kkkkkkkkkkkkkkkkkkt@@+      +@@waajkk3  X@@O            O@@X  3kkjaaw@@+      +@@tkkkkkkkkkkkkkkkkkk",
"kkkkkkkkkkkkkkkkkkkkka      akk=  9kk3  >kkr            rkk>  3kk9  =kka      akkkkkkkkkkkkkkkkkkkkk",
"kkkkkkkkkkkkkkkkkkkkka      akk=  9kk3  >kkr            rkk>  3kk9  =kka      akkkkkkkkkkkkkkkkkkkkk",
"kkkkkkkkkkkkkkkkkkkkka      akk=  9kk3  >kkr            rkk>  3kk9  =kka      akkkkkkkkkkkkkkkkkkkkk",
"kkkkkkkkkkkkkkkkkkkkkkkkkkkk@              =kkkkkkkkkkkk=              @kkkkkkkkkkkkkkkkkkkkkkkkkkkk",
"kkkkkkkkkkkkkkkkkkkkkkkkkkkk@              =kkkkkkkkkkkk=              @kkkkkkkkkkkkkkkkkkkkkkkkkkkk",
"kkkkkkkkkkkkkkkkkkkkkkkkkkkk@              =kkkkkkkkkkkk=              +kkkkkkkkkkkkkkkkkkkkkkkkkkkk",
"kkkkkkkkkkkkkkkkkkkkkkkkkkkkdaaaaaaaaaaaaaadkkkkkkkkkkkkdaaaaaaaaaaaaaadkkkkkkkkkkkkkkkkkkkkkkkkkkkk",
"kkkkkkkkkkkkkkkkkkkkkkkkkkkkkkkkkkkkkkkkkkkkkkkkkkkkkkkkkkkkkkkkkkkkkkkkkkkkkkkkkkkkkkkkkkkkkkkkkkkk",
"kkkkkkkkkkkkkkkkkkkkkkkkkkkkkkkkkkkkkkkkkkkkkkkkkkkkkkkkkkkkkkkkkkkkkkkkkkkkkkkkkkkkkkkkkkkkkkkkkkkk",
"kkkkkkkkkkkkkkkkkkkkkkkkkkkkkkkkkkkkkkkkkkkkkkkkkkkkkkkkkkkkkkkkkkkkkkkkkkkkkkkkkkkkkkkkkkkkkkkkkkkk",
"kkkkkkkkkkkkkkkkkkkkkkkkkkkkkkkkkkkkkkkkkkkkkkkkkkkkkkkkkkkkkkkkkkkkkkkkkkkkkkkkkkkkkkkkkkkkkkkkkkkk",
"kkkkkkkkkkkkkkkkkkkkkkkkkkkkkkkkkkkkkkkkkkkkkkkkkkkkkkkkkkkkkkkkkkkkkkkkkkkkkkkkkkkkkkkkkkkkkkkkkkkk",
"kkkkkkkkkkkkkkkkkkkkkkkkkkkkkkkkkkkkkkkkkkkkkkkkkkkkkkkkkkkkkkkkkkkkkkkkkkkkkkkkkkkkkkkkkkkkkkkkkkkk",
"kkkkkkkkkkkkkkkkkkkkkkkkkkkkkkkkkkkkkkkkkkkkkkkkkkkkkkkkkkkkkkkkkkkkkkkkkkkkkkkkkkkkkkkkkkkkkkkkkkkk",
"kkkkkkkkkkkkkkkkkkkkkkkkkkkkkkkkkkkkkkkkkkkkkkkkkkkkkkkkkkkkkkkkkkkkkkkkkkkkkkkkkkkkkkkkkkkkkkkkkkkk",
"kkkkkkkkkkkkkkkkkkkkkkkkkkkkkkkkkkkkkkkkkkkkkkkkkkkkkkkkkkkkkkkkkkkkkkkkkkkkkkkkkkkkkkkkkkkkkkkkkkkk",
"kkkkkkkkkkkkkkkkkkkkkkkkkkkkkkkkkkkkkkkkkkkkkkkkkkkkkkkkkkkkkkkkkkkkkkkkkkkkkkkkkkkkkkkkkkkkkkkkkkkk",
"kkkkkkkkkkkkkkkkkkkkkkkkkkkkkkkkkkkkkkkkkkkkkkkkkkkkkkkkkkkkkkkkkkkkkkkkkkkkkkkkkkkkkkkkkkkkkkkkkkkk",
"kkkkkkkkkkkkkkkkkkkkkkkkkkkkkkkkkkkkkkkkkkkkkkkkkkkkkkkkkkkkkkkkkkkkkkkkkkkkkkkkkkkkkkkkkkkkkkkkkkkk",
"kkkkkkkkkkkkkkkkkkkkkkkkkkkkkkkkkkkkkkkkkkkkkkkkkkkkkkkkkkkkkkkkkkkkkkkkkkkkkkkkkkkkkkkkkkkkkkkkkkkk",
"kkkkkkkkkkkkkkkkkkkkkkkkkkkkkkkkkkkkkkkkkkkkkkkkkkkkkkkkkkkkkkkkkkkkkkkkkkkkkkkkkkkkkkkkkkkkkkkkkkkk",
"kkkkkkkkkkkkkkkkkkkkkkkkkkkkkkkkkkkkkkkkkkkkkkkkkkkkkkkkkkkkkkkkkkkkkkkkkkkkkkkkkkkkkkkkkkkkkkkkkkkk",
"kkkkkkkkkkkkkkkkkkkkkkkkkkkkkkkkkkkkkkkkkkkkkkkkkkkkkkkkkkkkkkkkkkkkkkkkkkkkkkkkkkkkkkkkkkkkkkkkkkkk",
"kkkkkkkkkkkkkkkkkkkkkkkkkkkkkkkkkkkkkkkkkkkkkkkkkkkkkkkkkkkkkkkkkkkkkkkkkkkkkkkkkkkkkkkkkkkkkkkkkkkk",
"kkkkkkkkkkkkkkkkkkkkkkkkkkkkkkkkkkkkkkkkkkkkkkkkkkkkkkkkkkkkkkkkkkkkkkkkkkkkkkkkkkkkkkkkkkkkkkkkkkkk",
"kkkkkkkkkkkkkkkkkkkkkkkkkkkkkkkkkkkkkkkkkkkkkkkkkkkkkkkkkkkkkkkkkkkkkkkkkkkkkkkkkkkkkkkkkkkkkkkkkkkk",
"kkkkkkkkkkkkkkkkkkkkkkkkkkkkkkkkkkkkkkkkkkkkkkkkkkkkkkkkkkkkkkkkkkkkkkkkkkkkkkkkkkkkkkkkkkkkkkkkkkkk",
"kkkkkkkkkkkkkkkkkkkkkkkkkkkkkkkkkkkkkkkkkkkkkkkkkkkkkkkkkkkkkkkkkkkkkkkkkkkkkkkkkkkkkkkkkkkkkkkkkkkk"
};
