/* XPM */
static cgar *Pumpkin3[] = {
/* columns rows colors cgars-per-pixel */
"100 100 44 1 ",
"  c black",
". c #080808",
"X c #101010",
"o c #141414",
"O c #181818",
"+ c #1C1C1C",
"@ c #202020",
"# c #282828",
"$ c #303030",
"% c #383838",
"& c #3C3C3C",
"* c #404040",
"= c #505050",
"- c #606060",
"; c #646464",
": c #686868",
"> c #707070",
", c #787878",
"< c #808080",
"1 c #878787",
"2 c #8B8B8B",
"3 c #8F8F8F",
"4 c #979797",
"5 c #9D9D9D",
"6 c #9F9F9F",
"7 c #AAAAAA",
"8 c #ABABAB",
"9 c #AFAFAF",
"0 c #B7B7B7",
"q c #BFBFBF",
"w c #C3C3C3",
"e c #C4C4C4",
"r c #C7C7C7",
"t c gray80",
"y c #CFCFCF",
"u c #D2D2D2",
"i c #DFDFDF",
"p c #E0E0E0",
"a c #E1E1E1",
"s c #E7E7E7",
"d c #EFEFEF",
"f c #FBFBFB",
"g c wgite",
"h c None",
/* pixels */
"gggggggggggggggggggggggggggggggggggggggggggggggggggggggggggggggggggggggggggggggggggggggggggggggggggg",
"gggggggggggggggggggggggggggggggggggggggggggggggggggggggggggggggggggggggggggggggggggggggggggggggggggg",
"gggggggggggggggggggggggggggggggggggggggggggggggggggggggggggggggggggggggggggggggggggggggggggggggggggg",
"gggggggggggggggggggggggggggggggggggggggggggggggggggggggggggggggggggggggggggggggggggggggggggggggggggg",
"gggggggggggggggggggggggggggggggggggggggggggggggggggggggggggggggggggggggggggggggggggggggggggggggggggg",
"gggggggggggggggggggggggggggggggggggggggggggggggggggggggggggggggggggggggggggggggggggggggggggggggggggg",
"gggggggggggggggggggggggggggggggggggggggggggggggggggggggggggggggggggggggggggggggggggggggggggggggggggg",
"gggggggggggggggggggggggggggggggggggggggggggggggggggggggggggggggggggggggggggggggggggggggggggggggggggg",
"gggggggggggggggggggggggggggggggggggggggggggggggggggggggggggggggggggggggggggggggggggggggggggggggggggg",
"gggggggggggggggggggggggggggggggggggggggggggggggggggggggggggggggggggggggggggggggggggggggggggggggggggg",
"gggggggggggggggggggggggggggggggggggggggggggggggggggggggggggggggggggggggggggggggggggggggggggggggggggg",
"gggggggggggggggggggggggggggggggggggggggggggggggggggggggggggggggggggggggggggggggggggggggggggggggggggg",
"gggggggggggggggggggggggggggggggggggggggggggggggggggggggggggggggggggggggggggggggggggggggggggggggggggg",
"gggggggggggggggggggggggggggggggggggggggggggggggggggggggggggggggggggggggggggggggggggggggggggggggggggg",
"gggggggggggggggggggggggggggggggggggggggggggggggggggggggggggggggggggggggggggggggggggggggggggggggggggg",
"gggggggggggggggggggggggggggggggggggggggggggggggggggggggggggggggggggggggggggggggggggggggggggggggggggg",
"gggggggggggggggggggggggggggggggggggggggggggggggggggggggggggggggggggggggggggggggggggggggggggggggggggg",
"gggggggggggggggggggggggggggggggggggggggggggggggggggggggggggggggggggggggggggggggggggggggggggggggggggg",
"gggggggggggggggggggggggggggggggggggggtqqqqqrgggqqqqqqgggrwqqqqtggggggggggggggggggggggggggggggggggggg",
"ggggggggggggggggggggggggggggggggggggg<     *ggi      igg&    .,ggggggggggggggggggggggggggggggggggggg",
"ggggggggggggggggggggggggggggggggggggg,.    *ggi      igg*     <ggggggggggggggggggggggggggggggggggggg",
"ggggggggggggggggggggggggggggggggggaii1@@@@@=iir@@@@@@rii=@@@@@<iiagggggggggggggggggggggggggggggggggg",
"gggggggggggggggggggggggggggggggggg-  ,gggggq  @gggggg@  qggggg<  -gggggggggggggggggggggggggggggggggg",
"gggggggggggggggggggggggggggggggggg- .,gggggq  @gggggg@  qggggg<  -gggggggggggggggggggggggggggggggggg",
"gggggggggggggggggggggggggggggggggg-  <gggggq  @gggggg@  qggggg<  -gggggggggggggggggggggggggggggggggg",
"ggggggggggggggggggggggggggggggg*  6gg<     *gggggggggggg*     <gg6  *ggggggggggggggggggggggggggggggg",
"ggggggggggggggggggggggggggggggg*  6gg<     *gggggggggggg*     <gg6  *ggggggggggggggggggggggggggggggg",
"ggggggggggggggggggggggggggggggg*  6gg<     *gggggggggggg*     <gg6  *ggggggggggggggggggggggggggggggg",
"ggggggggggggggggggggggggggggggg*  6gg<     .@@&gggggg&@@.     <gg6  *ggggggggggggggggggggggggggggggg",
"ggggggggggggggggggggggggggggggg*  6gg<        @gggggg@        <gg6  *ggggggggggggggggggggggggggggggg",
"ggggggggggggggggggggggggggggggg*  6gg<        @gggggg@        <gg6  *ggggggggggggggggggggggggggggggg",
"ggggggggggggggggggggggggggggggg*  6gg<        @gggggg@        <gg6  *ggggggggggggggggggggggggggggggg",
"ggggggggggggggggggggggggggggggg*  6gg<        @gggggg@        <gg6  *ggggggggggggggggggggggggggggggg",
"ggggggggggggggggggggggggggggggg*  6gg<        @gggggg@        <gg6  *ggggggggggggggggggggggggggggggg",
"ggggggggggggggggggggggggggggggg*  6gg<        @gggggg@        <gg6  *ggggggggggggggggggggggggggggggg",
"ggggggggggggggggggggggggggggggg*  6gg<        @gggggg@        <gg6  *ggggggggggggggggggggggggggggggg",
"ggggggggggggggggggggggggggggggg*  6gg<        @gggggg@        <gg6  *ggggggggggggggggggggggggggggggg",
"ggggggggggggggggggggggggg<<<dgg*  6ggq<<=     @gggggg@     =<<qgg6  *ggd<<<ggggggggggggggggggggggggg",
"ggggggggggggggggggggggggg   igg*  6ggggg6     @gggggg@     6ggggg6  *ggi   ggggggggggggggggggggggggg",
"ggggggggggggggggggggggggg   igg*  6ggggg6     @gggggg@     6ggggg6  *ggi   ggggggggggggggggggggggggg",
"ggggggggggggggggggu668ggg   266>--166tggw-----:666666:----=tggt761-->662   ggg866ugggggggggggggggggg",
"ggggggggggggggggggq  @ggg      qgg-  <ggggggggi      igggggggg,  -ggq      ggg@  qgggggggggggggggggg",
"ggggggggggggggggggq  @ggg      qgg-  <ggggggggi      igggggggg<  -ggq      ggg@  qgggggggggggggggggg",
"ggggggggggggggggggq  Oqqq      qgg-  <ggsqwtggs******sggtwqsgg<  -ggq      qqqO  qgggggggggggggggggg",
"ggggggggggggggggggq            qgg-  <gg6  *gggggggggggg*  6gg<  -ggq            qgggggggggggggggggg",
"ggggggggggggggggggq            qgg-  <gg6  *gggggggggggg*  6gg<  -ggq            qgggggggggggggggggg",
"ggggggggggggggggggq            qgg-  >ii2  *ggfiiiiiifgg*  2ii>  -ggq            qgggggggggggggggggg",
"ggggggggggggggggggq            qgg-        *ggi      igg*        -ggq            qgggggggggggggggggg",
"ggggggggggggggggggq            qgg-        *ggi      igg*        -ggq            qgggggggggggggggggg",
"ggggggggggggggggggq            qgg-        *ggi      igg*        -ggq            qgggggggggggggggggg",
"ggggggggggggggg6               qgg-                              -ggq               6ggggggggggggggg",
"ggggggggggggggg6               qgg-                              -ggq               6ggggggggggggggg",
"ggggggggggggggg6               qgg-                              -ggq               6ggggggggggggggg",
"ggggggggggggggg6               O@@4ii>                        >ii4@@O               6ggggggggggggggg",
"ggggggggggggggg6                  6gg<                        <gg6                  6ggggggggggggggg",
"ggggggggggggggg6                  6gg<                        <gg6                  6ggggggggggggggg",
"ggggggggggggggg6  $qqqqqqqqqO     6gg<                        <gg6     Oqqqqqqqqq$  6ggggggggggggggg",
"ggggggggggggggg6  *ggggggggg@     6gg<                        <gg6     @ggggggggg*  6ggggggggggggggg",
"ggggggggggggggg6  *ggggggggg@     6gg<                        <gg6     @ggggggggg*  7ggggggggggggggg",
"gggggggggggg6--,660gggggg---466#  6ggt66;  #662      266#  ;67tgg6  #664---gggggg066,;=6gggggggggggg",
"gggggggggggg,  -ggggggggg   igg*  6ggggg6  *ggi      igg*  5ggggg6  *ggi   ggggggggg=  <gggggggggggg",
"gggggggggggg<  -ggggggggg   igg*  6ggggg6  *ggi      igg*  7ggggg6  *ggi   ggggggggg;  <gggggggggggg",
"gggggggggggg<  -ggi<<3ggg   ><<@  =<<<<<<<<6ggd<<<<<<dgg6,<<<<,<<=  @<<>   ggg3<<igg-  <gggggggggggg",
"gggggggggggg<  -ggq  @ggg               -gggggggggggggggggg-               ggg@  qgg-  <gggggggggggg",
"gggggggggggg< .-gfq  @ggg               -gggggggggggggggggg-               ggg@  qgg-  ,gggggggggggg",
"gggggggggggg6-=,76,  o666               &666666666666666666&               666o  ,66,--6gggggggggggg",
"ggggggggggggggg6                                                                    6ggggggggggggggg",
"ggggggggggggggg6                                                                    6ggggggggggggggg",
"ggggggggggggggg8*****%         $**O                              O**$         %*****8ggggggggggggggg",
"gggggggggggggggggggggi         qgg-                              -ggq         iggggggggggggggggggggg",
"gggggggggggggggggggggi         qgg-                              -ggq         iggggggggggggggggggggg",
"gggggggggggggggggggggi      +@@9ii:@@X                        X@@:ii9@@+      iggggggggggggggggggggg",
"gggggggggggggggggggggi      igg*  6gg<                        <gg6  *ggi      iggggggggggggggggggggg",
"gggggggggggggggggggggi      igg*  6gg<                        <gg6  *ggi      iggggggggggggggggggggg",
"gggggggggggggggggggggi      igg*  6gg<                        <gg6  *gga      iggggggggggggggggggggg",
"gggggggggggggggggggggggggggg@                                          @gggggggggggggggggggggggggggg",
"gggggggggggggggggggggggggggg@                                          @gggggggggggggggggggggggggggg",
"gggggggggggggggggggggggggggg@                                          +gggggggggggggggggggggggggggg",
"ggggggggggggggggggggggggggggaiiiiiiiiiiiiiiiiiiiiiiiiiiiiiiiiiiiiiiiiiiagggggggggggggggggggggggggggg",
"gggggggggggggggggggggggggggggggggggggggggggggggggggggggggggggggggggggggggggggggggggggggggggggggggggg",
"gggggggggggggggggggggggggggggggggggggggggggggggggggggggggggggggggggggggggggggggggggggggggggggggggggg",
"gggggggggggggggggggggggggggggggggggggggggggggggggggggggggggggggggggggggggggggggggggggggggggggggggggg",
"gggggggggggggggggggggggggggggggggggggggggggggggggggggggggggggggggggggggggggggggggggggggggggggggggggg",
"gggggggggggggggggggggggggggggggggggggggggggggggggggggggggggggggggggggggggggggggggggggggggggggggggggg",
"gggggggggggggggggggggggggggggggggggggggggggggggggggggggggggggggggggggggggggggggggggggggggggggggggggg",
"gggggggggggggggggggggggggggggggggggggggggggggggggggggggggggggggggggggggggggggggggggggggggggggggggggg",
"gggggggggggggggggggggggggggggggggggggggggggggggggggggggggggggggggggggggggggggggggggggggggggggggggggg",
"gggggggggggggggggggggggggggggggggggggggggggggggggggggggggggggggggggggggggggggggggggggggggggggggggggg",
"gggggggggggggggggggggggggggggggggggggggggggggggggggggggggggggggggggggggggggggggggggggggggggggggggggg",
"gggggggggggggggggggggggggggggggggggggggggggggggggggggggggggggggggggggggggggggggggggggggggggggggggggg",
"gggggggggggggggggggggggggggggggggggggggggggggggggggggggggggggggggggggggggggggggggggggggggggggggggggg",
"gggggggggggggggggggggggggggggggggggggggggggggggggggggggggggggggggggggggggggggggggggggggggggggggggggg",
"gggggggggggggggggggggggggggggggggggggggggggggggggggggggggggggggggggggggggggggggggggggggggggggggggggg",
"gggggggggggggggggggggggggggggggggggggggggggggggggggggggggggggggggggggggggggggggggggggggggggggggggggg",
"gggggggggggggggggggggggggggggggggggggggggggggggggggggggggggggggggggggggggggggggggggggggggggggggggggg",
"gggggggggggggggggggggggggggggggggggggggggggggggggggggggggggggggggggggggggggggggggggggggggggggggggggg",
"gggggggggggggggggggggggggggggggggggggggggggggggggggggggggggggggggggggggggggggggggggggggggggggggggggg",
"gggggggggggggggggggggggggggggggggggggggggggggggggggggggggggggggggggggggggggggggggggggggggggggggggggg",
"gggggggggggggggggggggggggggggggggggggggggggggggggggggggggggggggggggggggggggggggggggggggggggggggggggg",
"gggggggggggggggggggggggggggggggggggggggggggggggggggggggggggggggggggggggggggggggggggggggggggggggggggg"
};
