/* XPM */
static char *stairs[] = {
/* columns rows colors chars-per-pixel */
"100 100 34 1 ",
"  c black",
". c #030303",
"X c #060606",
"o c #090909",
"O c #0D0D0D",
"+ c #131313",
"@ c #161616",
"# c #191919",
"$ c #1C1C1C",
"% c #262626",
"& c #2F2F2F",
"* c #323232",
"= c #363636",
"- c #393939",
"; c #424242",
": c #494949",
"> c #4C4C4C",
", c #4F4F4F",
"< c #555555",
"1 c #585858",
"2 c #5E5E5E",
"3 c #6E6E6E",
"4 c #717171",
"5 c #7B7B7B",
"6 c #7E7E7E",
"7 c #8E8E8E",
"8 c #979797",
"9 c #AAAAAA",
"0 c #B0B0B0",
"q c #C6C6C6",
"w c #E3E3E3",
"e c #F2F2F2",
"r c white",
"t c None",
/* pixels */
"tttttt                                                                                        tttttt",
"tttttt                                                                                        tttttt",
"tttttt                                                                                        tttttt",
"tttttt                                                                                        tttttt",
"tttttt                                                                                        tttttt",
"ttttt:4444444444444444444441     >44444444444444444444444444444444444444444441     >4444444444:ttttt",
"     4rrrrrrrrrrrrrrrrrrrrrq     9rrrrrrrrrrrrrrrrrrrrrrrrrrrrrrrrrrrrrrrrrrrq     9rrrrrrrrrr4     ",
"     4rrrrrrrrrrrrrrrrrrrrrq     9rrrrrrrrrrrrrrrrrrrrrrrrrrrrrrrrrrrrrrrrrrrq     9rrrrrrrrrr4     ",
"     4rrrrrrrrrrrrrrrrrrrrrq     9rrrrrrrrrrrrrrrrrrrrrrrrrrrrrrrrrrrrrrrrrrrq     9rrrrrrrrrr4     ",
"     4rrrrrrrrrrrrrrrrrrrrrq     9rrrrrrrrrrrrrrrrrrrrrrrrrrrrrrrrrrrrrrrrrrrq     9rrrrrrrrrr4     ",
"     4rrrrrrrrrrrrrrrrrrrrrq     9rrrrrrrrrrrrrrrrrrrrrrrrrrrrrrrrrrrrrrrrrrrq     9rrrrrrrrrr4     ",
"     4rrrrr=$$$$$$$$$$$$$$$@     +$$$$$$$$$$$$$$$$$$$$$$$$$$$$$$$$$$$$$$$$$$$@     +$$$$=rrrrr4     ",
"     4rrrrr$                                                                            $rrrrr4     ",
"     4rrrrr$                                                                            $rrrrr4     ",
"     4rrrrr$                                                                            $rrrrr4     ",
"     4rrrrr$                                                                            $rrrrr4     ",
"     4rrrrr$                                                                            +99999>     ",
"     4rrrrr$                                                                                        ",
"     4rrrrr$                                                                                        ",
"     4rrrrr$                                                                                        ",
"     4rrrrr$                                                                                        ",
"     4rrrrr$                                                                                        ",
"     4rrrrr$                                                 0qqqqqqqqqqqqqqqqqqqqq;    @qqqqq1     ",
"     4rrrrr$                                                 wrrrrrrrrrrrrrrrrrrrrr<    $rrrrr4     ",
"     4rrrrr$                                                 wrrrrrrrrrrrrrrrrrrrrr<    $rrrrr4     ",
"     4rrrrr$                                                 wrrrrrrrrrrrrrrrrrrrrr<    $rrrrr4     ",
"     4rrrrr$                                                 wrrrrrrrrrrrrrrrrrrrrr<    $rrrrr4     ",
"     4rrrrr$                                                 wrrrrrrrrrrrrrrrrrrrrr<    $rrrrr4     ",
"     4rrrrr$                                                 wrrrrrrrrrrrrrrrrrrrrr<    $rrrrr4     ",
"     4rrrrr$                                                 wrrrrrrrrrrrrrrrrrrrrr<    $rrrrr4     ",
"     4rrrrr$                                                 wrrrrrrrrrrrrrrrrrrrrr<    $rrrrr4     ",
"     4rrrrr$                                                 wrrrrrrrrrrrrrrrrrrrrr<    $rrrrr4     ",
"     4rrrrr$                                                 wrrrrrrrrrrrrrrrrrrrrr<    $rrrrr4     ",
"     %<<<<<o                          +99999999999999992     wrrrrrrrrrrrrrrrrrrrrr<    $rrrrr4     ",
"                                      $rrrrrrrrrrrrrrrr7     wrrrrrrrrrrrrrrrrrrrrr<    $rrrrr4     ",
"                                      $rrrrrrrrrrrrrrrr7     wrrrrrrrrrrrrrrrrrrrrr<    $rrrrr4     ",
"                                      $rrrrrrrrrrrrrrrr7     wrrrrrrrrrrrrrrrrrrrrr<    $rrrrr4     ",
"                                      $rrrrrrrrrrrrrrrr7     wrrrrrrrrrrrrrrrrrrrrr<    $rrrrr4     ",
"     O$$$$$                           $rrrrrrrrrrrwwwww6     wrrrrrrrrrrrrrrrrrrrrr<    $rrrrr4     ",
"     4rrrrr$                          $rrrrrrrrrrr           wrrrrrrrrrrrrrrrrrrrrr<    $rrrrr4     ",
"     4rrrrr$                          $rrrrrrrrrrr           wrrrrrrrrrrrrrrrrrrrrr<    $rrrrr4     ",
"     4rrrrr$                          $rrrrrrrrrrr           wrrrrrrrrrrrrrrrrrrrrr<    $rrrrr4     ",
"     4rrrrr$                          $rrrrrrrrrrr           wrrrrrrrrrrrrrrrrrrrrr<    $rrrrr4     ",
"     4rrrrr$                          $rrrrrrrrrrr           wrrrrrrrrrrrrrrrrrrrrr<    $rrrrr4     ",
"     4rrrrr$          37777777777&    $rrrrrrrrrrr77777>     wrrrrrrrrrrrrrrrrrrrrr<    $rrrrr4     ",
"     4rrrrr$          qrrrrrrrrrr<    $rrrrrrrrrrrrrrrr7     wrrrrrrrrrrrrrrrrrrrrr<    $rrrrr4     ",
"     4rrrrr$          qrrrrrrrrrr<    $rrrrrrrrrrrrrrrr7     wrrrrrrrrrrrrrrrrrrrrr<    $rrrrr4     ",
"     4rrrrr$          qrrrrrrrrrr<    $rrrrrrrrrrrrrrrr7     wrrrrrrrrrrrrrrrrrrrrr<    $rrrrr4     ",
"     4rrrrr$          qrrrrrrrrrr<    $rrrrrrrrrrrrrrrr7     wrrrrrrrrrrrrrrrrrrrrr<    $rrrrr4     ",
"     4rrrrr$          qrrrrrrrrrr<    $rrrrrrrrrrrrrrrr7     wrrrrrrrrrrrrrrrrrrrrr<    $rrrrr4     ",
"     4rrrrr$          qrrrrrrrrrr<    $rrrrrrrrrrrrrrrr7     wrrrrrrrrrrrrrrrrrrrrr<    $rrrrr4     ",
"     4rrrrr$          qrrrrrrrrrr<    $rrrrrrrrrrrrrrrr7     wrrrrrrrrrrrrrrrrrrrrr<    $rrrrr4     ",
"     4rrrrr$          qrrrrrrrrrr<    $rrrrrrrrrrrrrrrr7     wrrrrrrrrrrrrrrrrrrrrr<    $rrrrr4     ",
"     4rrrrr$          qrrrrrrrrrr<    $rrrrrrrrrrrrrrrr7     wrrrrrrrrrrrrrrrrrrrrr<    $rrrrr4     ",
"     4rrrrr$          qrrrrrrrrrr<    $rrrrrrrrrrrrrrrr7     wrrrrrrrrrrrrrrrrrrrrr<    $rrrrr4     ",
"     4rrrrr$          qrrrrrrrrrr<    $rrrrrrrrrrrrrrrr7     wrrrrrrrrrrrrrrrrrrrrr<    $rrrrr4     ",
"     4rrrrr$          qrrrrrrrrrr<    $rrrrrrrrrrrrrrrr7     wrrrrrrrrrrrrrrrrrrrrr<    $rrrrr4     ",
"     4rrrrr$          qrrrrrrrrrr<    $rrrrrrrrrrrrrrrr7     wrrrrrrrrrrrrrrrrrrrrr<    $rrrrr4     ",
"     4rrrrr$          qrrrrrrrrrr<    $rrrrrrrrrrrrrrrr7     wrrrrrrrrrrrrrrrrrrrrr<    $rrrrr4     ",
"     4rrrrr$          qrrrrrrrrrr<    $rrrrrrrrrrrrrrrr7     wrrrrrrrrrrrrrrrrrrrrr<    $rrrrr4     ",
"     4rrrrr$          qrrrrrrrrrr<    $rrrrrrrrrrrrrrrr7     wrrrrrrrrrrrrrrrrrrrrr<    $rrrrr4     ",
"     4rrrrr$          qrrrrrrrrrr<    $rrrrrrrrrrrrrrrr7     wrrrrrrrrrrrrrrrrrrrrr<    $rrrrr4     ",
"     4rrrrr$          qrrrrrrrrrr<    $rrrrrrrrrrrrrrrr7     wrrrrrrrrrrrrrrrrrrrrr<    $rrrrr4     ",
"     4rrrrr$          qrrrrrrrrrr<    $rrrrrrrrrrrrrrrr7     wrrrrrrrrrrrrrrrrrrrrr<    $rrrrr4     ",
"     4rrrrr$          qrrrrrrrrrr<    $rrrrrrrrrrrrrrrr7     wrrrrrrrrrrrrrrrrrrrrr<    $rrrrr4     ",
"     4rrrrr$          qrrrrrrrrrr<    $rrrrrrrrrrrrrrrr7     wrrrrrrrrrrrrrrrrrrrrr<    $rrrrr4     ",
"     4rrrrr$          qrrrrrrrrrr<    $rrrrrrrrrrrrrrrr7     89999qrrrrrrrrrrrrrrrr<    $rrrrr4     ",
"     4rrrrr$          qrrrrrrrrrr<    $rrrrrrrrrrrrrrrr7          <rrrrrrrrrrrrrrrr<    $rrrrr4     ",
"     4rrrrr$          qrrrrrrrrrr<    $rrrrrrrrrrrrrrrr7          <rrrrrrrrrrrrrrrr<    $rrrrr4     ",
"     4rrrrr$          qrrrrrrrrrr<    $rrrrrrrrrrrrrrrr7          <rrrrrrrrrrrrrrrr<    $rrrrr4     ",
"     4rrrrr$          qrrrrrrrrrr<    $rrrrrrrrrrrrrrrr7          <rrrrrrrrrrrrrrrr<    $rrrrr4     ",
"     4rrrrr$          qrrrrrrrrrr<    $rrrrrrrrrrrrrrrr7          <rrrrrrrrrrrrrrrr<    $rrrrr4     ",
"     #-----X          qrrrrrrrrrr<    $rrrrrrrrrrrrrrrr7          <rrrrrrrrrrrrrrrr<    $rrrrr4     ",
"                      qrrrrrrrrrr<    $rrrrrrrrrrrrrrrr7          <rrrrrrrrrrrrrrrr<    $rrrrr4     ",
"                      qrrrrrrrrrr<    $rrrrrrrrrrrrrrrr7          <rrrrrrrrrrrrrrrr<    $rrrrr4     ",
"                      qrrrrrrrrrr<    $rrrrrrrrrrrrrrrr7          <rrrrrrrrrrrrrrrr<    $rrrrr4     ",
"                      qrrrrrrrrrr<    $rrrrrrrrrrrrrrrr7          <rrrrrrrrrrrrrrrr<    $rrrrr4     ",
"     #-----X          qrrrreqqqqq;    $rrrrrrrrrrrrrrrr7     *----5rrrrrrrrrrrrrrrr<    @qqqqq1     ",
"     4rrrrr$          qrrrrq          $rrrrrrrrrrrrrrrr7     wrrrrrrrrrrrrrrrrrrrrr<                ",
"     4rrrrr$          qrrrrq          $rrrrrrrrrrrrrrrr7     wrrrrrrrrrrrrrrrrrrrrr<                ",
"     4rrrrr$          qrrrrq          $rrrrrrrrrrrrrrrr7     wrrrrrrrrrrrrrrrrrrrrr<                ",
"     4rrrrr$          qrrrrq          $rrrrrrrrrrrrrrrr7     wrrrrrrrrrrrrrrrrrrrrr<                ",
"     4rrrrr$          qrrrrq          $rrrrrrrrrrrrrrrr7     wrrrrrrrrrrrrrrrrrrrrr<                ",
"     4rrrrr$          ;<<<<;          o<<<<<<<<<<<<<<<<&     ><<<<<<<<<<<<<<<<<<<<<$    +99999>     ",
"     4rrrrr$                                                                            $rrrrr4     ",
"     4rrrrr$                                                                            $rrrrr4     ",
"     4rrrrr$                                                                            $rrrrr4     ",
"     4rrrrr$                                                                            $rrrrr4     ",
"     4rrrrr=$$$$$$$$$$$$$$$$$$$$$$$$$$$$$$$$$$$$$$$$$$$$$$$$$$$$$$$$$$$$$$$$$$$$$$$$$$$$=rrrrr4     ",
"     4rrrrrrrrrrrrrrrrrrrrrrrrrrrrrrrrrrrrrrrrrrrrrrrrrrrrrrrrrrrrrrrrrrrrrrrrrrrrrrrrrrrrrrrr4     ",
"     4rrrrrrrrrrrrrrrrrrrrrrrrrrrrrrrrrrrrrrrrrrrrrrrrrrrrrrrrrrrrrrrrrrrrrrrrrrrrrrrrrrrrrrrr4     ",
"     4rrrrrrrrrrrrrrrrrrrrrrrrrrrrrrrrrrrrrrrrrrrrrrrrrrrrrrrrrrrrrrrrrrrrrrrrrrrrrrrrrrrrrrrr4     ",
"     4rrrrrrrrrrrrrrrrrrrrrrrrrrrrrrrrrrrrrrrrrrrrrrrrrrrrrrrrrrrrrrrrrrrrrrrrrrrrrrrrrrrrrrrr4     ",
"     4rrrrrrrrrrrrrrrrrrrrrrrrrrrrrrrrrrrrrrrrrrrrrrrrrrrrrrrrrrrrrrrrrrrrrrrrrrrrrrrrrrrrrrrr4     ",
"ttttt:4444444444444444444444444444444444444444444444444444444444444444444444444444444444444444:ttttt",
"tttttt                                                                                        tttttt",
"tttttt                                                                                        tttttt",
"tttttt                                                                                        tttttt",
"tttttt                                                                                        tttttt",
"tttttt                                                                                        tttttt"
};
